 <svg  version="1.0" xmlns="http://www.w3.org/2000/svg"  width="450.000000pt" height="450.000000pt" viewBox="0 0 450.000000 450.000000"  preserveAspectRatio="xMidYMid meet">  <g transform="translate(0.000000,450.000000) scale(0.100000,-0.100000)" fill="#d4a373" stroke="none"> <path d="M2389 3730 c-37 -20 -90 -68 -128 -116 -30 -40 -100 -171 -94 -177 2 -3 -5 -23 -17 -46 -11 -23 -18 -41 -16 -41 3 0 -4 -30 -14 -66 -13 -45 -28 -74 -47 -90 -34 -29 -52 -30 -84 -5 -40 30 -67 42 -74 31 -3 -5 5 -15 20 -22 14 -6 28 -22 31 -35 4 -12 10 -20 15 -17 5 3 9 1 9 -5 0 -18 45 -17 73 2 34 23 53 11 29 -18 -22 -27 -47 -36 -61 -22 -8 8 -11 8 -11 -1 0 -7 -4 -12 -10 -12 -5 0 -10 7 -10 15 0 8 -5 15 -11 15 -6 0 -8 -9 -4 -21 4 -13 0 -27 -11 -40 -13 -15 -14 -19 -3 -19 8 0 21 9 29 20 14 19 15 19 22 3 6 -17 7 -17 7 1 1 16 3 17 19 5 9 -7 14 -9 10 -5 -9 11 30 41 40 31 3 -3 0 -10 -7 -14 -7 -5 -10 -14 -7 -20 5 -7 -2 -11 -17 -11 -32 0 -40 -10 -19 -26 34 -27 49 -17 56 36 4 28 4 55 1 59 -3 5 -1 11 4 13 5 1 21 50 35 108 67 265 163 425 282 470 23 9 31 7 51 -12 60 -56 99 -166 109 -306 3 -42 7 -90 9 -105 3 -15 1 -26 -4 -23 -5 4 -11 -16 -13 -42 -2 -40 0 -48 15 -48 9 0 17 4 17 8 0 4 8 8 18 8 15 0 19 -9 21 -47 1 -26 7 -51 13 -55 8 -4 9 -11 1 -20 -5 -7 -13 -22 -17 -32 -6 -19 -6 -19 12 -3 10 9 22 14 25 10 12 -11 7 11 -8 41 -9 16 -13 36 -11 43 7 17 36 17 38 1 4 -35 3 -43 -5 -49 -5 -3 -1 -9 8 -12 9 -4 14 -3 11 2 -3 5 1 14 8 20 20 17 30 -3 14 -29 -7 -11 -17 -20 -22 -20 -6 0 -3 -6 6 -12 20 -16 33 -58 18 -58 -6 0 -8 -4 -5 -10 3 -5 0 -10 -8 -10 -8 0 -17 -10 -21 -22 -8 -31 -7 -48 2 -47 20 3 32 -2 32 -16 0 -8 6 -14 13 -12 7 1 12 -7 11 -19 0 -14 4 -20 13 -17 21 8 15 30 -17 66 -27 31 -28 37 -17 60 6 15 15 27 19 27 3 0 4 28 1 62 -4 55 -9 65 -46 104 -70 71 -71 74 -53 87 14 11 14 15 0 42 -20 39 -37 49 -47 27 -4 -9 -5 7 -3 35 8 80 -20 227 -55 299 -52 104 -105 137 -170 104z m267 -472 c7 -22 -16 -48 -43 -48 -9 0 -8 9 5 35 20 40 28 43 38 13z"/> <path d="M2432 3663 c4 -38 26 -41 24 -3 0 18 -6 30 -14 30 -9 0 -12 -10 -10 -27z"/> <path d="M2256 3423 c4 -43 3 -75 -1 -70 -5 4 -17 0 -27 -10 -17 -15 -18 -15 -18 2 0 28 -10 12 -26 -42 l-14 -48 37 43 c42 49 66 54 176 39 38 -6 57 -5 57 2 0 6 -7 7 -17 4 -12 -5 -14 -3 -8 8 8 12 6 12 -8 0 -9 -7 -17 -9 -17 -4 0 5 -19 10 -42 11 -75 3 -78 6 -78 72 0 32 -5 62 -10 65 -8 5 -9 -18 -4 -72z"/> <path d="M2247 3284 c-33 -18 -40 -33 -61 -134 -19 -90 -76 -419 -76 -441 0 -30 25 -49 73 -55 l47 -7 0 37 c0 33 2 36 28 36 16 0 37 8 48 18 10 10 27 21 37 25 9 3 17 11 17 17 0 5 10 10 23 11 20 1 19 2 -5 11 -16 5 -28 14 -28 19 0 5 -5 9 -11 9 -6 0 -9 -6 -6 -13 7 -19 -14 -43 -40 -44 -12 -1 -24 5 -27 13 -3 8 -1 14 4 14 6 0 10 7 10 15 0 9 11 20 25 25 37 14 30 21 -12 14 -35 -5 -38 -4 -39 20 -2 27 2 29 51 26 37 -2 144 -30 150 -39 6 -11 -17 -91 -26 -91 -12 0 -11 7 2 31 5 11 7 30 3 42 -6 18 -9 14 -20 -28 -17 -64 -17 -65 4 -59 14 5 15 4 2 -5 -8 -6 -22 -8 -31 -5 -9 2 -23 -1 -31 -9 -7 -7 -18 -12 -25 -10 -9 3 -83 -75 -83 -89 0 -3 18 -6 40 -6 22 -1 49 -4 60 -7 34 -11 92 30 67 48 -8 6 -8 7 3 4 22 -5 40 38 40 97 1 28 7 78 15 111 17 67 38 198 37 232 0 13 4 21 8 18 10 -6 20 20 20 55 0 44 -58 87 -107 81 -7 -1 -13 2 -13 6 0 5 -8 9 -17 10 -10 0 -43 3 -73 6 -40 4 -63 2 -83 -9z m33 -33 c0 -11 4 -22 9 -25 4 -3 6 6 3 19 -4 24 -2 25 39 25 62 -1 170 -26 180 -42 12 -18 23 -58 17 -64 -3 -2 -47 4 -99 15 -52 10 -123 22 -157 26 l-64 7 28 29 c32 34 44 36 44 10z m-28 -72 c2 -6 28 -12 58 -13 42 -2 56 -7 58 -19 2 -10 10 -17 18 -17 8 0 14 -4 14 -8 0 -18 -13 -20 -34 -7 -11 7 -37 15 -56 17 -19 1 -41 10 -48 18 -10 11 -11 11 -6 1 4 -9 3 -12 -3 -8 -13 8 -24 47 -13 47 5 0 10 -5 12 -11z m205 -37 c16 -9 29 -23 31 -30 3 -17 -26 -72 -38 -72 -15 0 -12 21 7 42 9 11 11 18 5 18 -7 0 -11 6 -9 12 1 7 -8 14 -20 16 -13 2 -23 10 -23 18 0 19 14 18 47 -4z m-237 -51 c0 -10 -8 -21 -19 -24 -16 -4 -17 -1 -8 24 12 30 27 30 27 0z m70 19 c0 -5 7 -7 15 -4 23 9 62 -4 69 -22 5 -14 2 -15 -21 -10 -16 4 -38 7 -50 7 -13 -1 -23 4 -23 10 0 6 -7 3 -16 -5 -17 -18 -34 -13 -34 9 0 12 9 16 53 24 4 0 7 -3 7 -9z m150 -14 c0 -7 -9 -25 -20 -39 -27 -34 -26 -37 15 -30 31 5 35 3 32 -13 -7 -44 -43 -59 -73 -30 -18 19 -32 82 -16 72 7 -4 20 -2 29 4 17 11 17 11 1 6 -13 -4 -18 0 -18 14 0 16 12 24 43 29 4 0 7 -5 7 -13z m-109 -48 c1 -13 1 -28 0 -35 -1 -6 4 -15 10 -19 8 -5 9 -3 4 7 -5 8 -4 11 1 6 5 -5 9 -14 9 -20 0 -21 50 -38 79 -27 25 9 26 8 16 -10 -6 -11 -17 -20 -25 -20 -8 0 -15 -7 -15 -15 0 -17 -18 -19 -39 -6 -8 6 -9 11 -3 15 7 4 2 15 -11 29 -20 20 -24 21 -51 8 -16 -7 -31 -22 -33 -32 -5 -19 -12 -20 -90 -24 -28 -2 -31 0 -22 16 5 10 21 22 36 25 21 6 23 8 9 16 -9 5 -16 16 -16 25 0 14 2 14 19 -1 12 -11 30 -16 48 -14 l28 4 -30 8 c-16 5 -38 16 -47 24 -22 19 -24 44 -3 36 8 -4 15 -1 15 4 0 6 19 13 43 15 23 2 48 4 55 5 6 1 13 -8 13 -20z m19 -123 c0 -17 -2 -18 -25 -9 -13 5 -14 8 -3 15 19 13 28 11 28 -6z m-140 -51 c0 -8 14 -20 30 -26 17 -5 29 -15 28 -20 -2 -5 -7 -9 -11 -9 -4 1 -24 1 -44 1 -36 1 -37 2 -19 15 20 15 20 15 0 15 -10 0 -26 5 -34 10 -12 7 -10 11 10 19 35 14 40 13 40 -5z m30 1 c0 -8 -4 -15 -10 -15 -5 0 -10 7 -10 15 0 8 5 15 10 15 6 0 10 -7 10 -15z m8 -112 c2 -24 -1 -33 -12 -33 -8 0 -19 -7 -24 -16 -8 -14 -12 -10 -22 22 -7 21 -17 45 -23 52 -8 11 -2 13 34 10 42 -3 44 -5 47 -35z m-96 -25 c-6 -6 -15 -8 -19 -4 -4 4 -1 11 7 16 19 12 27 3 12 -12z m261 -15 c-7 -2 -13 -14 -13 -24 0 -11 -4 -17 -10 -14 -5 3 -10 15 -10 26 0 13 7 19 23 18 12 0 16 -3 10 -6z m-263 -18 c0 -9 6 -12 15 -9 8 4 12 11 8 17 -3 6 -1 7 6 3 7 -4 10 -13 8 -19 -5 -15 -40 -18 -49 -4 -11 17 -10 27 2 27 6 0 10 -7 10 -15z m222 -25 c4 -24 1 -30 -13 -30 -12 0 -16 5 -13 14 3 7 -2 16 -11 20 -11 4 -19 -2 -25 -20 -6 -14 -14 -23 -20 -19 -5 3 -6 15 -1 28 7 19 22 27 72 36 4 0 9 -12 11 -29z"/> <path d="M2230 3044 c0 -5 7 -19 15 -30 8 -10 15 -14 15 -8 0 5 -7 19 -15 30 -8 10 -15 14 -15 8z"/> <path d="M1876 3201 c-4 -6 -2 -11 3 -11 6 0 11 -5 11 -11 0 -6 -9 -8 -20 -4 -14 5 -20 2 -20 -9 0 -9 4 -16 8 -16 5 0 9 -6 9 -12 0 -7 4 -25 8 -40 6 -23 4 -28 -10 -28 -9 0 -25 10 -36 23 -15 18 -20 19 -28 8 -7 -11 -10 -11 -15 0 -3 8 -4 4 -2 -8 2 -13 1 -23 -3 -23 -4 0 -12 -10 -18 -22 -7 -18 -5 -27 9 -41 17 -16 19 -16 25 -1 4 10 0 20 -10 26 -15 8 -15 11 3 30 24 26 25 25 38 -34 9 -45 8 -47 -9 -37 -15 7 -21 6 -25 -6 -4 -10 -13 -13 -25 -10 -11 4 -19 2 -19 -3 0 -6 -10 -8 -22 -4 l-22 5 22 -30 c12 -17 19 -33 16 -35 -2 -3 6 -5 18 -4 13 0 24 7 24 14 1 6 2 19 3 29 1 14 3 14 22 -3 21 -19 22 -19 15 2 -5 15 -2 24 9 28 12 4 14 12 10 27 -6 17 -4 21 9 16 8 -3 18 -2 22 4 3 6 12 8 20 5 7 -3 20 5 29 17 8 12 15 17 15 12 0 -5 7 1 16 13 11 16 12 27 5 39 -7 11 -11 13 -11 5 0 -13 -29 -48 -33 -41 -1 2 -10 18 -19 36 -19 34 -26 70 -8 43 9 -13 10 -13 11 0 0 8 5 4 10 -10 7 -21 8 -19 4 10 -6 39 -29 69 -39 51z m26 -153 c-9 -9 -15 -9 -24 0 -9 9 -7 12 12 12 19 0 21 -3 12 -12z"/> <path d="M1820 3174 c0 -5 7 -19 15 -30 8 -10 15 -14 15 -8 0 5 -7 19 -15 30 -8 10 -15 14 -15 8z"/> <path d="M2611 3139 c-1 -23 -31 -33 -32 -11 -2 30 -17 -47 -22 -117 -4 -42 -3 -57 2 -41 7 18 9 20 10 7 1 -13 7 -17 24 -15 22 3 22 24 0 22 -18 -2 -16 13 2 20 8 3 15 1 15 -4 0 -6 5 -10 10 -10 19 0 10 19 -12 26 -22 6 -38 21 -38 36 0 4 16 24 35 44 34 35 45 51 26 40 -5 -4 -12 0 -14 6 -4 8 -6 7 -6 -3z"/> <path d="M1988 3009 c-22 -12 -24 -36 -3 -36 8 0 15 9 15 19 0 10 5 18 11 18 20 0 49 -21 49 -36 0 -8 -5 -12 -10 -9 -14 8 -50 -4 -50 -17 0 -6 9 -8 20 -5 11 3 23 0 27 -5 3 -6 2 -8 -3 -5 -6 3 -16 2 -23 -2 -9 -6 -8 -10 6 -13 27 -7 49 11 56 48 5 27 3 33 -16 37 -12 3 -31 8 -42 11 -11 3 -28 1 -37 -5z"/> <path d="M1927 2979 c-25 -14 -21 -29 8 -29 15 0 25 6 25 14 0 21 -12 26 -33 15z"/> <path d="M1683 2938 c-12 -6 -21 -18 -21 -27 1 -24 -20 -71 -32 -71 -5 0 -10 -7 -10 -15 0 -8 -5 -15 -12 -15 -6 0 -8 -3 -5 -7 4 -3 17 3 28 16 14 15 24 19 33 12 17 -14 38 2 30 24 -5 12 -4 16 3 12 6 -4 14 0 17 9 3 8 2 12 -4 9 -6 -3 -10 5 -10 19 0 13 5 26 12 28 7 3 8 7 3 10 -6 3 -20 1 -32 -4z"/> <path d="M1924 2934 c-19 -8 -5 -38 22 -51 19 -9 24 -8 24 2 0 17 -25 37 -36 27 -4 -4 -2 1 5 11 13 17 8 20 -15 11z"/> <path d="M2535 2887 c-3 -29 -13 -87 -21 -131 -19 -107 -19 -138 3 -134 14 3 17 15 16 74 -1 66 1 74 28 103 27 31 31 51 8 51 -6 0 -7 -4 -4 -10 3 -5 2 -10 -4 -10 -5 0 -12 4 -15 9 -8 13 4 42 15 35 5 -3 6 2 3 10 -3 9 -1 16 5 16 17 0 13 14 -8 27 -18 11 -20 8 -26 -40z"/> <path d="M2061 2903 c-9 -16 -13 -16 -31 -5 -12 8 -19 9 -16 3 4 -5 2 -12 -4 -16 -5 -3 -10 -11 -10 -16 0 -6 4 -8 9 -5 5 4 12 0 14 -6 4 -10 6 -10 6 0 1 7 6 10 11 7 12 -7 -29 -84 -62 -120 -10 -11 -21 -30 -24 -42 -3 -12 -11 -20 -19 -17 -7 3 -15 -6 -19 -23 -7 -32 -33 -69 -42 -61 -9 10 6 49 17 43 5 -4 9 -2 9 4 0 19 -17 20 -33 0 -15 -17 -15 -24 -3 -58 9 -28 10 -44 3 -57 -9 -17 -9 -17 6 -5 9 7 17 19 17 25 0 13 70 120 82 124 4 2 8 10 8 18 0 8 4 14 10 14 5 0 7 -15 4 -32 -3 -18 -8 -61 -11 -96 -5 -57 -4 -65 18 -88 17 -19 32 -24 51 -22 23 4 28 1 29 -16 0 -12 3 -16 5 -9 3 7 12 9 20 6 8 -3 14 0 14 5 0 20 -29 39 -69 46 -30 4 -41 11 -41 24 0 20 58 362 65 380 7 18 -2 15 -14 -5z"/> <path d="M1580 2881 c-5 -11 -10 -31 -10 -45 0 -14 -4 -26 -10 -26 -5 0 -10 -9 -10 -21 0 -16 4 -19 22 -14 17 6 20 4 14 -10 -3 -10 -2 -23 4 -30 8 -9 8 -15 0 -20 -6 -3 -7 -11 -4 -17 4 -7 2 -8 -4 -4 -6 3 -16 -3 -23 -15 -10 -19 -9 -25 7 -36 9 -7 20 -10 23 -7 3 3 0 9 -8 13 -9 6 -6 13 13 28 18 14 23 26 19 42 -3 12 -1 21 6 21 6 0 11 -9 11 -21 0 -16 5 -20 18 -15 11 4 9 0 -5 -10 -30 -22 -29 -32 2 -26 34 6 39 17 21 52 -8 17 -10 30 -5 30 13 0 7 50 -9 62 -7 6 -12 7 -11 2 6 -32 -3 -54 -21 -54 -11 0 -20 6 -20 14 0 8 -5 16 -12 18 -8 3 -7 11 5 28 9 14 17 31 16 40 0 10 -2 11 -6 3 -9 -25 -22 -13 -13 12 11 30 5 33 -10 6z"/> <path d="M1874 2894 c-7 -3 -10 -13 -7 -24 6 -22 33 -35 33 -16 0 8 3 21 6 30 6 16 -8 20 -32 10z"/> <path d="M2587 2880 c-6 -24 8 -36 17 -14 8 22 7 34 -3 34 -5 0 -11 -9 -14 -20z"/> <path d="M2680 2855 c7 -8 10 -24 7 -35 -3 -11 -1 -23 4 -26 5 -3 9 13 9 35 0 31 -4 41 -16 41 -13 0 -14 -3 -4 -15z"/> <path d="M1740 2841 c-12 -24 -13 -34 -1 -26 5 3 11 -3 14 -12 2 -10 4 -1 3 19 -1 44 -2 45 -16 19z"/> <path d="M1814 2845 c24 -60 25 -75 6 -75 -25 0 -37 -20 -13 -21 10 -1 21 -1 24 -1 3 1 6 -6 6 -14 0 -9 -6 -13 -15 -9 -11 4 -13 -1 -9 -23 5 -24 1 -33 -24 -51 -36 -27 -43 -23 -29 14 12 32 9 38 -14 29 -11 -4 -15 -13 -11 -25 7 -22 -1 -24 -20 -5 -12 11 -11 17 1 35 9 12 11 21 5 21 -15 0 -14 16 2 32 18 20 19 38 2 38 -8 0 -15 -7 -15 -16 0 -9 -5 -12 -12 -8 -7 5 -9 2 -5 -9 4 -10 0 -17 -11 -20 -16 -4 -15 -5 1 -6 19 -1 25 -45 7 -56 -15 -9 41 -65 65 -65 28 0 49 16 40 30 -4 7 -2 11 6 9 30 -4 39 2 39 26 0 14 9 34 20 45 20 20 28 56 10 45 -6 -3 -7 1 -4 9 8 20 33 21 40 2 7 -17 50 -18 65 0 6 8 15 11 20 8 5 -3 9 -1 9 5 0 5 -4 13 -10 16 -5 3 -10 11 -10 16 0 6 5 7 10 4 6 -3 10 0 10 8 0 21 -40 29 -58 11 -13 -14 -13 -15 4 -12 13 2 19 -3 19 -16 0 -39 -56 -26 -102 24 -14 15 -22 20 -23 11 0 -11 -3 -11 -17 0 -15 12 -16 12 -9 -6z m42 -29 c0 -13 -4 -22 -8 -19 -11 6 -10 43 1 43 5 0 8 -11 7 -24z"/> <path d="M2716 2831 c-6 -10 -2 -20 13 -33 25 -20 48 -15 28 6 -6 8 -15 12 -19 10 -3 -2 -8 4 -10 13 -3 15 -5 15 -12 4z"/> <path d="M2800 2793 c0 -7 -7 -13 -15 -13 -9 0 -12 -6 -8 -16 5 -13 7 -13 14 -2 6 9 10 3 15 -20 6 -29 8 -31 20 -15 18 24 17 34 -1 27 -16 -6 -17 19 -3 42 4 6 1 11 -7 11 -8 0 -15 -6 -15 -14z"/> <path d="M2602 2780 c-16 -26 -15 -31 3 -24 8 4 15 1 15 -5 0 -21 18 -11 22 13 4 21 -7 36 -25 36 -1 0 -8 -9 -15 -20z"/> <path d="M2567 2770 c-21 -25 -22 -31 -3 -24 8 3 16 14 19 25 6 24 5 24 -16 -1z"/> <path d="M2687 2774 c-3 -4 1 -13 9 -21 8 -9 13 -22 10 -29 -6 -16 10 -19 19 -3 5 6 12 4 21 -8 10 -13 14 -14 12 -3 -4 22 -21 38 -35 33 -7 -3 -13 2 -13 10 0 18 -14 30 -23 21z"/> <path d="M1751 2755 c1 -22 16 -48 22 -38 3 5 0 19 -8 29 -8 10 -14 15 -14 9z"/> <path d="M1533 2731 c-4 -3 -9 -10 -9 -16 -1 -5 -5 -21 -9 -34 -5 -17 -4 -22 5 -16 8 5 11 3 8 -6 -3 -8 -12 -13 -20 -11 -9 1 -19 -5 -22 -14 -5 -14 -4 -15 8 -5 11 9 15 7 18 -13 3 -14 1 -29 -5 -35 -5 -5 -7 -15 -4 -23 3 -8 10 0 18 20 8 17 17 32 22 32 5 0 6 18 2 39 -5 28 -2 46 9 64 14 20 14 24 1 24 -8 0 -18 -3 -22 -6z"/> <path d="M2660 2720 c-6 -10 -17 -17 -24 -14 -8 3 -16 1 -19 -3 -3 -5 7 -10 23 -11 26 -2 50 18 50 42 0 14 -20 4 -30 -14z"/> <path d="M2837 2707 c-3 -8 -1 -20 4 -28 8 -12 10 -12 18 0 10 15 4 41 -9 41 -4 0 -10 -6 -13 -13z"/> <path d="M2688 2680 c-1 -5 -20 -12 -41 -14 -28 -4 -36 -2 -31 7 5 8 2 8 -7 -1 -12 -11 -12 -14 1 -22 8 -6 21 -8 28 -5 6 2 12 1 12 -3 0 -4 9 -8 20 -9 11 -1 20 4 20 12 0 9 6 12 15 9 8 -4 13 -10 10 -14 -2 -4 13 -7 35 -6 l40 1 -40 18 c-22 11 -40 23 -40 28 0 12 -17 11 -22 -1z"/> <path d="M2085 2658 c-8 -23 -23 -123 -20 -127 9 -8 26 13 21 26 -3 8 -2 12 3 9 5 -3 9 19 9 49 0 53 -4 68 -13 43z"/> <path d="M2438 2635 c-4 -31 -1 -35 19 -35 19 0 22 5 21 28 -2 25 -14 41 -29 42 -4 0 -9 -16 -11 -35z"/> <path d="M2851 2642 c-24 -34 -27 -52 -8 -52 9 0 12 -10 9 -30 -2 -17 -10 -30 -19 -30 -9 0 -11 -5 -6 -12 4 -7 9 -21 10 -32 2 -10 12 -31 23 -46 11 -15 22 -46 26 -69 6 -36 4 -41 -13 -41 -23 0 -69 45 -55 54 6 3 12 1 14 -6 5 -15 28 -1 28 18 0 12 -19 19 -42 15 -11 -1 -10 17 0 21 16 6 1 78 -16 78 -13 0 -12 3 3 20 22 24 13 39 -9 17 -9 -8 -21 -17 -27 -19 -17 -6 1 -33 21 -33 8 0 14 -6 12 -14 -1 -7 3 -20 10 -29 11 -13 10 -15 -4 -9 -10 3 -20 2 -23 -3 -4 -6 -15 -5 -28 2 -12 7 -25 12 -29 13 -14 0 -20 15 -6 15 9 0 18 9 21 20 3 11 1 18 -4 14 -5 -3 -9 0 -9 7 0 7 -11 2 -25 -11 -17 -16 -22 -27 -15 -34 14 -14 12 -26 -5 -26 -15 0 -40 -38 -31 -48 3 -3 6 0 6 6 0 7 7 12 15 12 8 0 15 -7 15 -15 0 -8 5 -15 11 -15 5 0 8 4 5 9 -10 16 5 41 25 41 10 0 19 -3 20 -7 1 -5 2 -23 3 -40 2 -36 20 -62 30 -45 3 6 2 13 -4 17 -15 9 -12 25 4 25 8 0 17 6 19 13 3 6 4 -3 3 -21 -3 -25 2 -35 18 -44 11 -7 25 -12 29 -13 4 0 11 -4 15 -10 4 -5 14 -10 22 -11 12 -1 15 8 13 35 -4 69 -10 96 -26 128 -18 35 -22 69 -8 77 10 6 8 33 -4 59 -4 11 -3 29 4 44 17 37 7 39 -18 5z"/> <path d="M1641 2638 c-1 -10 8 -27 19 -38 12 -12 18 -25 15 -30 -4 -6 7 -7 27 -4 27 6 31 4 21 -7 -7 -7 -13 -22 -12 -33 0 -12 3 -16 5 -10 3 7 15 10 27 7 13 -3 18 -1 11 4 -6 4 -14 21 -18 36 -9 36 -41 73 -51 58 -10 -17 -21 -13 -33 12 -8 17 -11 18 -11 5z"/> <path d="M1595 2622 c-27 -5 -63 -44 -47 -50 7 -2 9 -8 6 -14 -3 -5 3 -4 15 4 14 8 19 19 15 33 -5 20 -5 20 7 0 7 -11 18 -24 26 -28 17 -11 7 -27 -17 -27 -10 0 -21 -6 -23 -12 -4 -10 -6 -10 -6 0 -1 17 -31 15 -31 -3 0 -8 9 -20 20 -27 19 -12 19 -13 -11 -40 -19 -18 -25 -28 -15 -28 8 0 22 -7 31 -16 15 -15 18 -16 32 -1 14 14 15 22 5 55 -15 48 -15 62 -2 62 6 0 9 -5 8 -11 -2 -6 3 -14 10 -16 8 -3 10 1 6 11 -3 9 -1 16 5 16 5 0 9 13 8 30 -1 16 -5 30 -9 30 -4 0 -8 8 -10 18 -2 11 -10 16 -23 14z"/> <path d="M2169 2603 c-6 -15 -19 -49 -29 -76 -18 -46 -17 -87 2 -87 5 0 6 5 3 10 -3 6 -1 10 4 10 6 0 11 11 11 25 0 18 5 25 20 25 11 0 20 5 20 10 0 6 -5 10 -11 10 -6 0 -9 12 -7 27 3 23 8 28 42 31 46 4 102 -16 87 -31 -6 -6 -11 -19 -11 -28 0 -10 -6 -20 -12 -22 -8 -3 -5 -6 5 -6 10 -1 15 -5 12 -11 -3 -5 -2 -10 4 -10 7 0 7 -8 1 -25 -7 -19 -6 -23 5 -18 8 3 15 0 15 -7 0 -6 4 -9 9 -5 5 3 12 1 16 -5 3 -5 11 -10 16 -10 6 0 8 4 5 9 -4 5 3 7 14 4 11 -3 17 -9 14 -14 -9 -16 13 -10 27 7 18 22 -5 35 -57 32 l-40 -3 4 76 4 77 -73 12 c-41 7 -77 14 -82 17 -4 2 -12 -8 -18 -24z"/> <path d="M1384 2595 c25 -25 30 -26 38 -12 10 18 38 23 38 7 0 -5 -7 -10 -15 -10 -18 0 -20 -16 -2 -23 9 -4 9 -6 0 -6 -7 -1 -19 -14 -28 -31 -17 -32 -20 -55 -4 -27 6 9 15 15 21 11 6 -4 8 1 3 15 -4 14 -2 21 6 21 7 0 23 12 35 27 l21 27 -24 13 c-33 17 -53 16 -53 -2 0 -19 -10 -19 -40 1 -22 14 -21 13 4 -11z"/> <path d="M1823 2613 c-7 -2 -13 -13 -13 -24 0 -15 -5 -18 -24 -13 -13 3 -27 1 -31 -6 -11 -17 2 -25 19 -11 12 10 17 8 26 -10 10 -18 9 -24 -3 -30 -10 -6 -14 -19 -11 -39 3 -17 1 -30 -5 -30 -6 0 -11 -7 -11 -15 0 -8 7 -15 16 -15 10 0 14 -6 10 -15 -3 -9 0 -15 8 -15 14 0 26 21 26 46 0 8 -7 14 -15 14 -8 0 -15 5 -15 10 0 6 5 9 11 8 6 -2 14 3 17 11 3 8 0 11 -7 7 -7 -5 -11 1 -11 13 0 12 7 21 15 21 11 0 14 12 12 50 -1 27 -2 50 -2 49 0 0 -6 -3 -12 -6z"/> <path d="M2700 2612 c-14 -2 -29 -8 -35 -14 -7 -6 -2 -9 15 -6 21 2 26 -2 28 -24 4 -31 5 -32 33 -18 23 13 26 32 2 23 -11 -4 -14 -3 -9 5 12 19 -7 38 -34 34z"/> <path d="M2768 2612 c-10 -2 -18 -7 -18 -10 1 -14 47 -40 58 -33 18 11 -18 48 -40 43z"/> <path d="M2485 2588 c-4 -13 -35 -167 -35 -174 0 -3 9 0 20 6 11 6 20 17 20 25 0 7 6 15 13 18 9 3 9 7 0 19 -11 12 -9 18 7 33 11 10 20 24 20 32 0 7 4 13 10 13 5 0 7 -7 4 -15 -4 -8 -1 -15 4 -15 19 0 23 18 10 39 -11 19 -14 19 -30 4 -10 -9 -21 -13 -25 -10 -3 4 -1 7 5 7 7 0 12 7 12 15 0 18 -29 20 -35 3z"/> <path d="M2583 2572 c10 -4 18 -11 18 -15 -2 -21 0 -27 10 -27 8 0 8 4 1 13 -6 6 -10 17 -11 22 0 6 -8 11 -18 12 -17 3 -17 2 0 -5z"/> <path d="M2640 2565 l-25 -15 33 2 c18 1 32 8 32 15 0 16 -9 16 -40 -2z"/> <path d="M1377 2549 c12 -12 6 -49 -8 -49 -5 0 -9 -7 -9 -15 0 -8 -6 -15 -13 -15 -8 0 -22 -9 -32 -20 -10 -11 -23 -20 -28 -20 -5 0 -31 -17 -56 -37 -25 -21 -49 -37 -53 -36 -7 3 -19 -43 -23 -91 -2 -35 22 -126 34 -126 4 0 16 10 27 23 10 12 12 16 4 10 -20 -18 -30 -16 -30 5 0 10 -5 23 -10 28 -7 7 -8 19 -1 36 5 14 8 34 5 44 -5 22 -3 25 58 83 40 38 49 42 63 31 13 -11 16 -8 21 19 8 37 37 42 55 9 11 -21 11 -22 -4 -9 -15 11 -17 11 -17 -1 0 -15 47 -43 65 -39 6 1 4 -3 -2 -10 -10 -10 -16 -10 -25 -1 -7 7 -18 12 -25 12 -10 0 -10 -5 2 -24 15 -23 15 -25 -2 -29 -17 -4 -17 -4 0 -12 19 -8 71 20 62 34 -3 5 3 12 13 16 50 22 56 7 13 -36 -22 -21 -39 -29 -65 -29 -34 0 -36 -2 -32 -26 3 -15 -2 -32 -12 -42 -10 -10 -16 -25 -14 -35 2 -10 -2 -16 -8 -15 -6 2 -17 -15 -25 -37 -8 -22 -19 -41 -25 -43 -5 -2 -8 -8 -4 -13 3 -5 -2 -12 -10 -15 -9 -3 -16 -12 -16 -20 0 -8 6 -11 17 -7 11 4 14 3 9 -5 -4 -7 -13 -12 -21 -12 -7 0 -23 -21 -36 -47 -12 -27 -28 -51 -35 -55 -6 -4 -10 -25 -9 -49 1 -23 -4 -64 -11 -93 -17 -63 -15 -123 3 -130 17 -7 16 -34 -2 -70 -18 -35 -19 -53 -2 -59 9 -3 8 -8 -3 -22 -14 -17 -13 -18 2 -12 11 4 15 2 13 -6 -3 -7 -1 -19 5 -27 7 -12 12 -12 22 -2 7 7 8 12 2 12 -6 0 -16 18 -23 40 -10 35 -9 45 5 70 14 22 21 27 31 18 10 -8 13 -6 13 6 0 9 -7 16 -15 16 -8 0 -15 9 -15 20 0 22 -19 60 -35 72 -6 5 -5 8 2 8 14 0 29 45 24 72 -1 9 7 23 18 30 20 12 29 29 14 27 -20 -3 -26 2 -13 11 10 6 11 10 3 10 -7 0 -13 11 -13 25 0 14 5 25 11 25 14 0 39 26 39 41 0 6 10 20 22 30 11 11 19 22 15 25 -11 12 14 63 29 57 8 -3 14 -1 14 5 0 6 -5 12 -10 14 -6 2 -4 11 5 23 13 16 16 16 11 3 -3 -12 -1 -15 9 -12 8 3 11 12 8 20 -3 8 2 21 12 28 16 11 16 14 1 28 -20 21 -21 38 -1 38 8 0 15 -5 15 -12 0 -9 3 -9 11 -1 8 8 8 17 0 31 -16 31 -13 37 8 17 19 -17 21 -16 39 15 11 17 23 30 28 28 5 -2 10 6 12 17 5 27 21 45 35 39 18 -6 41 48 24 58 -7 4 -17 1 -23 -8 -7 -8 -27 -16 -44 -17 -27 -2 -33 2 -36 20 -3 17 0 20 16 16 11 -3 20 -10 20 -15 0 -5 5 -6 11 -3 12 8 9 54 -4 72 -5 7 -13 10 -19 7 -5 -3 -4 -12 3 -20 14 -18 8 -27 -14 -18 -9 3 -14 14 -12 27 4 22 4 22 -11 2 -8 -11 -12 -25 -10 -32 3 -7 1 -13 -5 -13 -19 0 -27 44 -13 72 18 35 18 39 2 49 -19 12 -34 11 -21 -2z"/> <path d="M1481 2533 c-1 -15 -7 -23 -18 -23 -15 0 -15 -2 -4 -9 8 -5 20 -7 26 -5 17 7 29 -27 13 -38 -9 -6 -7 -8 7 -6 21 3 27 25 12 45 -5 7 -6 17 -2 23 3 5 0 10 -9 10 -8 0 -17 6 -19 13 -3 6 -6 2 -6 -10z"/> <path d="M1667 2543 c-4 -3 -1 -13 5 -20 10 -12 8 -14 -8 -11 -16 2 -19 -2 -16 -27 2 -29 2 -29 -13 -11 -13 17 -15 18 -15 3 0 -9 5 -17 11 -17 6 0 8 -7 5 -16 -4 -10 -2 -13 6 -8 7 5 9 0 6 -14 -5 -18 -2 -22 18 -22 13 0 24 5 24 11 0 5 -4 8 -9 4 -6 -3 -15 3 -20 13 -14 27 5 42 50 42 21 0 41 5 44 10 4 7 -2 9 -18 5 -22 -6 -27 -2 -38 29 -13 36 -20 42 -32 29z"/> <path d="M2666 2524 c-8 -22 -6 -23 24 -12 20 7 22 11 10 18 -21 14 -27 12 -34 -6z"/> <path d="M2587 2475 c-16 -21 -23 -35 -15 -35 16 1 51 47 46 60 -2 6 -16 -6 -31 -25z"/> <path d="M2199 2493 c0 -5 -2 -15 -4 -24 -2 -12 3 -15 16 -12 10 3 16 9 13 14 -3 5 1 9 8 9 9 0 9 3 -2 10 -18 12 -30 13 -31 3z"/> <path d="M2263 2414 c-2 -70 -7 -84 -31 -84 -31 0 -45 26 -39 73 3 23 3 33 0 23 -4 -15 -7 -16 -14 -5 -5 9 -6 -1 -2 -25 4 -24 2 -37 -3 -33 -12 7 -12 -33 -1 -50 5 -7 21 -13 38 -13 21 0 29 -5 30 -17 1 -45 38 78 38 130 1 74 -13 75 -16 1z"/> <path d="M2610 2439 c-7 -11 -9 -23 -6 -26 8 -9 36 17 36 33 0 21 -18 17 -30 -7z"/> <path d="M2107 2434 c-4 -4 -7 -18 -7 -31 0 -12 -5 -23 -11 -23 -5 0 -7 -5 -3 -11 3 -6 1 -14 -5 -18 -17 -11 -3 -40 19 -38 14 1 18 10 18 41 1 21 6 42 11 46 8 4 7 12 -2 24 -7 9 -16 14 -20 10z"/> <path d="M2518 2427 c11 -13 10 -20 -9 -41 -13 -15 -24 -33 -25 -41 -3 -18 27 -20 44 -3 9 9 12 9 12 0 0 -6 7 -9 16 -5 25 10 -5 23 -38 16 -37 -7 -36 5 2 18 17 6 30 15 30 21 0 5 4 7 8 4 12 -7 38 12 29 21 -5 4 -12 1 -16 -6 -6 -9 -11 -10 -15 -2 -4 6 -17 16 -29 23 -20 10 -21 10 -9 -5z"/> <path d="M2323 2410 c-13 -5 -23 -12 -23 -15 0 -4 4 -4 9 0 5 3 12 1 16 -5 10 -16 21 -11 21 10 0 11 0 20 -1 19 0 0 -10 -4 -22 -9z"/> <path d="M1746 2402 c-3 -6 -1 -14 5 -17 15 -10 25 3 12 16 -7 7 -13 7 -17 1z"/> <path d="M1605 2393 c-39 -10 -62 -43 -30 -43 8 0 15 6 15 13 0 6 6 3 12 -8 11 -19 47 -55 55 -55 1 0 3 12 3 28 0 18 -3 23 -9 14 -12 -19 -35 12 -28 38 3 11 4 19 4 19 -1 -1 -11 -4 -22 -6z"/> <path d="M1276 2374 c-4 -9 1 -14 14 -14 11 0 20 -4 20 -10 0 -5 -7 -7 -15 -4 -10 4 -15 0 -15 -14 0 -12 -5 -24 -12 -28 -7 -4 -8 -3 -4 4 9 16 -7 15 -22 0 -9 -9 -12 -9 -12 0 0 7 10 16 22 21 12 4 17 11 11 14 -6 4 -21 -2 -33 -13 -18 -16 -20 -23 -11 -34 9 -10 8 -15 -2 -19 -16 -6 -29 -57 -16 -57 5 0 9 5 9 10 0 21 36 -8 37 -30 3 -31 11 -36 26 -18 6 9 18 18 26 20 10 3 10 7 -3 18 -10 7 -16 9 -15 4 5 -26 -3 -26 -21 1 -27 41 -25 51 6 31 35 -23 53 -15 27 11 l-21 21 22 4 c28 6 56 -20 35 -33 -19 -11 -4 -23 16 -12 9 6 18 12 18 15 3 6 -22 30 -53 51 -13 9 -19 17 -13 17 7 0 17 8 22 19 8 15 6 20 -14 29 -18 9 -24 8 -29 -4z"/> <path d="M1711 2376 c-10 -11 -10 -16 -2 -16 7 0 -1 -11 -16 -25 -15 -13 -23 -25 -17 -25 6 0 22 10 36 23 18 15 24 28 19 40 -6 17 -8 17 -20 3z"/> <path d="M1790 2364 c15 -17 30 -18 30 -1 0 7 -9 13 -21 14 -17 2 -18 -1 -9 -13z"/> <path d="M2334 2359 c-3 -6 -1 -15 5 -20 6 -5 9 -6 6 -3 -3 4 0 13 6 21 8 9 8 13 1 13 -6 0 -14 -5 -18 -11z"/> <path d="M2682 2328 c-16 -16 -15 -28 3 -28 8 0 15 -9 15 -20 0 -11 5 -20 11 -20 6 0 9 7 5 15 -4 11 0 14 17 12 12 -2 17 -2 11 0 -6 2 -16 15 -22 28 -13 28 -22 31 -40 13z"/> <path d="M1565 2320 c-8 -13 46 -80 59 -73 6 4 5 8 -2 11 -7 2 -12 8 -12 14 0 18 -38 59 -45 48z"/> <path d="M2570 2308 c-14 -13 -28 -22 -33 -20 -5 1 -11 -7 -14 -18 -3 -11 -14 -20 -24 -20 -12 0 -19 -7 -19 -20 0 -23 18 -27 26 -5 4 8 12 15 18 15 27 0 67 26 63 40 -2 9 2 21 10 29 12 10 13 8 7 -13 -5 -20 -2 -26 10 -26 9 0 16 -4 16 -10 0 -5 7 -10 15 -10 17 0 18 4 6 28 -5 9 -12 25 -15 35 -7 24 -37 21 -66 -5z"/> <path d="M2771 2321 c-12 -8 -12 -12 -2 -25 7 -8 10 -20 6 -25 -3 -6 2 -25 11 -43 l18 -33 6 25 c4 14 2 29 -4 35 -6 6 -12 15 -13 20 -1 6 -5 19 -9 30 -7 17 -5 18 8 8 15 -13 32 -7 22 8 -7 11 -25 11 -43 0z"/> <path d="M1723 2313 c-7 -3 -13 -14 -13 -24 0 -11 -4 -18 -8 -15 -5 3 -9 -1 -9 -9 0 -19 0 -19 26 4 23 20 26 51 4 44z"/> <path d="M2340 2309 c0 -5 -4 -8 -9 -5 -5 3 -12 -1 -15 -10 -9 -25 -7 -33 12 -43 15 -8 17 -4 19 30 2 21 0 39 -2 39 -3 0 -5 -5 -5 -11z"/> <path d="M1526 2287 c4 -19 1 -34 -11 -47 -16 -17 -16 -20 6 -49 26 -36 34 -35 20 3 -6 14 -7 26 -2 26 7 0 31 43 31 55 0 3 -7 5 -15 5 -7 0 -19 8 -25 18 -8 14 -9 12 -4 -11z"/> <path d="M2134 2285 c-3 -14 -13 -25 -23 -25 -10 0 -12 -3 -5 -8 18 -12 25 -42 10 -42 -8 0 -16 5 -18 12 -3 9 -6 9 -12 0 -9 -15 17 -27 39 -18 11 4 14 13 9 31 -3 14 -2 25 4 25 5 0 10 11 10 25 0 14 -2 25 -4 25 -2 0 -6 -11 -10 -25z"/> <path d="M2840 2284 c0 -13 -3 -14 -15 -4 -8 7 -15 8 -15 2 0 -5 7 -15 16 -23 12 -10 17 -10 23 0 6 10 9 9 14 -2 3 -9 -2 -17 -14 -20 -13 -3 -19 -14 -19 -31 0 -14 -4 -26 -9 -26 -5 0 -17 -3 -27 -7 -12 -4 -15 -3 -10 5 4 7 3 12 -3 12 -6 0 -13 16 -17 35 -7 37 -18 45 -28 20 -3 -9 1 -18 9 -21 10 -4 12 -15 9 -34 -5 -22 -2 -29 15 -35 11 -3 25 -4 30 -1 5 4 12 0 14 -6 3 -8 6 -5 6 6 1 15 4 16 15 7 11 -9 11 -17 2 -36 -12 -27 -21 -31 -31 -15 -13 20 -25 9 -25 -22 1 -29 2 -31 12 -14 10 17 12 16 26 -15 9 -19 16 -28 18 -19 1 8 5 32 9 53 3 21 10 35 14 33 4 -3 8 1 8 9 0 8 -4 15 -9 15 -4 0 -8 14 -8 31 0 17 4 28 10 24 5 -3 7 -13 4 -23 -5 -14 -4 -14 4 -3 14 20 6 88 -12 107 -15 14 -16 14 -16 -2z"/> <path d="M1630 2280 c0 -5 7 -10 16 -10 11 0 14 -6 10 -17 -5 -15 -3 -14 9 2 14 18 14 20 -2 27 -26 10 -33 9 -33 -2z"/> <path d="M2038 2224 c3 -50 1 -70 -10 -78 -29 -23 -59 -78 -40 -75 4 1 14 1 22 -1 11 -1 9 -4 -5 -11 -20 -9 -20 -9 0 -6 11 1 24 12 30 24 6 11 16 27 22 34 15 18 20 85 7 82 -6 -1 -9 11 -6 28 2 16 8 29 13 29 5 0 9 5 9 11 0 6 -6 9 -12 6 -7 -2 -18 3 -24 11 -7 10 -9 -5 -6 -54z"/> <path d="M2190 2261 c0 -17 -4 -22 -16 -17 -8 3 -12 2 -9 -4 8 -12 42 -13 49 -1 3 4 -1 17 -9 27 -14 18 -14 18 -15 -5z"/> <path d="M2895 2257 c4 -36 4 -37 17 -37 9 0 9 3 1 11 -6 6 -9 17 -7 24 3 7 1 16 -4 19 -5 3 -8 -5 -7 -17z"/> <path d="M1456 2257 c-11 -8 -17 -19 -15 -24 2 -6 12 0 22 13 20 27 19 30 -7 11z"/> <path d="M1570 2245 c0 -8 5 -15 11 -15 6 0 17 -6 25 -14 8 -8 14 -19 14 -25 0 -6 7 -11 16 -11 16 0 12 12 -15 43 -25 30 -51 41 -51 22z"/> <path d="M2265 2251 c3 -5 -2 -16 -10 -25 -8 -8 -11 -17 -6 -20 5 -3 12 1 15 10 4 10 13 13 26 9 11 -4 20 -2 20 4 0 6 -7 11 -15 11 -8 0 -15 5 -15 10 0 6 -5 10 -11 10 -5 0 -8 -4 -4 -9z"/> <path d="M2671 2241 c-7 -5 -12 -11 -12 -15 3 -24 -2 -34 -19 -39 -11 -3 -20 -13 -20 -22 0 -13 4 -15 13 -8 27 22 47 22 70 0 23 -22 26 -57 5 -57 -6 0 -9 3 -5 6 3 4 -1 13 -9 21 -12 12 -20 13 -37 5 -21 -10 -21 -11 6 -11 33 -1 35 -14 5 -29 -21 -9 -20 -10 11 -9 29 2 36 -3 53 -35 24 -45 33 -48 32 -11 -2 39 -14 64 -28 56 -6 -3 -6 -1 2 8 17 18 15 49 -3 49 -8 0 -15 7 -15 15 0 8 -11 17 -25 21 -14 3 -22 11 -19 16 4 5 15 8 25 5 15 -4 17 -2 9 13 -13 25 -23 30 -39 21z"/> <path d="M2566 2219 c-18 -17 -18 -19 -2 -19 9 0 19 7 23 15 8 23 0 25 -21 4z"/> <path d="M1455 2213 c-20 -5 -54 -40 -55 -57 0 -5 9 -1 20 9 11 10 28 15 40 12 11 -3 17 -1 14 4 -3 6 0 16 6 24 13 15 10 16 -25 8z"/> <path d="M2173 2138 c-6 -47 -6 -87 -2 -92 18 -20 8 -34 -23 -34 -18 0 -44 -5 -58 -11 -24 -9 -24 -10 -3 -10 16 -1 21 -6 17 -16 -4 -8 -1 -15 5 -15 6 0 11 7 11 15 0 8 6 15 13 15 15 0 42 -39 42 -62 0 -10 5 -17 10 -15 6 1 10 10 9 20 -1 21 1 21 20 1 15 -14 16 -14 16 5 0 14 -6 21 -19 21 -23 0 -35 28 -20 46 6 7 7 18 4 25 -4 6 -7 51 -6 100 1 49 0 89 -2 89 -2 0 -9 -37 -14 -82z"/> <path d="M1665 2200 c-3 -5 3 -10 14 -10 12 0 21 5 21 10 0 6 -6 10 -14 10 -8 0 -18 -4 -21 -10z"/> <path d="M2310 2200 c0 -5 -9 -10 -19 -10 -11 0 -23 -9 -26 -20 -4 -11 -11 -18 -16 -14 -7 4 -8 -8 -3 -31 5 -26 3 -36 -4 -31 -6 3 -14 1 -18 -5 -3 -6 -1 -15 6 -19 9 -5 9 -13 2 -27 -9 -17 -7 -19 17 -17 44 3 54 -8 40 -40 -7 -15 -18 -25 -26 -22 -18 7 -16 -1 6 -23 18 -18 19 -18 32 5 7 13 10 27 6 30 -3 4 -2 15 3 25 7 12 7 20 0 24 -6 4 -7 11 -4 17 5 7 2 9 -8 5 -10 -3 -15 0 -14 10 0 9 -6 18 -14 21 -12 3 -12 2 -3 -8 6 -7 9 -19 6 -27 -4 -11 -9 -8 -17 9 -15 28 0 58 27 58 14 0 17 -5 12 -17 -4 -13 -3 -15 4 -8 7 7 8 22 1 45 -8 29 -7 37 10 52 22 21 25 28 10 28 -5 0 -10 -4 -10 -10z"/> <path d="M1490 2181 c0 -21 -23 -34 -36 -21 -5 5 -20 0 -33 -11 l-23 -19 22 0 c19 0 20 -2 10 -15 -7 -9 -21 -13 -30 -10 -10 3 -23 -2 -31 -12 -13 -16 -12 -17 3 -5 13 10 22 11 37 2 17 -9 21 -8 21 5 0 8 5 15 10 15 6 0 10 8 10 18 1 16 2 15 11 -2 8 -12 8 -25 2 -40 -13 -28 -6 -46 17 -46 25 0 35 36 18 63 -14 22 -13 61 1 52 5 -2 6 7 3 20 -5 30 -12 33 -12 6z"/> <path d="M2130 2190 c-8 -5 -23 -11 -32 -14 -12 -3 -15 -11 -11 -22 5 -15 8 -15 17 -2 6 8 16 13 22 11 6 -2 14 5 17 17 3 11 4 20 4 19 -1 0 -9 -4 -17 -9z"/> <path d="M1541 2150 c-21 -18 -20 -25 2 -21 5 1 6 -3 3 -8 -8 -13 45 -48 65 -44 14 4 14 7 -5 28 -15 17 -24 21 -33 13 -10 -8 -12 -4 -7 21 8 36 7 37 -25 11z"/> <path d="M1247 2153 c-11 -10 -8 -33 4 -33 5 0 8 4 5 9 -3 5 2 8 11 7 9 0 18 5 20 12 5 13 -28 17 -40 5z"/> <path d="M1626 2120 c12 -12 28 -20 35 -18 9 3 0 12 -21 22 l-35 18 21 -22z"/> <path d="M2589 2103 c-12 -32 -49 -74 -59 -68 -3 2 -24 -12 -45 -30 l-38 -34 33 9 c33 9 51 20 34 20 -5 0 9 10 31 21 49 26 79 56 64 64 -5 4 -7 15 -4 26 10 30 -4 22 -16 -8z"/> <path d="M2543 2079 c1 -10 6 -18 11 -16 16 5 18 24 2 30 -10 4 -14 0 -13 -14z"/> <path d="M1949 2067 c-7 -15 -17 -27 -23 -27 -18 0 -97 -92 -92 -107 3 -8 1 -11 -4 -8 -6 3 -10 1 -10 -4 0 -6 8 -11 18 -11 10 0 23 -5 30 -12 9 -9 12 -9 12 3 0 8 -5 20 -11 26 -13 13 28 60 49 55 9 -2 12 3 8 16 -5 14 -1 21 14 25 17 4 19 3 9 -9 -9 -11 -8 -14 5 -14 9 0 17 6 17 13 1 6 3 22 4 34 4 38 -12 50 -26 20z"/> <path d="M1368 2062 c-16 -9 -28 -20 -28 -24 0 -12 14 -10 28 4 9 9 12 9 12 -3 0 -9 -9 -24 -20 -34 -30 -27 -21 -64 26 -110 23 -22 44 -48 47 -57 4 -11 16 -18 29 -17 22 0 22 1 3 8 -11 5 -20 12 -21 17 0 5 -9 26 -19 46 -12 24 -22 34 -29 29 -7 -6 -16 -3 -24 5 -7 8 -10 14 -6 14 3 0 2 6 -3 13 -6 8 -6 19 1 33 16 30 92 27 117 -5 10 -12 23 -20 29 -16 5 3 10 0 10 -9 0 -8 13 -17 30 -21 17 -4 30 -12 30 -19 0 -13 39 -50 46 -43 5 4 -10 23 -63 84 -13 15 -23 20 -23 13 0 -8 -11 -3 -28 13 -15 15 -37 27 -48 27 -13 0 -26 10 -33 26 -8 18 -17 24 -27 20 -12 -4 -15 -2 -10 9 7 18 7 18 -26 -3z"/> <path d="M1520 2052 c0 -5 7 -13 16 -16 10 -4 14 -1 12 6 -5 15 -28 23 -28 10z"/> <path d="M1632 2052 c-6 -2 -12 -10 -12 -18 0 -15 6 -16 31 -6 13 5 14 10 5 18 -6 6 -17 9 -24 6z"/> <path d="M2587 2028 c-33 -41 -34 -58 -2 -58 14 0 24 3 23 8 -1 4 4 20 10 35 24 57 9 63 -31 15z"/> <path d="M2682 2048 c3 -7 13 -15 24 -17 16 -3 17 -1 5 13 -16 19 -34 21 -29 4z"/> <path d="M1590 2036 c0 -8 5 -18 10 -21 6 -3 10 1 10 9 0 8 -4 18 -10 21 -5 3 -10 -1 -10 -9z"/> <path d="M2640 2020 c0 -16 5 -30 10 -30 6 0 10 14 10 30 0 17 -4 30 -10 30 -5 0 -10 -13 -10 -30z"/> <path d="M1990 2026 c0 -23 16 -27 17 -5 1 10 -2 19 -8 19 -5 0 -9 -6 -9 -14z"/> <path d="M2788 2028 c-3 -7 -4 -23 -3 -34 1 -17 -4 -21 -24 -21 -14 0 -20 2 -13 4 6 3 12 9 12 15 0 6 -7 8 -15 4 -8 -3 -15 -2 -15 3 0 5 -9 11 -20 14 -25 6 -27 -18 -5 -50 14 -20 13 -23 -13 -45 -28 -24 -30 -39 -10 -90 14 -36 22 -35 42 5 8 17 16 26 16 19 0 -16 40 -12 59 6 11 11 11 15 -5 27 -11 8 -14 14 -6 15 6 0 12 10 12 21 0 18 2 19 15 9 13 -10 15 -9 15 9 0 11 -4 21 -9 21 -13 0 -51 -54 -51 -72 0 -8 -9 -14 -21 -15 -13 -1 -19 3 -16 11 3 7 1 19 -3 27 -13 20 18 49 52 49 15 0 28 5 28 10 0 6 -5 10 -11 10 -6 0 -9 6 -6 13 2 6 12 11 21 9 15 -3 15 0 4 17 -15 24 -24 26 -30 9z"/> <path d="M1503 2009 c7 -11 19 -18 28 -16 9 3 24 0 34 -5 14 -8 16 -7 13 8 -3 13 -11 18 -26 17 -12 -2 -22 1 -22 5 0 4 -9 8 -20 9 -17 2 -18 -1 -7 -18z"/> <path d="M2836 1993 c-4 -9 -3 -20 2 -25 4 -4 9 4 10 17 2 29 -3 32 -12 8z"/> <path d="M1313 1988 c4 -11 -1 -18 -14 -21 -11 -3 -19 -14 -19 -26 0 -12 -5 -21 -11 -21 -6 0 -8 -7 -5 -16 3 -8 2 -12 -4 -9 -14 9 -12 -9 2 -23 10 -10 10 -15 -2 -22 -13 -8 -13 -11 -1 -19 7 -5 10 -14 7 -20 -4 -6 0 -11 9 -11 12 0 15 5 10 18 -4 9 -8 27 -9 39 -3 18 2 21 30 20 30 -2 32 -4 27 -29 -5 -25 -3 -27 22 -22 22 4 26 2 22 -11 -4 -8 -2 -15 3 -15 6 0 10 -10 10 -23 0 -31 10 -40 28 -24 13 10 14 9 4 -10 -17 -32 -15 -38 6 -14 9 12 27 23 39 26 17 3 21 -1 20 -18 0 -12 -5 -25 -10 -28 -10 -7 13 -60 24 -53 5 3 6 -2 3 -10 -3 -9 1 -22 9 -31 12 -12 13 -22 6 -47 -13 -46 -12 -51 12 -45 13 3 19 1 16 -6 -5 -15 -60 -18 -68 -5 -4 7 -9 6 -13 -1 -4 -6 4 -13 19 -17 17 -4 25 -13 25 -29 0 -12 6 -28 13 -34 16 -13 28 -5 21 13 -3 7 2 19 11 26 8 7 15 21 15 30 0 29 11 50 22 44 6 -4 8 2 6 12 -2 11 -10 18 -16 16 -7 -1 -12 4 -12 12 0 7 -6 19 -14 26 -8 6 -12 18 -9 26 3 8 -1 14 -11 14 -9 0 -16 5 -16 10 0 6 4 10 9 10 5 0 4 11 -2 25 -7 14 -16 25 -20 25 -5 0 -6 9 -2 19 3 11 1 22 -5 26 -7 4 -8 11 -1 18 7 9 3 12 -14 12 -13 0 -21 -3 -18 -7 5 -9 -14 -10 -44 -2 -13 4 -20 10 -18 15 7 10 -35 60 -46 54 -4 -3 -5 3 -2 13 2 10 -3 24 -11 31 -11 9 -16 10 -16 2 0 -19 -17 -12 -23 9 -3 13 -1 18 6 13 6 -4 8 0 4 10 -3 10 -2 17 3 17 14 0 12 37 -2 46 -7 5 -9 2 -5 -8z"/> <path d="M1380 1980 c0 -5 11 -17 25 -28 13 -11 29 -30 34 -43 6 -16 18 -25 35 -27 16 -1 25 2 21 8 -4 6 -11 8 -16 5 -5 -4 -9 1 -9 9 0 8 6 16 13 19 6 2 2 3 -9 1 -17 -3 -21 1 -20 20 0 14 -2 25 -6 26 -4 1 -21 5 -38 10 -17 5 -30 5 -30 0z"/> <path d="M2530 1980 c-12 -7 -12 -12 -2 -22 14 -14 35 1 24 19 -5 8 -13 9 -22 3z"/> <path d="M2040 1965 c-17 -20 -6 -31 21 -19 18 8 19 11 6 22 -11 10 -17 9 -27 -3z"/> <path d="M1980 1951 c-14 -27 -13 -30 10 -28 21 1 29 17 9 17 -6 0 -9 7 -5 15 8 22 -1 19 -14 -4z"/> <path d="M2608 1956 c-10 -7 -18 -16 -18 -19 0 -12 28 4 34 19 6 17 6 17 -16 0z"/> <path d="M2540 1935 c-7 -8 -29 -15 -48 -15 -32 0 -35 -2 -21 -15 12 -13 21 -13 50 -4 42 15 61 28 53 40 -8 13 -20 11 -34 -6z"/> <path d="M1888 1928 c14 -14 16 -65 3 -70 -13 -5 -24 -48 -12 -48 6 0 13 11 17 25 3 14 9 23 13 21 5 -4 6 28 2 72 0 6 -9 12 -18 12 -13 0 -14 -3 -5 -12z"/> <path d="M1935 1921 c4 -14 2 -26 -5 -31 -8 -5 -7 -9 4 -13 19 -7 22 29 5 53 -8 12 -9 10 -4 -9z"/> <path d="M2132 1933 c-16 -3 -22 -9 -18 -20 4 -9 -1 -21 -11 -29 -16 -12 -16 -13 -1 -14 9 0 25 16 37 35 11 19 19 34 18 34 -1 -1 -12 -4 -25 -6z"/> <path d="M1522 1912 c4 -19 29 -23 35 -6 2 6 -6 14 -17 17 -16 4 -20 1 -18 -11z"/> <path d="M2034 1921 c4 -6 0 -23 -8 -36 -18 -27 -13 -33 10 -11 17 18 18 42 2 52 -7 4 -8 3 -4 -5z"/> <path d="M2654 1916 c-10 -8 -17 -17 -14 -19 3 -3 14 1 24 9 11 7 17 16 15 19 -3 3 -14 -2 -25 -9z"/> <path d="M2280 1902 c0 -5 9 -18 21 -31 12 -13 18 -29 15 -38 -6 -14 -8 -14 -21 3 -12 17 -14 17 -15 2 0 -9 4 -18 10 -20 5 -1 10 -18 12 -36 2 -24 11 -40 30 -54 15 -10 28 -15 28 -9 0 6 -4 11 -10 11 -5 0 -10 7 -10 15 0 9 -7 27 -16 40 -10 15 -12 25 -5 25 14 0 14 28 0 69 -10 27 -39 45 -39 23z"/> <path d="M2600 1895 c-7 -8 -16 -12 -21 -9 -5 3 -9 0 -9 -5 0 -6 -11 -11 -25 -11 -14 0 -25 -4 -25 -10 0 -9 39 -35 44 -28 1 2 15 20 30 41 27 36 32 53 6 22z"/> <path d="M2810 1899 c0 -5 4 -9 9 -9 25 0 34 -155 10 -174 -14 -11 -39 -51 -39 -61 0 -2 17 12 37 31 36 35 37 38 36 107 0 40 -5 73 -11 75 -5 1 -8 11 -5 20 3 12 -2 18 -16 19 -12 1 -21 -2 -21 -8z"/> <path d="M1807 1884 c2 -7 -5 -22 -16 -33 -25 -25 -25 -30 -4 -54 9 -9 13 -20 10 -24 -4 -4 -14 2 -21 13 -8 10 -16 17 -18 14 -2 -3 -11 -15 -21 -27 -18 -21 -18 -22 4 -33 18 -10 23 -9 31 3 5 9 15 14 24 10 8 -3 14 -2 13 3 -1 5 1 17 6 27 4 10 2 24 -6 34 -11 13 -11 17 -1 20 6 3 12 17 13 31 1 24 2 23 9 -8 5 -19 6 -39 3 -44 -4 -5 -1 -6 5 -2 7 4 12 18 12 32 0 13 5 24 10 24 7 0 6 5 -1 13 -16 17 -58 17 -52 1z"/> <path d="M1483 1872 c-28 -9 -18 -23 25 -39 32 -11 47 -1 16 11 -13 5 -14 9 -4 21 14 17 4 18 -37 7z"/> <path d="M1560 1867 c0 -18 24 -29 66 -32 20 -1 30 3 28 10 -3 6 -17 10 -33 7 -17 -2 -34 3 -44 13 -14 14 -17 14 -17 2z"/> <path d="M2216 1864 c-5 -12 -10 -13 -19 -5 -10 7 -17 6 -28 -7 -18 -22 -18 -41 3 -71 23 -33 32 -22 13 15 -19 36 -19 44 0 44 9 0 15 -9 15 -21 0 -18 3 -19 14 -9 8 6 13 17 10 25 -3 7 -1 16 5 20 13 8 14 25 2 25 -5 0 -12 -7 -15 -16z"/> <path d="M1966 1820 c-6 -14 -18 -30 -26 -37 -13 -11 -13 -12 0 -13 8 0 25 -3 38 -6 16 -5 22 -2 22 10 0 9 -7 16 -16 16 -9 0 -14 6 -11 13 2 6 12 12 23 12 10 0 20 8 22 17 5 28 -39 18 -52 -12z"/> <path d="M2080 1840 c-14 -4 -21 -8 -17 -9 4 -1 2 -11 -4 -23 -9 -19 -9 -21 2 -10 7 6 22 12 34 12 14 0 21 7 22 20 2 22 0 22 -37 10z"/> <path d="M2600 1841 c0 -6 -19 -14 -42 -18 -28 -6 -44 -15 -46 -26 -2 -10 3 -17 12 -17 9 0 16 5 16 11 0 7 12 9 34 5 37 -7 61 10 50 38 -7 17 -24 22 -24 7z"/> <path d="M2800 1841 c0 -5 -5 -22 -12 -38 -6 -15 -11 -31 -10 -35 1 -5 -3 -8 -9 -8 -7 0 -18 -8 -26 -17 -13 -17 -13 -17 -11 1 2 10 -2 21 -9 23 -8 3 -10 -6 -6 -27 3 -22 -1 -38 -14 -52 -18 -20 -17 -20 4 -14 21 7 29 2 58 -39 14 -20 14 -20 8 2 -3 12 0 36 5 53 9 23 8 33 -3 44 -12 12 -11 15 7 19 27 7 45 -3 27 -14 -11 -7 -11 -9 -1 -9 22 0 26 30 6 46 -18 14 -18 15 -1 10 13 -4 16 -2 10 7 -4 6 -6 22 -4 35 1 12 -2 22 -8 22 -6 0 -11 -4 -11 -9z"/> <path d="M1542 1791 c-7 -21 -12 -46 -12 -55 0 -19 26 -22 33 -3 3 7 6 4 6 -7 1 -15 4 -16 16 -6 21 17 19 30 -4 30 -25 0 -38 20 -14 20 17 1 16 2 -2 16 -20 16 -20 16 2 10 18 -6 20 -4 16 14 -9 32 -29 23 -41 -19z"/> <path d="M2736 1822 c-9 -15 4 -42 20 -42 18 0 18 11 1 35 -9 11 -16 14 -21 7z"/> <path d="M1233 1813 c-16 -6 -17 -50 -1 -55 7 -3 9 -11 3 -24 -14 -34 -12 -52 7 -57 10 -3 16 -1 13 3 -3 5 0 10 6 12 9 3 9 9 0 26 -9 16 -9 22 0 22 6 0 9 7 5 15 -3 8 -1 15 5 15 6 0 7 5 4 10 -5 8 -11 8 -20 0 -11 -9 -13 -6 -11 14 2 15 3 26 2 25 0 0 -7 -3 -13 -6z"/> <path d="M1307 1813 c-14 -13 -6 -23 19 -23 22 0 25 2 14 15 -14 16 -23 19 -33 8z"/> <path d="M1600 1802 c0 -5 7 -13 16 -16 10 -4 14 -1 12 6 -5 15 -28 23 -28 10z"/> <path d="M2253 1788 c-22 -29 -22 -48 3 -78 14 -16 23 -34 20 -39 -3 -5 0 -14 8 -20 11 -9 15 -4 21 25 3 20 3 40 -2 43 -17 12 -32 51 -27 66 7 18 -10 20 -23 3z"/> <path d="M2625 1779 c-9 -26 0 -35 18 -20 17 14 50 3 43 -14 -2 -6 0 -18 5 -26 6 -10 9 -5 9 18 0 23 -5 33 -20 38 -11 3 -20 11 -20 16 0 18 -29 9 -35 -12z"/> <path d="M1838 1765 c-4 -16 -1 -25 8 -25 14 0 23 19 16 38 -7 20 -19 14 -24 -13z"/> <path d="M1291 1777 c2 -1 15 -11 28 -22 l24 -20 -12 23 c-6 12 -19 22 -28 22 -9 0 -14 -1 -12 -3z"/> <path d="M2086 1765 c-7 -18 -33 -20 -39 -2 -2 6 -8 8 -13 4 -5 -5 -1 -13 9 -18 9 -6 17 -19 17 -30 0 -17 3 -18 20 -7 11 7 15 15 10 16 -7 3 -5 13 5 28 8 13 11 24 6 24 -5 0 -11 -7 -15 -15z"/> <path d="M2560 1761 c-34 -6 -80 -30 -80 -42 0 -9 59 2 66 12 3 5 13 9 23 9 10 0 24 7 31 15 7 8 9 14 4 14 -5 -1 -25 -5 -44 -8z"/> <path d="M1876 1745 c-3 -8 -12 -15 -20 -15 -20 0 -29 -30 -10 -37 8 -3 13 -12 10 -19 -3 -8 1 -14 9 -14 10 0 12 7 5 30 -7 25 -5 32 11 40 10 6 19 15 19 20 0 16 -17 12 -24 -5z"/> <path d="M1289 1741 c-13 -5 -13 -10 -2 -31 7 -14 13 -19 13 -11 0 10 3 11 14 2 10 -8 16 -9 21 -1 3 5 1 10 -5 10 -6 0 -9 4 -6 9 9 13 -17 29 -35 22z"/> <path d="M1350 1735 c-10 -12 -9 -15 5 -15 15 0 16 -2 4 -17 -12 -14 -12 -16 1 -11 16 5 27 58 12 58 -5 0 -15 -7 -22 -15z"/> <path d="M1700 1741 c0 -6 5 -13 10 -16 6 -4 8 -10 5 -14 -7 -12 -57 -1 -79 18 -18 15 -18 15 -5 -6 8 -13 19 -23 26 -23 7 0 13 -9 13 -20 0 -16 -7 -20 -31 -20 -28 0 -30 -2 -18 -17 12 -15 12 -16 -3 -10 -51 20 -53 20 -40 6 6 -7 12 -24 12 -37 0 -15 7 -26 19 -29 13 -3 18 -10 14 -21 -5 -11 -3 -13 6 -7 8 4 11 18 8 34 -3 14 -1 35 3 46 6 13 9 15 10 5 0 -12 4 -10 16 5 12 17 18 18 34 7 19 -11 21 -9 27 20 4 18 6 36 5 41 -1 4 3 7 9 7 6 0 9 -9 6 -19 -3 -12 1 -22 9 -25 25 -10 15 24 -16 54 -33 32 -40 36 -40 21z"/> <path d="M2130 1746 c0 -2 11 -6 25 -8 14 -3 25 -1 25 3 0 5 -11 9 -25 9 -14 0 -25 -2 -25 -4z"/> <path d="M2654 1729 c4 -19 1 -29 -10 -33 -10 -4 -14 -14 -11 -26 3 -11 1 -18 -4 -14 -5 3 -9 0 -9 -5 0 -6 7 -11 15 -11 8 0 15 5 15 10 0 6 7 10 16 10 14 0 14 3 4 15 -9 10 -9 15 -1 15 16 0 14 23 -5 46 -15 18 -15 18 -10 -7z"/> <path d="M1968 1733 c-20 -5 -31 -32 -19 -47 5 -6 10 -15 11 -21 3 -17 10 -19 10 -2 0 19 39 49 53 40 6 -3 7 -1 3 5 -4 7 -17 12 -29 12 -18 0 -19 2 -7 10 15 10 8 11 -22 3z"/> <path d="M2131 1703 c1 -17 3 -21 6 -10 2 9 11 17 19 17 8 0 12 5 9 10 -13 21 -35 10 -34 -17z"/> <path d="M2600 1714 c0 -17 -25 -24 -63 -18 l-32 6 24 -20 c27 -22 45 -19 78 12 27 25 29 33 8 33 -8 0 -15 -6 -15 -13z"/> <path d="M1580 1699 c0 -5 -4 -7 -10 -4 -5 3 -10 2 -10 -3 0 -17 39 -20 57 -5 10 8 13 12 6 9 -6 -4 -14 -2 -18 4 -8 13 -25 13 -25 -1z"/> <path d="M1387 1689 c-13 -8 -15 -14 -7 -24 8 -9 5 -14 -10 -18 -11 -3 -18 -2 -15 3 3 4 -2 10 -10 14 -8 3 -17 1 -20 -4 -4 -6 -1 -10 4 -10 6 0 11 -7 11 -16 0 -8 -4 -13 -9 -10 -5 4 -12 0 -14 -6 -4 -10 -8 -9 -16 2 -6 8 -11 11 -11 5 0 -14 13 -30 28 -32 6 -2 12 2 12 7 0 6 6 5 14 -2 10 -10 11 -16 3 -27 -6 -7 -12 -20 -13 -28 -2 -11 4 -9 21 7 13 13 23 25 22 29 -5 21 26 73 50 83 22 9 24 12 11 15 -10 3 -18 9 -18 14 0 12 -10 11 -33 -2z"/> <path d="M2166 1691 c-9 -15 3 -33 16 -25 6 4 14 0 19 -7 7 -12 9 -12 9 0 0 11 3 11 15 1 20 -16 9 -33 -16 -25 -18 6 -19 5 -8 -13 7 -12 23 -25 35 -31 20 -9 22 -7 20 12 -7 49 -18 84 -29 85 -7 0 -22 4 -33 7 -12 4 -25 2 -28 -4z"/> <path d="M2333 1685 c-16 -18 -16 -26 -1 -22 7 1 14 -8 16 -20 2 -13 9 -23 15 -23 16 -1 67 -83 67 -109 0 -22 14 -28 25 -11 3 6 11 10 18 10 8 0 8 -3 -1 -12 -7 -7 -12 -19 -12 -27 0 -11 6 -9 23 7 30 29 34 28 42 -9 5 -24 11 -29 28 -27 20 3 23 10 18 48 0 6 -8 10 -16 10 -9 0 -18 7 -21 15 -4 8 -10 15 -16 15 -5 0 -6 -4 -3 -10 3 -5 1 -10 -5 -10 -6 0 -13 6 -16 14 -3 8 -13 12 -25 9 -15 -4 -18 -2 -13 11 4 11 1 16 -10 16 -9 0 -22 16 -30 35 -8 19 -19 35 -24 35 -5 0 -9 12 -9 26 0 15 -7 30 -14 35 -18 11 -22 11 -36 -6z"/> <path d="M1275 1670 c-7 -12 2 -30 16 -30 12 0 12 27 0 35 -5 3 -12 1 -16 -5z"/> <path d="M1815 1650 c1 -17 -2 -33 -7 -36 -4 -3 -8 -10 -8 -16 0 -7 6 -6 15 2 16 13 20 1 15 -45 -2 -20 -2 -20 13 0 10 13 12 25 6 37 -12 23 -11 28 6 28 8 0 15 5 15 11 0 6 -7 9 -15 5 -10 -3 -17 3 -21 19 -9 35 -21 31 -19 -5z"/> <path d="M2050 1659 c0 -6 -7 -8 -16 -5 -14 5 -15 4 -4 -9 7 -8 26 -15 43 -15 29 0 30 0 12 20 -20 22 -35 26 -35 9z"/> <path d="M2110 1659 c0 -5 5 -7 11 -4 16 11 48 -24 42 -46 -4 -14 -9 -17 -18 -9 -21 17 -13 -13 10 -37 28 -29 50 -16 41 23 -6 22 -9 25 -17 13 -7 -10 -8 -6 -6 16 2 16 -2 35 -9 42 -15 16 -54 17 -54 2z"/> <path d="M1220 1652 c0 -5 6 -15 14 -22 19 -15 1 -61 -20 -53 -8 3 -14 -1 -14 -10 0 -10 8 -13 25 -9 42 8 70 -5 82 -39 7 -18 15 -30 19 -27 3 3 -4 27 -16 52 -14 33 -26 46 -38 44 -13 -2 -17 5 -17 32 0 25 -5 36 -17 38 -10 2 -18 -1 -18 -6z"/> <path d="M1932 1640 c13 -20 28 -27 28 -12 0 10 -22 32 -32 32 -5 0 -3 -9 4 -20z"/> <path d="M2583 1645 c-3 -9 -3 -19 1 -22 3 -3 0 -13 -7 -22 -11 -14 -10 -14 6 -2 18 14 22 9 18 -29 -1 -11 1 -11 9 3 6 9 8 22 5 27 -3 6 -1 10 4 10 6 0 11 5 11 11 0 6 -9 8 -22 4 -19 -6 -21 -5 -10 6 6 7 12 17 12 21 0 14 -20 8 -27 -7z"/> <path d="M2297 1635 c-24 -17 -18 -50 8 -50 15 0 21 -8 23 -30 2 -16 9 -34 15 -38 7 -5 0 -6 -16 -3 -26 6 -27 5 -15 -14 15 -23 22 -25 35 -7 18 23 3 117 -18 117 -6 0 -8 4 -5 8 11 18 -9 30 -27 17z"/> <path d="M2674 1628 c-15 -19 -16 -20 -1 -9 15 12 17 11 17 -5 0 -11 5 -26 11 -34 9 -12 10 -11 6 7 -5 21 15 39 37 34 5 -1 4 5 -4 13 -18 22 -44 20 -66 -6z"/> <path d="M1980 1626 c0 -6 9 -12 20 -13 11 -1 20 2 20 6 0 5 -9 11 -20 14 -12 3 -20 0 -20 -7z"/> <path d="M1430 1610 c0 -11 4 -20 9 -20 15 0 42 -31 36 -41 -10 -15 -25 -10 -25 7 0 11 -6 15 -20 11 -11 -3 -18 -1 -15 3 3 5 1 11 -5 15 -5 3 -10 1 -10 -4 0 -6 -13 -23 -30 -38 -35 -30 -37 -46 -12 -73 12 -13 25 -17 40 -13 24 6 30 22 10 24 -7 1 -22 2 -33 3 -11 0 -21 9 -23 20 -2 10 0 16 6 12 5 -3 21 4 36 15 35 27 57 20 28 -9 -25 -25 -24 -27 9 -9 50 26 68 44 66 65 -1 14 -6 21 -14 18 -8 -3 -13 2 -13 14 0 13 -7 20 -20 20 -13 0 -20 -7 -20 -20z"/> <path d="M1895 1590 c-16 -11 -25 -20 -20 -21 6 0 20 -2 33 -3 15 -2 22 3 22 15 0 9 6 20 13 22 8 4 7 6 -3 6 -8 1 -28 -8 -45 -19z"/> <path d="M2007 1602 c-20 -3 -27 -8 -25 -20 2 -9 10 -17 18 -18 33 -2 40 -4 40 -13 0 -14 52 -64 85 -81 20 -11 23 -16 12 -18 -8 -2 -18 -10 -21 -18 -3 -8 -1 -12 4 -9 13 8 52 -14 45 -25 -3 -4 -14 -6 -24 -3 -14 3 -21 -2 -26 -19 -4 -12 -12 -26 -18 -29 -13 -9 -18 -69 -5 -69 5 0 6 5 3 10 -3 6 -1 10 4 10 6 0 11 9 11 20 0 11 7 20 15 20 8 0 15 -8 15 -17 0 -15 2 -15 9 -4 5 8 16 11 25 8 9 -4 16 -2 16 3 0 6 -5 10 -12 10 -6 0 -8 3 -5 7 4 3 1 13 -6 22 -11 14 -10 14 5 2 16 -12 19 -10 28 14 13 33 13 38 0 30 -5 -3 -10 -3 -11 2 0 4 -2 25 -5 46 -4 30 -1 37 13 37 16 1 16 2 -2 12 -11 6 -26 20 -33 30 -16 22 -48 24 -59 3 -8 -13 -12 -12 -32 6 -12 12 -20 28 -17 36 3 8 2 12 -3 8 -5 -3 -11 -2 -13 2 -1 5 -16 7 -31 5z m129 -69 c-3 -8 2 -13 14 -13 25 0 26 -12 2 -26 -11 -7 -26 -8 -41 -2 -23 8 -23 9 -6 22 10 7 15 17 12 23 -3 5 1 10 9 10 8 0 13 -6 10 -14z"/> <path d="M2087 1604 c-8 -8 1 -24 14 -24 5 0 9 7 9 15 0 15 -12 20 -23 9z"/> <path d="M1766 1585 c-3 -9 0 -15 9 -15 8 0 15 7 15 15 0 8 -4 15 -9 15 -5 0 -11 -7 -15 -15z"/> <path d="M1941 1552 c-1 -26 25 -40 42 -23 9 9 8 14 -3 21 -8 5 -17 7 -21 4 -4 -2 -10 2 -12 8 -3 7 -6 3 -6 -10z"/> <path d="M2226 1555 c-3 -10 1 -15 12 -16 10 0 12 -3 5 -6 -7 -2 -13 -11 -13 -19 0 -8 -6 -17 -14 -20 -16 -6 -10 -34 6 -34 6 0 7 7 4 16 -5 12 -2 15 10 10 8 -3 23 -6 31 -6 13 0 13 -3 -2 -26 -16 -24 -16 -25 2 -16 22 12 28 52 8 52 -17 0 -26 25 -13 38 8 8 6 15 -5 26 -19 20 -23 20 -31 1z"/> <path d="M2635 1559 c-4 -6 -8 -29 -9 -51 -2 -22 -9 -44 -17 -49 -8 -5 -9 -9 -4 -9 12 1 41 22 43 33 1 4 2 24 2 45 0 27 3 33 10 22 5 -8 12 -11 15 -8 10 10 -4 28 -20 28 -8 0 -17 -5 -20 -11z"/> <path d="M1707 1540 c-3 -13 0 -20 9 -20 8 0 14 -4 14 -10 0 -5 -8 -10 -18 -10 -10 0 -19 -6 -19 -14 0 -15 14 -16 35 -3 16 11 15 45 -2 62 -12 12 -15 11 -19 -5z"/> <path d="M1213 1535 c-8 -9 -9 -16 -3 -20 6 -3 10 -14 10 -23 0 -9 4 -23 9 -30 11 -19 61 27 61 57 0 21 -1 21 -26 5 -24 -17 -25 -16 -22 1 4 23 -13 29 -29 10z"/> <path d="M1768 1526 c-6 -30 6 -55 15 -32 13 33 24 14 17 -29 -7 -49 -6 -47 -35 -63 -19 -11 -18 -11 8 -12 23 0 27 -3 22 -19 -6 -21 15 -34 40 -25 20 8 19 23 -5 59 -13 20 -16 33 -9 41 6 8 6 14 0 18 -5 3 -7 15 -4 26 3 11 10 17 16 13 6 -4 7 -1 2 6 -4 7 -18 11 -31 8 -20 -4 -23 -1 -19 14 4 11 2 19 -3 19 -5 0 -12 -11 -14 -24z m66 -157 c-8 -13 -24 -1 -24 18 0 13 3 13 15 3 8 -7 12 -16 9 -21z"/> <path d="M1891 1533 c7 -7 8 -17 4 -21 -4 -4 -10 -1 -12 6 -6 15 -36 16 -31 0 3 -7 16 -15 31 -19 24 -7 29 -3 26 17 0 4 5 10 11 14 7 5 2 9 -14 12 -21 4 -24 3 -15 -9z"/> <path d="M2574 1530 c0 -24 20 -21 24 3 2 9 -3 17 -10 17 -8 0 -14 -9 -14 -20z"/> <path d="M2023 1494 c16 -8 31 -13 35 -10 8 8 1 12 -33 20 l-30 6 28 -16z"/> <path d="M1654 1491 c3 -5 -6 -17 -19 -27 -16 -12 -25 -29 -25 -47 0 -15 -4 -26 -9 -23 -5 4 -12 -8 -16 -26 -4 -18 -14 -41 -23 -51 -12 -13 -13 -20 -4 -29 9 -9 12 -9 12 0 0 7 5 12 10 12 6 0 10 -19 10 -42 0 -23 3 -38 7 -35 3 4 13 1 21 -5 11 -10 17 -9 28 6 7 11 11 22 9 26 -3 5 2 10 10 14 8 3 15 10 15 15 0 5 -12 5 -30 -2 -16 -6 -25 -14 -19 -18 8 -4 8 -9 -1 -14 -18 -11 -33 10 -23 31 5 11 8 30 7 44 -4 34 5 72 15 66 4 -3 8 5 7 17 -1 13 8 31 23 43 24 21 25 54 1 54 -6 0 -9 -4 -6 -9z"/> <path d="M1943 1485 c-3 -9 -3 -19 1 -22 3 -4 6 -1 6 5 0 7 7 12 16 12 8 0 12 5 9 10 -9 15 -25 12 -32 -5z"/> <path d="M1450 1463 c0 -19 3 -24 9 -15 4 8 11 13 15 13 16 -2 16 0 2 14 -21 21 -26 19 -26 -12z"/> <path d="M1895 1471 c-18 -11 -34 -15 -41 -10 -7 6 -11 -1 -11 -21 0 -24 5 -30 21 -29 12 0 16 3 9 6 -10 3 -10 9 0 23 10 18 13 18 29 3 15 -14 16 -18 2 -38 -13 -20 -13 -23 1 -29 25 -9 27 -8 16 13 -12 21 -5 32 15 24 8 -3 14 0 14 6 0 7 -6 14 -14 17 -8 3 -11 15 -8 30 5 28 6 28 -33 5z"/> <path d="M2370 1480 c0 -7 -3 -11 -6 -7 -4 3 -13 -1 -21 -9 -9 -8 -12 -18 -9 -22 4 -3 11 0 16 8 5 8 12 11 16 7 4 -4 -2 -16 -14 -28 -13 -11 -19 -25 -16 -31 5 -7 2 -8 -6 -3 -8 5 -11 4 -6 -3 7 -11 46 -12 46 -1 0 4 9 9 20 12 11 3 20 10 20 17 0 7 -8 9 -20 5 -23 -7 -25 -2 -9 27 8 14 8 23 0 31 -8 8 -11 7 -11 -3z"/> <path d="M1273 1451 c9 -12 9 -13 0 -7 -7 4 -20 3 -29 -2 -13 -7 -7 -11 24 -16 22 -3 48 -3 56 0 9 3 16 1 16 -5 0 -6 -4 -11 -10 -11 -5 0 -10 -4 -10 -10 0 -17 25 -11 38 10 11 17 10 21 -5 27 -10 4 -21 11 -25 16 -3 6 -20 11 -36 11 -25 1 -28 -1 -19 -13z"/> <path d="M2055 1462 c-11 -7 -14 -62 -4 -62 5 0 16 20 37 63 4 9 -20 9 -33 -1z"/> <path d="M2300 1455 c0 -26 -29 -55 -48 -48 -10 4 -13 2 -8 -5 4 -7 3 -12 -2 -12 -6 0 -12 -6 -15 -14 -4 -9 0 -12 13 -9 10 3 21 0 24 -6 4 -6 0 -11 -11 -11 -13 -1 -10 -5 10 -16 17 -9 39 -13 53 -10 16 4 23 2 22 -5 -2 -6 3 -14 11 -17 10 -3 12 2 7 21 -4 19 -1 29 10 35 13 7 6 9 -22 7 -39 -2 -40 -1 -39 32 1 18 5 36 10 41 5 4 5 2 1 -5 -3 -6 -2 -14 4 -18 15 -9 12 17 -5 39 -14 19 -15 19 -15 1z"/> <path d="M2476 1438 c-4 -9 -5 -21 -2 -26 3 -5 -4 -24 -16 -42 -19 -32 -21 -33 -34 -16 -12 17 -14 18 -20 3 -3 -10 -12 -17 -20 -17 -8 0 -14 -4 -14 -10 0 -5 13 -7 30 -3 25 5 29 3 24 -11 -5 -12 0 -16 16 -16 17 0 21 4 17 20 -3 10 -2 20 2 22 3 2 17 23 29 47 13 24 19 41 14 37 -6 -3 -12 2 -15 11 -4 17 -4 17 -11 1z"/> <path d="M1430 1428 c0 -6 -9 -8 -20 -5 -17 4 -22 0 -27 -23 -5 -27 -8 -28 -49 -25 -40 3 -42 2 -32 -15 7 -10 15 -17 20 -14 7 5 48 -31 48 -42 0 -3 -10 -2 -22 1 -18 5 -20 4 -8 -4 12 -8 8 -11 -17 -11 -18 0 -33 4 -33 8 0 5 -7 9 -15 9 -13 0 -13 -3 1 -18 11 -12 14 -25 9 -36 -5 -10 -7 -22 -6 -26 1 -5 -3 -6 -8 -2 -6 3 -15 -4 -21 -15 -6 -11 -15 -18 -21 -14 -6 3 -7 -4 -4 -18 4 -16 1 -29 -9 -37 -9 -8 -16 -11 -16 -7 0 6 -39 -25 -74 -60 -12 -11 -35 -31 -52 -42 -24 -17 -35 -34 -44 -71 -6 -28 -9 -55 -5 -61 10 -17 -4 -48 -26 -55 -17 -6 -17 -8 -4 -21 8 -8 19 -23 24 -32 12 -21 19 -15 23 23 3 32 15 49 38 57 11 3 10 7 -8 17 -21 11 -29 40 -15 55 4 4 8 13 9 19 0 7 2 20 2 31 2 13 8 17 22 13 14 -3 27 4 44 24 14 16 29 29 35 29 5 0 13 5 17 12 5 8 2 9 -9 5 -9 -3 -19 -2 -22 3 -6 9 16 14 53 13 6 -1 12 3 12 8 0 5 7 9 15 9 18 0 19 -12 4 -27 -9 -9 -8 -20 3 -44 9 -18 18 -27 22 -20 4 6 4 16 1 21 -3 6 0 10 8 10 18 0 30 -27 17 -35 -6 -4 -10 -16 -10 -29 0 -25 -39 -49 -59 -36 -10 6 -10 13 -1 31 11 23 11 23 -5 4 -17 -21 -13 -64 8 -78 9 -5 7 -11 -5 -21 -10 -7 -18 -19 -18 -27 0 -15 -42 -59 -56 -59 -4 0 -3 5 4 12 18 18 15 47 -5 43 -11 -1 -17 -10 -16 -21 1 -10 -5 -27 -12 -37 -15 -22 -10 -48 9 -41 9 3 12 -7 10 -38 -1 -24 0 -35 3 -26 3 14 9 15 28 8 14 -5 27 -6 30 0 3 5 -5 10 -17 12 -19 2 -23 9 -23 38 0 30 5 38 33 52 38 19 56 33 28 22 -13 -5 -17 -3 -14 6 2 7 14 17 27 21 15 6 20 5 15 -3 -5 -7 1 -9 20 -6 17 4 26 1 27 -8 3 -28 4 -32 12 -40 4 -4 7 -18 7 -31 0 -17 4 -22 13 -17 8 5 8 2 -2 -9 -9 -11 -10 -17 -2 -17 6 0 14 0 18 0 4 0 8 6 9 13 5 33 16 56 30 61 8 3 12 1 9 -4 -3 -6 1 -20 9 -32 l16 -22 0 26 c0 14 7 31 15 38 18 15 19 36 3 46 -7 5 -9 2 -6 -8 4 -8 2 -21 -3 -29 -7 -11 -9 -11 -9 0 0 7 -6 11 -14 8 -8 -3 -17 -1 -20 6 -3 7 -8 3 -11 -10 -14 -46 -62 -34 -51 13 4 15 10 24 14 18 4 -5 22 -9 40 -8 48 2 49 3 22 19 -16 9 -42 12 -73 8 -46 -4 -77 7 -77 28 0 14 26 10 40 -6 7 -8 16 -12 21 -9 14 8 10 24 -6 24 -20 0 -19 36 1 44 8 3 12 2 9 -4 -3 -6 4 -10 15 -10 17 0 21 -4 16 -17 -6 -14 -3 -14 16 3 27 23 38 36 38 48 0 5 -8 1 -19 -8 -17 -15 -19 -15 -25 -1 -3 9 -2 13 4 10 6 -3 10 5 10 19 0 24 12 32 42 27 4 0 18 3 32 9 18 7 26 5 30 -6 8 -22 28 -17 21 6 -5 15 -3 18 9 14 13 -5 15 0 9 27 l-6 34 26 -18 c15 -10 27 -13 27 -7 0 6 4 9 9 6 5 -3 11 1 15 9 6 17 -5 20 -21 4 -7 -7 -13 -7 -17 -1 -3 6 1 18 10 27 12 12 19 13 30 4 11 -9 14 -7 14 15 0 26 -22 36 -35 15 -4 -6 -13 -8 -20 -5 -8 3 -18 -6 -24 -22 -5 -15 -16 -34 -23 -42 -15 -17 -69 -45 -82 -41 -4 1 -14 -3 -21 -9 -10 -9 -16 -6 -24 9 -6 11 -8 27 -5 35 3 9 2 16 -3 16 -18 0 -22 -12 -12 -37 6 -17 6 -30 -1 -38 -6 -7 -9 -18 -8 -25 2 -7 -3 -15 -9 -17 -9 -3 -13 6 -13 30 0 40 -28 71 -55 61 -15 -6 -16 -4 -7 12 6 11 10 27 9 36 -1 9 14 27 33 40 25 17 35 31 36 53 1 17 3 31 4 33 1 1 3 8 4 15 1 6 9 11 19 9 11 -2 15 2 11 11 -3 8 2 20 11 27 8 7 15 20 15 29 1 28 40 66 71 67 65 3 68 4 63 18 -3 9 -15 13 -30 10 -13 -2 -24 -1 -24 4 0 4 -9 8 -20 9 -11 1 -20 -3 -20 -9z m-120 -240 c0 -10 -20 -21 -47 -24 -25 -2 -26 -2 -17 20 6 15 64 19 64 4z"/> <path d="M2568 1415 c-3 -14 -1 -25 4 -25 5 0 6 -4 3 -10 -3 -5 -1 -10 5 -10 6 0 14 -9 18 -20 5 -13 11 -17 21 -11 19 12 0 67 -23 65 -9 -1 -15 3 -13 10 2 6 17 10 33 9 25 -2 26 -1 9 7 -35 16 -52 11 -57 -15z"/> <path d="M1198 1424 c-4 -3 0 -13 8 -21 8 -9 17 -13 19 -11 3 2 -1 12 -8 22 -7 9 -16 14 -19 10z"/> <path d="M2052 1384 c-21 -14 -33 -42 -13 -29 5 3 12 1 16 -5 4 -6 11 -8 16 -4 5 3 7 10 3 15 -3 6 2 17 12 24 27 21 -5 20 -34 -1z"/> <path d="M2633 1377 c4 -10 7 -21 7 -23 0 -2 6 -4 13 -4 8 0 14 -6 14 -12 0 -7 2 -17 4 -23 2 -5 0 -11 -5 -12 -12 -2 -26 -25 -20 -35 8 -13 26 -9 18 5 -6 10 -4 10 7 0 7 -7 20 -13 29 -13 13 1 13 2 -1 13 -15 12 -15 15 8 35 14 13 23 26 19 29 -3 4 -12 1 -18 -5 -9 -9 -14 -6 -22 10 -6 11 -22 28 -36 37 -23 15 -24 15 -17 -2z"/> <path d="M2504 1340 c6 -35 -15 -115 -30 -115 -4 0 -12 15 -16 33 -5 17 -13 32 -18 32 -6 0 -5 -10 1 -24 9 -19 8 -29 -5 -47 -21 -31 -20 -42 3 -29 25 13 38 -5 19 -27 -8 -11 -9 -17 -2 -20 17 -6 -61 -83 -84 -83 -12 0 -22 -4 -22 -10 0 -5 5 -10 11 -10 5 0 7 -5 4 -10 -4 -6 -11 -8 -16 -5 -5 4 -14 -6 -21 -20 -7 -16 -17 -24 -26 -20 -7 3 -18 5 -23 5 -5 0 -9 7 -9 15 0 8 -5 15 -11 15 -6 0 -9 -5 -7 -12 2 -6 -4 -20 -14 -30 -22 -22 -23 -34 -3 -42 11 -4 15 2 15 20 0 20 4 25 16 20 9 -3 18 -6 21 -6 3 0 0 -7 -7 -15 -17 -21 -2 -38 31 -33 16 3 31 0 33 -6 2 -6 5 -3 5 6 1 9 -3 18 -9 20 -5 2 -7 19 -4 40 4 21 10 36 13 33 4 -2 19 7 34 20 23 22 27 23 35 9 8 -14 10 -14 25 1 21 20 22 35 2 35 -8 0 -15 5 -15 11 0 6 8 8 19 4 15 -4 20 1 25 26 3 17 6 47 6 65 0 30 4 36 26 33 14 -2 23 26 11 33 -9 5 -9 10 0 19 6 6 9 18 6 27 -5 11 -3 13 7 7 9 -5 11 -4 6 3 -4 7 -14 24 -22 40 l-16 27 6 -35z"/> <path d="M1147 1340 c-3 -10 2 -27 10 -37 13 -17 13 -16 4 4 -7 14 -8 24 -1 28 12 8 13 25 1 25 -5 0 -11 -9 -14 -20z"/> <path d="M1262 1348 c5 -15 28 -23 28 -10 0 5 -7 13 -16 16 -10 4 -14 1 -12 -6z"/> <path d="M1681 1341 c-8 -5 -11 -16 -8 -26 4 -9 12 -13 18 -9 6 3 15 1 19 -6 5 -8 9 -3 12 14 3 15 1 29 -3 32 -5 3 -9 -2 -9 -10 0 -9 -5 -16 -11 -16 -6 0 -9 7 -5 15 6 17 6 18 -13 6z"/> <path d="M1460 1311 c0 -10 -7 -21 -15 -25 -8 -3 -15 -16 -14 -28 0 -13 3 -17 6 -10 2 6 9 10 14 7 18 -12 -23 -55 -52 -55 -15 0 -31 -5 -35 -12 -5 -8 -2 -9 9 -5 21 8 22 0 2 -19 -17 -17 -20 -44 -5 -44 6 0 10 6 10 14 0 13 38 44 69 57 8 3 15 18 17 34 4 42 13 58 28 52 8 -3 17 1 20 9 9 23 8 24 -16 21 -14 -1 -22 3 -20 11 1 6 -2 12 -8 12 -5 0 -10 -9 -10 -19z"/> <path d="M1817 1310 c-6 -24 -1 -25 19 -6 18 18 18 26 0 26 -7 0 -16 -9 -19 -20z"/> <path d="M2048 1323 c-21 -5 -23 -14 -5 -32 10 -11 8 -11 -11 -2 -18 10 -27 10 -38 0 -20 -17 -17 -29 7 -29 15 0 19 -4 15 -16 -3 -9 -6 -17 -6 -20 0 -2 -7 -1 -15 2 -8 4 -15 1 -15 -5 0 -12 12 -15 45 -11 19 2 19 1 -2 -22 -18 -19 -20 -27 -10 -37 9 -10 8 -15 -7 -27 -19 -14 -19 -14 1 -14 24 0 63 48 63 77 0 10 -9 24 -20 31 -11 7 -20 21 -20 33 0 11 4 17 10 14 5 -3 12 7 16 22 4 15 12 31 18 35 12 8 2 9 -26 1z"/> <path d="M2266 1313 c-12 -12 -6 -25 9 -19 8 3 15 0 15 -7 0 -17 38 -16 45 1 4 10 0 13 -15 9 -11 -3 -20 -2 -20 3 0 10 -26 20 -34 13z"/> <path d="M2741 1299 c-24 -20 -21 -42 5 -32 19 7 85 -27 77 -40 -3 -5 0 -8 8 -5 25 8 22 37 -5 48 -14 5 -34 18 -44 28 -18 18 -20 18 -41 1z"/> <path d="M1860 1285 c0 -7 -8 -19 -17 -25 -16 -9 -15 -10 5 -5 26 7 31 -12 5 -22 -36 -14 -43 -29 -32 -62 9 -25 15 -30 31 -25 18 5 19 3 14 -28 -3 -18 -3 -27 0 -20 3 6 16 12 30 12 29 0 24 18 -14 44 -32 21 -39 50 -10 43 12 -3 16 -1 12 6 -5 8 -2 7 7 0 7 -7 23 -13 36 -13 27 0 31 -16 6 -23 -10 -3 -3 -5 15 -6 33 -1 44 12 17 23 -8 3 -15 12 -15 20 0 7 -6 14 -12 13 -7 0 -26 1 -42 1 -23 2 -26 5 -17 16 8 10 9 16 1 21 -5 3 -10 11 -10 17 0 7 5 6 14 -1 12 -10 17 -8 26 8 10 19 8 21 -20 21 -19 0 -30 -5 -30 -15z"/> <path d="M2123 1285 c-7 -8 -13 -18 -13 -22 0 -5 -10 -14 -22 -22 -20 -12 -20 -14 -4 -23 12 -7 16 -17 12 -33 -4 -15 -1 -25 10 -29 8 -3 12 -2 9 4 -3 6 1 10 9 10 9 0 16 -4 16 -9 0 -5 12 -8 28 -8 15 0 21 2 15 4 -7 3 -13 13 -13 22 0 27 -10 31 -36 14 -28 -18 -30 -7 -9 33 10 20 15 23 15 12 0 -10 7 -18 15 -18 8 0 15 -5 15 -11 0 -6 6 -9 14 -6 7 3 18 1 23 -4 5 -5 14 0 22 13 12 19 11 20 -12 16 -18 -4 -24 -1 -20 9 3 7 0 13 -6 13 -6 0 -8 7 -5 15 4 9 0 15 -9 15 -8 0 -18 -6 -20 -12 -3 -7 -6 -3 -6 10 -1 25 -10 28 -28 7z"/> <path d="M1740 1281 c0 -6 -10 -11 -22 -11 -20 -1 -21 -2 -6 -10 9 -6 31 -12 49 -14 31 -4 32 -3 14 10 -11 8 -19 18 -17 22 2 3 -1 8 -7 10 -6 2 -11 -1 -11 -7z"/> <path d="M2350 1280 c-18 -11 -3 -43 24 -48 22 -5 31 24 13 43 -18 18 -18 18 -37 5z"/> <path d="M2549 1287 c0 -1 -3 -15 -5 -32 -3 -20 -1 -25 5 -16 6 10 10 10 16 1 4 -6 -2 -21 -14 -34 -12 -12 -18 -26 -14 -29 3 -4 -3 -17 -14 -30 -11 -12 -23 -31 -27 -42 -5 -17 -4 -18 6 -4 7 8 22 20 32 26 22 12 30 44 15 54 -6 3 4 9 22 13 25 5 30 9 21 18 -7 7 -12 24 -12 39 0 15 -7 29 -15 33 -8 3 -15 4 -16 3z"/> <path d="M2284 1240 c1 -9 -6 -14 -17 -14 -17 2 -17 0 -3 -22 9 -12 13 -30 10 -39 -6 -15 -4 -15 31 -1 45 19 55 20 55 3 0 -7 9 -13 20 -14 16 -1 20 4 20 32 0 32 -2 34 -27 31 -16 -2 -36 -7 -45 -11 -15 -6 -18 -2 -18 20 0 17 4 24 12 19 6 -4 8 -3 4 4 -10 16 -43 10 -42 -8z"/> <path d="M1670 1235 c-10 -12 -10 -15 4 -15 9 0 16 7 16 15 0 8 -2 15 -4 15 -2 0 -9 -7 -16 -15z"/> <path d="M1730 1225 c0 -9 5 -15 11 -13 6 2 11 8 11 13 0 5 -5 11 -11 13 -6 2 -11 -4 -11 -13z"/> <path d="M2725 1232 c-6 -6 4 -22 15 -22 4 0 10 6 13 13 5 13 -17 20 -28 9z"/> <path d="M2857 1197 c-21 -57 -25 -99 -9 -105 9 -3 12 8 10 39 -3 36 0 44 17 47 16 4 17 2 7 -10 -6 -8 -9 -18 -5 -21 12 -12 14 -69 2 -61 -7 4 -7 -1 1 -16 8 -15 18 -20 31 -17 10 3 22 1 25 -4 3 -5 0 -9 -5 -9 -6 0 -11 -8 -10 -17 0 -11 3 -13 6 -5 2 6 9 10 14 6 5 -3 9 2 9 10 0 8 7 22 16 30 8 9 14 16 12 17 -26 6 -38 6 -38 -2 0 -5 -10 1 -21 12 -15 15 -18 23 -10 29 9 5 7 17 -6 46 -10 21 -22 42 -27 45 -4 4 -2 9 5 11 9 3 9 7 2 11 -6 4 -17 -11 -26 -36z"/> <path d="M1582 1198 c-16 -16 -15 -28 3 -28 9 0 18 -7 21 -15 11 -27 20 -16 16 20 -4 36 -19 44 -40 23z"/> <path d="M1747 1185 c-5 -12 -15 -14 -47 -9 -32 5 -40 3 -40 -8 0 -11 11 -15 38 -15 28 1 37 -3 37 -16 0 -9 -4 -17 -9 -16 -5 0 -13 -5 -17 -13 -7 -10 -11 -8 -15 10 -4 12 -10 22 -15 22 -13 0 -11 -18 2 -26 8 -4 6 -10 -6 -17 -15 -8 -22 -5 -37 13 -17 20 -18 21 -18 3 0 -11 6 -28 14 -38 12 -16 16 -17 30 -6 11 9 16 10 16 2 0 -6 -4 -11 -9 -11 -4 0 -8 -13 -7 -30 1 -16 6 -30 13 -30 18 0 27 21 14 30 -10 5 -9 10 1 21 8 8 17 22 21 33 5 13 13 17 32 12 24 -6 24 -5 21 39 -2 33 0 45 10 43 7 -2 14 2 16 7 5 17 -39 17 -45 0z"/> <path d="M2615 1191 c-11 -5 -23 -7 -26 -5 -6 3 -7 -2 -12 -47 -2 -14 -7 -30 -11 -37 -5 -8 0 -12 15 -12 18 0 19 -2 9 -15 -11 -13 -10 -14 5 -9 13 5 16 4 11 -4 -4 -7 -13 -12 -20 -12 -17 0 -46 -33 -45 -51 0 -8 5 -4 11 9 6 12 16 22 21 22 6 0 18 7 28 16 13 12 15 22 9 44 -4 16 -6 31 -2 34 3 3 0 6 -6 6 -22 0 -12 30 12 36 14 3 27 12 30 20 6 16 1 16 -29 5z"/> <path d="M2710 1184 c0 -8 -4 -14 -8 -14 -5 0 -7 -13 -4 -30 2 -16 8 -30 13 -30 5 0 7 13 4 29 -3 17 0 33 7 37 6 4 8 3 4 -4 -3 -5 -1 -12 6 -14 6 -2 12 -15 14 -29 1 -13 4 -33 6 -43 2 -10 -3 -21 -11 -24 -8 -3 -11 0 -7 7 4 6 1 11 -6 11 -7 0 -14 -11 -14 -25 -2 -28 10 -32 32 -11 7 8 18 16 24 18 6 2 5 23 -3 58 -8 31 -12 60 -10 65 2 6 -8 11 -22 11 -15 1 -25 -3 -25 -12z"/> <path d="M1474 1176 c-12 -9 -15 -19 -9 -32 8 -18 9 -17 12 4 3 12 9 22 14 22 6 0 7 -4 4 -10 -3 -6 1 -7 9 -4 9 3 16 10 16 14 0 15 -28 19 -46 6z"/> <path d="M2200 1144 c0 -11 -6 -15 -20 -11 -11 3 -17 1 -14 -4 3 -6 -1 -21 -10 -34 -14 -22 -14 -24 11 -40 25 -17 26 -17 19 0 -4 12 2 32 18 55 23 35 24 50 4 50 -4 0 -8 -7 -8 -16z"/> <path d="M2077 1135 c-4 -9 -3 -14 2 -11 5 3 12 -1 15 -10 4 -12 2 -15 -9 -10 -17 6 -19 -11 -5 -48 5 -14 16 -26 24 -26 8 0 17 -9 21 -19 8 -26 32 -16 38 16 4 20 1 24 -14 20 -16 -4 -19 1 -19 35 0 26 4 37 11 32 7 -4 10 -1 7 7 -3 8 -16 13 -29 13 -13 -1 -27 3 -30 8 -3 5 -9 2 -12 -7z"/> <path d="M1431 1113 c-1 -18 4 -33 9 -33 12 0 12 17 0 45 -7 17 -9 15 -9 -12z"/> <path d="M1311 1121 c-14 -4 -26 -12 -29 -19 -5 -16 -1 -15 36 4 46 23 43 29 -7 15z"/> <path d="M1797 1116 c-3 -8 -2 -18 4 -22 16 -9 22 2 11 21 -8 15 -10 16 -15 1z"/> <path d="M2229 1108 c-6 -10 -5 -19 1 -23 6 -4 8 -9 6 -13 -8 -14 23 -45 39 -39 17 7 21 27 5 27 -5 0 -10 6 -10 13 0 8 7 14 15 14 9 0 15 -10 15 -24 0 -17 6 -23 21 -23 18 0 20 4 14 29 -5 23 -2 30 12 34 12 3 9 5 -9 6 -15 0 -29 5 -33 11 -9 15 -66 7 -76 -12z"/> <path d="M2390 1120 c-12 -8 -11 -10 8 -10 12 0 22 5 22 10 0 13 -11 13 -30 0z"/> <path d="M2620 1111 c0 -17 29 -20 42 -3 12 15 11 16 -4 3 -12 -9 -18 -10 -18 -2 0 6 -4 11 -10 11 -5 0 -10 -4 -10 -9z"/> <path d="M1396 1094 c-4 -10 0 -24 8 -33 22 -21 29 -9 12 23 -11 23 -15 24 -20 10z"/> <path d="M1833 1080 c-1 -11 2 -18 8 -15 11 7 12 35 1 35 -4 0 -8 -9 -9 -20z"/> <path d="M1986 1083 c16 -17 19 -49 4 -58 -6 -4 -8 -11 -5 -16 4 -5 1 -9 -4 -9 -6 0 -11 -7 -11 -16 0 -10 -6 -14 -15 -10 -16 6 -20 -5 -7 -18 4 -4 7 -13 7 -19 0 -7 8 -11 18 -11 9 1 17 -3 17 -9 0 -21 14 4 17 31 3 26 3 26 -12 8 -13 -18 -15 -18 -15 -3 0 15 43 43 61 39 4 -1 5 8 2 19 -5 18 -6 18 -18 3 -11 -16 -12 -16 -18 0 -4 9 -3 16 1 16 8 0 42 53 42 64 0 3 -18 5 -39 4 -34 -1 -37 -3 -25 -15z"/> <path d="M1750 1070 c0 -5 7 -10 15 -10 8 0 15 5 15 10 0 6 -7 10 -15 10 -8 0 -15 -4 -15 -10z"/> <path d="M1945 1071 c-3 -6 -2 -11 4 -11 6 0 8 -6 5 -14 -3 -8 0 -17 7 -22 7 -4 10 -3 5 4 -3 5 -2 12 3 14 5 1 4 11 -4 21 -8 12 -15 14 -20 8z"/> <path d="M2636 1071 c-4 -5 0 -12 6 -14 8 -3 6 -6 -4 -6 -21 -1 -24 -17 -5 -24 10 -3 10 -9 0 -26 -16 -26 -17 -39 -2 -24 12 12 49 6 49 -7 0 -5 -9 -12 -20 -15 -23 -7 -27 -30 -6 -38 10 -4 13 -1 10 7 -3 8 0 17 7 22 7 4 15 2 17 -4 2 -7 8 -12 13 -12 18 0 0 54 -26 77 -18 17 -24 31 -21 49 5 23 -7 33 -18 15z"/> <path d="M2685 1061 c-9 -30 6 -50 17 -21 5 14 5 27 -1 33 -5 5 -12 1 -16 -12z"/> <path d="M2830 1060 c0 -32 2 -35 22 -32 16 3 18 0 10 -15 -6 -10 -10 -21 -11 -25 -1 -5 -4 -8 -8 -7 -5 0 -10 -9 -13 -20 -5 -19 -7 -20 -32 -7 -31 16 -48 5 -48 -31 0 -16 4 -21 15 -17 8 4 15 1 15 -6 0 -8 -9 -10 -25 -6 -21 5 -25 3 -25 -15 0 -18 4 -20 25 -15 25 6 57 -12 54 -31 -5 -27 1 -35 16 -23 17 15 19 7 5 -21 -14 -25 1 -25 23 1 21 25 15 42 -23 58 -38 17 -40 51 -5 87 32 31 38 32 30 3 -7 -23 -7 -23 9 -3 17 23 21 39 6 30 -11 -7 -9 23 3 42 9 14 -11 60 -29 67 -9 3 -14 -2 -14 -14z"/> <path d="M1601 1049 c-10 -18 -15 -19 -22 -8 -7 11 -9 9 -9 -7 0 -12 7 -27 15 -34 12 -10 15 -10 15 0 0 7 6 10 14 7 25 -10 36 16 18 41 l-17 22 -14 -21z"/> <path d="M2485 1060 c-3 -5 -2 -10 4 -10 6 0 7 -8 4 -17 -5 -13 -2 -15 11 -10 10 4 20 7 22 7 12 0 2 29 -12 34 -21 8 -22 8 -29 -4z"/> <path d="M1726 1048 c5 -7 2 -9 -8 -5 -12 4 -14 1 -11 -14 6 -21 23 -25 40 -8 9 9 8 15 -2 25 -17 17 -29 18 -19 2z"/> <path d="M1790 1047 c0 -8 7 -17 15 -21 8 -3 15 -2 15 3 0 5 -7 14 -15 21 -12 10 -15 10 -15 -3z"/> <path d="M2991 1010 c1 -27 6 -50 10 -50 5 0 6 -6 3 -13 -3 -8 1 -14 9 -14 9 0 12 7 9 19 -3 13 1 18 18 18 22 0 51 -22 49 -37 -1 -4 -1 -15 1 -23 1 -11 4 -9 10 5 9 19 9 19 16 -2 5 -19 24 -33 24 -20 0 17 -35 67 -50 72 -11 4 -20 11 -20 16 0 5 -9 9 -19 9 -25 0 -37 16 -40 55 0 8 -6 15 -11 15 -6 0 -10 -22 -9 -50z"/> <path d="M1210 1045 c-1 -5 -2 -13 -1 -17 0 -4 -5 -5 -12 -2 -7 2 -13 -4 -14 -16 -1 -11 2 -20 6 -20 16 0 33 29 28 47 -3 10 -6 14 -7 8z"/> <path d="M2761 1041 c-11 -7 -11 -9 0 -14 10 -3 11 -9 4 -22 -12 -21 -31 -20 -27 1 2 8 -2 14 -7 14 -6 0 -9 -13 -8 -28 2 -27 4 -28 30 -18 22 8 27 17 27 43 0 37 0 36 -19 24z"/> <path d="M2440 1010 c-8 -6 -27 -10 -42 -10 -16 0 -28 -5 -28 -11 0 -5 -4 -7 -10 -4 -5 3 -10 0 -10 -8 0 -15 37 -30 52 -21 4 3 8 12 8 20 0 8 3 13 8 10 8 -5 48 22 41 28 -3 3 -11 1 -19 -4z"/> <path d="M2606 1009 c5 -9 -1 -10 -21 -5 -24 6 -27 5 -22 -13 3 -12 1 -23 -4 -26 -4 -3 -8 -21 -7 -39 1 -25 5 -33 15 -29 8 3 11 13 8 23 -9 29 5 68 26 73 20 5 27 27 8 27 -5 0 -7 -5 -3 -11z"/> <path d="M2896 1012 c-3 -6 0 -13 6 -15 10 -4 10 -7 1 -14 -10 -7 -10 -13 2 -29 19 -25 19 -54 -1 -54 -9 0 -12 5 -8 13 4 6 -2 3 -14 -7 -12 -11 -22 -22 -22 -26 0 -12 33 -22 39 -11 3 5 15 11 26 13 16 2 19 -2 18 -19 -3 -26 4 -28 30 -9 20 16 23 27 3 20 -20 -8 -28 12 -11 26 18 15 20 31 3 25 -20 -7 -38 9 -44 40 -7 39 -20 60 -28 47z"/> <path d="M1143 1003 c-16 -6 -17 -29 -1 -39 7 -5 8 -3 4 5 -5 7 0 18 10 26 19 14 11 18 -13 8z"/> <path d="M1775 996 c-10 -11 -14 -38 -5 -34 3 2 16 -5 30 -15 32 -22 40 -22 40 3 0 18 -10 25 -32 21 -4 0 -5 5 -2 13 7 17 -18 27 -31 12z"/> <path d="M2070 995 c-10 -12 -7 -15 14 -21 14 -3 26 -11 26 -18 0 -6 5 -4 10 4 6 10 3 20 -10 32 -23 22 -24 22 -40 3z"/> <path d="M1528 988 c9 -9 15 -9 24 0 9 9 7 12 -12 12 -19 0 -21 -3 -12 -12z"/> <path d="M2182 980 c-7 -11 -15 -19 -20 -19 -18 3 -32 -2 -32 -11 0 -5 7 -10 15 -10 8 0 15 -5 15 -11 0 -7 16 5 35 25 40 43 41 46 17 46 -9 0 -23 -9 -30 -20z"/> <path d="M2960 990 c0 -6 -5 -8 -11 -4 -8 4 -8 0 0 -15 7 -11 16 -21 21 -21 13 0 13 37 0 45 -5 3 -10 1 -10 -5z"/> <path d="M1453 955 c1 -19 5 -35 10 -35 5 0 3 -10 -5 -22 -14 -21 -13 -25 9 -48 13 -13 23 -19 23 -12 0 7 5 10 11 7 7 -5 5 -14 -5 -29 -9 -15 -11 -28 -5 -37 8 -12 10 -12 18 1 5 8 7 18 5 22 -3 4 2 5 10 2 16 -6 18 -44 3 -41 -5 1 -12 -4 -14 -11 -4 -9 1 -13 13 -10 11 2 20 13 22 27 3 18 6 21 12 10 6 -8 9 6 8 39 0 29 -4 49 -9 46 -5 -3 -9 2 -9 11 0 10 5 13 13 9 8 -5 8 -2 -2 9 -21 26 -24 21 -18 -33 4 -29 2 -50 -3 -50 -6 0 -10 7 -10 15 0 8 -4 15 -9 15 -16 0 -24 42 -10 51 7 4 10 11 6 15 -10 10 -38 -28 -32 -43 6 -18 -12 -16 -18 1 -3 7 1 23 10 35 8 12 12 28 9 36 -3 9 0 12 10 8 7 -3 14 -8 14 -12 0 -17 26 -6 27 12 1 11 -1 17 -3 14 -3 -3 -21 3 -40 14 -19 10 -36 19 -38 19 -2 0 -4 -16 -3 -35z"/> <path d="M1593 983 c-7 -3 -13 -9 -13 -14 0 -6 5 -7 11 -4 5 4 19 -1 30 -11 19 -17 19 -17 -1 -31 -24 -17 -27 -35 -3 -26 11 4 14 3 9 -5 -4 -7 -14 -12 -22 -12 -17 0 -19 -26 -2 -36 7 -4 8 -3 4 4 -3 6 3 16 15 23 17 9 23 8 30 -2 5 -8 7 -19 5 -25 -5 -13 50 -12 62 1 4 5 2 5 -5 1 -14 -8 -27 10 -18 24 5 8 11 7 21 -1 11 -9 14 -8 14 5 0 20 -28 21 -51 0 -15 -14 -18 -12 -28 17 -7 21 -8 35 -2 39 14 8 -10 53 -29 55 -8 1 -21 0 -27 -2z"/> <path d="M2434 960 c-22 -17 -48 -37 -59 -45 -10 -8 -23 -15 -27 -15 -4 0 -8 -3 -8 -7 0 -5 16 -9 35 -10 22 -1 35 3 35 11 0 22 47 55 69 49 23 -6 29 -23 9 -23 -7 0 -5 -5 5 -11 14 -8 15 -14 7 -24 -9 -11 -7 -12 8 -8 13 3 19 13 18 29 0 13 -5 24 -9 24 -4 0 -7 6 -6 13 3 19 -12 47 -26 47 -7 0 -30 -14 -51 -30z"/> <path d="M1670 970 c0 -5 7 -10 15 -10 8 0 15 5 15 10 0 6 -7 10 -15 10 -8 0 -15 -4 -15 -10z"/> <path d="M1720 961 c0 -6 -7 -11 -16 -11 -8 0 -13 -4 -9 -9 3 -5 0 -11 -7 -14 -7 -2 -2 -2 10 0 15 2 21 0 17 -7 -3 -5 2 -10 12 -10 23 0 28 34 7 51 -10 8 -14 8 -14 0z"/> <path d="M1888 948 c-15 -15 -16 -48 -1 -48 16 0 35 33 27 49 -9 17 -10 17 -26 -1z"/> <path d="M1417 953 c-13 -12 -7 -43 8 -43 9 0 15 9 15 25 0 24 -10 32 -23 18z"/> <path d="M2027 936 c3 -13 11 -23 19 -23 20 0 17 20 -4 34 -17 10 -18 8 -15 -11z"/> <path d="M1101 918 c-1 -41 13 -51 24 -18 4 11 18 27 33 35 23 12 24 14 5 12 -11 -2 -28 -9 -36 -15 -13 -11 -16 -10 -20 5 -3 10 -5 1 -6 -19z"/> <path d="M1788 917 c6 -6 12 -28 14 -47 3 -34 3 -34 16 -12 11 19 11 25 -3 38 -8 8 -15 20 -15 25 0 5 -5 9 -11 9 -8 0 -8 -4 -1 -13z"/> <path d="M2210 916 c0 -8 -6 -17 -12 -19 -8 -4 -7 -6 3 -6 19 -1 42 23 32 32 -11 12 -23 8 -23 -7z"/> <path d="M2602 897 c-7 -16 -16 -26 -20 -23 -4 2 -9 -5 -9 -16 -2 -21 -1 -20 23 4 16 15 24 33 22 44 -4 16 -7 14 -16 -9z"/> <path d="M2680 898 c0 -17 -3 -19 -9 -10 -7 11 -9 10 -15 -3 -3 -9 -10 -14 -15 -11 -11 7 -41 -37 -41 -59 0 -8 -4 -15 -10 -15 -5 0 -10 5 -10 11 0 5 -11 -2 -25 -17 -14 -15 -25 -33 -25 -40 0 -8 -4 -14 -8 -14 -5 0 -9 -6 -9 -14 0 -8 8 -11 19 -8 12 3 17 11 14 21 -3 9 -1 23 4 31 8 12 10 11 10 -7 0 -19 4 -18 38 17 26 25 48 38 66 38 39 0 44 11 16 33 -14 11 -17 17 -8 13 18 -6 38 22 31 44 -8 20 -23 14 -23 -10z"/> <path d="M1181 889 c-7 -12 -10 -23 -8 -26 3 -3 11 5 17 17 15 28 8 35 -9 9z"/> <path d="M1375 900 c-3 -5 0 -10 9 -10 8 0 16 -6 19 -12 2 -7 7 -10 11 -7 10 9 -5 39 -19 39 -8 0 -17 -4 -20 -10z"/> <path d="M3017 895 c-4 -8 -1 -18 5 -21 8 -5 5 -10 -8 -15 -18 -7 -18 -8 3 -8 16 -1 20 -6 16 -20 -3 -10 0 -22 6 -25 18 -11 13 45 -6 66 -9 11 -11 18 -5 18 7 0 12 5 12 10 0 15 -17 12 -23 -5z"/> <path d="M1746 884 c-9 -23 -8 -24 14 -24 11 0 20 2 20 4 0 12 -13 36 -20 36 -4 0 -11 -7 -14 -16z"/> <path d="M1955 862 c5 -30 3 -42 -5 -42 -7 0 -10 -7 -6 -15 3 -8 1 -15 -3 -15 -5 0 -11 5 -13 12 -2 6 -9 8 -16 4 -15 -9 -4 -35 14 -32 18 3 55 42 47 50 -4 3 -1 6 5 6 7 0 12 -8 12 -17 0 -15 2 -16 10 -3 7 11 5 18 -5 26 -19 14 -19 25 0 18 13 -6 16 -1 14 24 0 4 -7 6 -15 4 -9 -2 -22 3 -31 10 -14 11 -15 8 -8 -30z"/> <path d="M2280 885 c0 -8 -5 -15 -11 -15 -5 0 -7 -4 -4 -10 3 -6 -1 -7 -9 -4 -9 3 -16 14 -16 23 0 13 -2 14 -9 1 -6 -8 -7 -18 -5 -22 3 -4 -2 -8 -10 -8 -9 0 -16 7 -16 15 0 20 -25 19 -50 -2 -24 -21 -27 -63 -4 -63 11 0 15 6 11 20 -5 19 17 60 26 50 6 -6 10 -37 8 -68 0 -12 -17 -38 -36 -56 -19 -19 -35 -39 -35 -45 0 -6 -6 -11 -14 -11 -22 0 -26 -27 -10 -62 l14 -33 -2 37 c-2 26 4 44 20 63 21 24 50 36 37 15 -3 -5 0 -10 7 -11 7 0 21 -2 30 -4 10 -2 20 1 24 6 3 5 -1 9 -8 9 -7 0 -18 8 -25 18 -9 15 -7 21 8 30 10 7 19 23 19 37 0 27 14 33 27 11 7 -12 11 -12 27 -1 15 11 16 18 8 28 -9 10 -8 18 3 33 17 23 19 34 5 34 -5 0 -10 -7 -10 -15z"/> <path d="M2043 876 c3 -7 0 -19 -6 -25 -8 -8 -8 -14 2 -23 10 -11 11 -10 6 5 -5 11 -2 17 7 17 19 0 19 27 0 35 -9 3 -12 0 -9 -9z"/> <path d="M2311 876 c-11 -13 -10 -22 5 -53 17 -34 19 -36 22 -15 2 15 15 29 35 37 31 14 29 16 -15 18 -13 1 -25 7 -28 15 -5 12 -8 11 -19 -2z"/> <path d="M3066 872 c-2 -4 -1 -14 5 -22 7 -13 9 -13 9 0 1 11 4 10 15 -4 14 -19 15 -19 15 7 0 20 -5 27 -19 27 -11 0 -22 -4 -25 -8z"/> <path d="M3131 861 c-8 -15 -5 -24 14 -45 13 -14 31 -26 39 -26 27 0 48 -55 37 -95 -7 -26 -6 -35 2 -35 7 0 13 19 15 47 2 43 0 49 -43 89 -26 23 -47 52 -48 63 -2 26 -4 26 -16 2z"/> <path d="M1873 848 c5 -17 3 -28 -6 -31 -6 -2 -9 -7 -6 -11 8 -9 59 14 59 27 0 5 -7 6 -16 3 -8 -3 -13 -2 -10 3 3 5 -2 15 -11 22 -15 13 -16 11 -10 -13z"/> <path d="M2473 840 c1 -20 12 -26 20 -12 3 4 -1 13 -8 19 -11 10 -13 9 -12 -7z"/> <path d="M2531 826 l-23 -25 22 6 c12 3 24 12 27 20 9 24 -3 24 -26 -1z"/> <path d="M926 831 c-4 -5 -9 -30 -12 -55 -6 -38 -4 -46 9 -46 13 0 16 10 14 55 -2 58 -3 60 -11 46z"/> <path d="M956 822 c-4 -7 -3 -12 2 -12 14 0 22 -39 10 -46 -5 -3 -7 -17 -4 -30 4 -15 2 -24 -5 -24 -6 0 -9 -6 -7 -12 3 -7 -5 -23 -17 -35 l-23 -22 -6 21 c-7 28 5 48 14 23 6 -17 8 -16 12 8 4 21 1 27 -13 27 -16 0 -32 -26 -28 -46 5 -28 -5 -47 -42 -81 -66 -60 -79 -76 -101 -120 -14 -28 -14 -33 -2 -33 25 0 29 4 26 28 -1 12 2 22 8 22 5 0 9 5 7 11 -1 6 7 16 18 22 11 7 24 18 28 25 16 25 24 11 13 -23 -6 -19 -14 -35 -18 -35 -5 0 -8 -7 -8 -15 0 -8 5 -15 10 -15 6 0 3 -11 -6 -25 -15 -23 -13 -30 9 -26 4 0 7 -7 8 -16 0 -10 3 -13 5 -7 3 7 15 10 27 7 16 -3 18 -2 8 5 -7 5 -10 15 -7 21 4 6 2 11 -3 11 -6 0 -11 -5 -11 -11 0 -5 -4 -8 -8 -5 -11 6 -3 64 10 72 5 3 4 12 -3 20 -9 11 -8 18 5 32 9 10 16 28 16 40 0 12 6 22 14 22 8 0 25 13 38 29 l25 29 0 -34 c0 -38 9 -53 22 -38 15 15 17 49 4 47 -20 -4 -15 39 7 67 21 27 26 50 10 50 -5 0 -10 -4 -10 -10 0 -5 -5 -10 -10 -10 -7 0 -7 6 0 19 14 26 13 44 -3 66 -10 12 -16 14 -21 7z"/> <path d="M1235 800 c-4 -16 -11 -30 -16 -30 -5 0 -9 -5 -9 -11 0 -5 6 -7 13 -3 9 6 9 4 1 -7 -8 -9 -9 -22 -3 -37 10 -26 29 -21 29 8 0 10 7 21 16 24 8 3 12 11 9 16 -5 8 -11 7 -21 -1 -11 -9 -14 -7 -14 13 0 13 5 29 11 35 7 7 7 13 1 17 -6 3 -13 -7 -17 -24z"/> <path d="M1600 815 c12 -15 30 -12 30 6 0 5 -10 9 -21 9 -18 0 -19 -2 -9 -15z"/> <path d="M1777 810 c-3 -10 -2 -19 2 -18 24 3 33 -4 28 -23 -4 -15 0 -23 14 -26 10 -3 19 -9 19 -14 0 -5 7 -9 15 -9 8 0 15 -6 15 -12 0 -8 7 -5 15 6 14 18 15 18 15 2 0 -20 15 -13 29 13 8 14 5 17 -12 18 -54 1 -67 4 -67 13 0 6 7 10 16 10 8 0 12 5 9 10 -4 6 -12 10 -18 9 -31 -4 -46 3 -52 21 -8 25 -21 26 -28 0z"/> <path d="M2749 824 c-1 -5 -1 -12 0 -17 1 -4 -6 -24 -14 -43 -19 -47 -19 -51 5 -59 16 -5 18 -10 10 -26 -14 -26 -3 -44 15 -25 14 13 14 33 0 99 -5 23 -2 27 12 25 10 -2 18 3 18 11 0 15 -44 49 -46 35z"/> <path d="M2956 820 c-18 -6 -18 -7 -2 -13 15 -6 16 -10 6 -22 -10 -12 -10 -15 0 -15 7 0 19 8 26 18 15 20 18 36 5 28 -5 -4 -11 -2 -13 3 -1 4 -12 5 -22 1z"/> <path d="M1725 810 c-4 -6 -15 -8 -26 -5 -11 4 -19 2 -19 -4 0 -6 -9 -11 -21 -11 -12 0 -19 -5 -16 -12 2 -7 13 -12 23 -10 10 1 31 4 46 7 17 2 28 -1 32 -11 3 -8 12 -14 20 -14 13 0 12 6 -5 35 -23 38 -25 40 -34 25z"/> <path d="M2010 788 c0 -16 5 -28 10 -28 13 0 13 20 0 40 -8 12 -10 9 -10 -12z"/> <path d="M3077 794 c3 -7 0 -14 -6 -14 -6 0 -11 -10 -11 -22 0 -17 3 -19 9 -9 5 7 13 11 17 8 5 -3 9 6 9 19 0 13 -5 26 -12 28 -7 3 -10 -1 -6 -10z"/> <path d="M1450 781 c-16 -32 -12 -46 19 -58 40 -15 45 -6 15 26 -13 14 -22 32 -19 39 7 19 -3 14 -15 -7z"/> <path d="M2103 780 c-3 -11 -12 -19 -21 -18 -8 2 -17 -3 -19 -10 -3 -8 4 -11 19 -10 16 2 22 -2 20 -12 -2 -8 0 -11 4 -7 9 8 14 77 6 77 -2 0 -6 -9 -9 -20z"/> <path d="M2639 769 c-26 -24 -30 -33 -19 -37 8 -3 18 -10 22 -16 4 -6 8 0 8 13 0 14 7 33 17 43 29 32 7 30 -28 -3z"/> <path d="M1971 772 c-1 -13 -5 -20 -11 -17 -5 3 -10 2 -10 -4 0 -15 14 -21 28 -12 9 5 10 14 3 32 l-10 24 0 -23z"/> <path d="M2290 771 c-5 -11 -10 -27 -10 -35 0 -8 -9 -24 -21 -35 -13 -12 -17 -21 -10 -25 12 -8 61 36 61 54 0 5 -6 10 -12 10 -8 0 -9 3 -3 8 11 7 19 42 11 42 -3 0 -10 -9 -16 -19z"/> <path d="M2847 740 c-15 -27 -27 -54 -27 -60 0 -16 39 12 46 32 6 20 44 25 44 7 0 -7 -8 -18 -17 -25 -17 -12 -17 -14 5 -43 23 -31 28 -46 13 -37 -5 3 -8 -6 -8 -19 0 -14 3 -26 8 -26 27 -5 33 0 45 41 17 55 17 70 4 70 -6 0 -10 -7 -8 -16 2 -10 -3 -19 -11 -22 -8 -3 -11 0 -7 7 4 6 4 17 -1 24 -12 19 -14 49 -3 42 5 -3 10 -2 10 2 0 5 -16 15 -35 22 -29 10 -35 17 -30 32 11 33 0 21 -28 -31z"/> <path d="M1047 763 c-10 -9 -9 -23 2 -23 5 0 11 7 15 15 5 15 -5 20 -17 8z"/> <path d="M2789 749 c-8 -17 -8 -23 2 -30 19 -12 27 -3 21 26 -5 30 -8 31 -23 4z"/> <path d="M3140 763 c0 -7 11 -32 25 -57 19 -34 21 -45 11 -49 -19 -7 -25 -51 -11 -71 15 -20 39 -21 31 -1 -3 8 -1 15 5 15 7 0 8 7 4 18 -4 9 -9 28 -10 42 -1 14 -3 30 -4 37 0 6 -7 18 -14 25 -7 7 -18 22 -25 33 -6 11 -12 15 -12 8z"/> <path d="M1062 738 c-15 -15 -16 -41 0 -36 6 2 18 14 26 26 12 19 12 22 0 22 -8 0 -19 -5 -26 -12z"/> <path d="M1581 719 c-19 -58 -20 -73 -5 -94 12 -16 14 -17 14 -2 0 9 5 17 11 17 5 0 8 -4 5 -8 -2 -4 -1 -14 4 -22 7 -11 11 -11 24 -1 9 8 16 21 16 30 0 14 -2 14 -10 1 -8 -12 -10 -11 -10 8 0 12 -4 22 -10 22 -5 0 -10 10 -11 23 0 12 -4 31 -8 42 -7 17 -9 15 -20 -16z"/> <path d="M1676 741 c-13 -5 -16 -10 -8 -15 8 -4 8 -14 2 -31 -8 -21 -7 -25 9 -25 10 0 21 9 24 19 3 12 15 21 33 23 15 2 29 9 32 16 2 7 0 12 -5 11 -4 -1 -10 -1 -13 1 -17 6 -58 7 -74 1z"/> <path d="M2991 728 c-7 -13 -10 -20 -6 -16 4 4 16 -1 25 -12 19 -22 50 -18 50 7 0 10 -7 14 -19 10 -12 -3 -18 1 -17 11 2 24 -18 24 -33 0z"/> <path d="M2581 721 c-12 -8 -5 -41 10 -41 4 0 13 9 18 19 12 21 -6 35 -28 22z"/> <path d="M1265 709 c-10 -15 1 -23 20 -15 9 3 13 10 10 16 -8 13 -22 13 -30 -1z"/> <path d="M1412 693 c-21 -26 -28 -43 -17 -43 8 0 55 51 55 60 0 18 -16 10 -38 -17z"/> <path d="M1515 703 c-8 -21 9 -38 27 -27 12 8 11 12 -3 26 -16 15 -18 15 -24 1z"/> <path d="M1780 704 c0 -12 -12 -18 -32 -16 -3 1 -11 -5 -17 -12 -14 -17 -4 -66 14 -66 7 0 15 -7 19 -15 3 -8 1 -15 -5 -15 -6 0 -7 -5 -3 -11 5 -8 10 -6 16 5 6 11 4 23 -6 38 -9 12 -16 29 -16 38 0 12 2 12 9 2 6 -10 10 -7 15 12 6 25 36 38 36 15 0 -5 4 -8 9 -4 5 3 17 -2 25 -11 9 -8 16 -11 16 -5 0 16 -34 47 -58 53 -15 4 -22 2 -22 -8z"/> <path d="M1993 700 c-11 -16 -10 -18 2 -14 18 7 20 -7 3 -24 -9 -9 -9 -12 1 -12 7 0 9 -4 6 -10 -3 -5 -2 -10 2 -10 5 0 10 20 11 45 2 49 -6 56 -25 25z"/> <path d="M2338 703 c-9 -10 -19 -29 -23 -41 -6 -21 -5 -23 13 -13 29 16 36 31 15 32 -14 0 -15 2 -3 7 8 4 16 13 18 20 3 16 -2 15 -20 -5z"/> <path d="M3116 695 c-4 -13 -2 -14 14 -5 23 13 26 20 6 20 -8 0 -16 -7 -20 -15z"/> <path d="M1090 690 c-8 -5 -18 -6 -24 -3 -5 4 -7 -1 -3 -10 4 -11 1 -17 -8 -17 -23 0 -18 -16 5 -17 12 -1 20 4 20 13 0 11 6 13 20 9 21 -7 25 1 12 22 -5 8 -13 9 -22 3z"/> <path d="M1296 658 c-20 -30 -24 -44 -16 -58 13 -24 13 -53 0 -45 -5 3 -10 0 -10 -7 0 -9 10 -13 28 -12 36 2 36 2 19 19 -13 12 -13 20 1 62 18 54 31 72 50 65 6 -2 12 1 12 6 0 6 -13 10 -29 10 -23 -1 -35 -10 -55 -40z"/> <path d="M2540 685 c0 -8 5 -15 10 -15 6 0 10 7 10 15 0 8 -4 15 -10 15 -5 0 -10 -7 -10 -15z"/> <path d="M2653 683 c0 -8 7 -11 16 -8 20 6 43 -46 30 -66 -5 -8 -9 -23 -8 -34 0 -14 5 -10 16 15 l17 35 4 -35 c5 -46 -15 -110 -33 -110 -19 0 -20 -19 -1 -26 18 -7 77 53 70 71 -4 8 -10 12 -15 9 -16 -10 -9 8 9 23 9 8 11 12 5 8 -7 -3 -13 -1 -13 4 0 6 7 11 15 11 8 0 15 7 15 15 0 18 -17 20 -22 3 -2 -6 -10 4 -18 23 -8 19 -23 43 -33 54 -21 23 -54 28 -54 8z"/> <path d="M1450 673 c0 -20 34 -42 46 -30 9 8 -8 37 -18 31 -6 -4 -14 0 -19 7 -6 11 -9 8 -9 -8z"/> <path d="M3075 680 c-8 -13 -1 -24 14 -19 6 3 7 10 2 18 -6 10 -10 10 -16 1z"/> <path d="M1182 667 c-8 -9 -12 -26 -10 -39 l3 -23 13 23 c7 13 12 30 10 39 -3 15 -4 15 -16 0z"/> <path d="M2195 669 c-4 -6 -5 -13 -2 -16 7 -7 27 6 27 18 0 12 -17 12 -25 -2z"/> <path d="M2841 668 c0 -9 -4 -25 -7 -35 -5 -14 -4 -15 5 -7 7 7 11 22 8 35 -2 13 -5 16 -6 7z"/> <path d="M1134 658 c-6 -10 4 -28 15 -28 5 0 11 8 13 18 5 19 -18 27 -28 10z"/> <path d="M1216 660 c-2 -5 -1 -23 4 -37 1 -5 1 -27 0 -50 -1 -37 1 -41 19 -36 26 7 27 19 4 28 -17 6 -17 7 0 16 10 6 14 15 10 22 -10 16 -13 38 -5 33 4 -2 13 2 20 10 7 8 11 14 10 15 -15 4 -60 4 -62 -1z"/> <path d="M2782 653 c-10 -4 -10 -8 -1 -19 13 -16 29 -10 29 12 0 15 -6 16 -28 7z"/> <path d="M1411 636 c-7 -8 -8 -17 -3 -20 6 -3 13 1 16 10 9 23 2 28 -13 10z"/> <path d="M1506 633 c-4 -13 -18 -26 -32 -29 -26 -7 -33 -24 -9 -24 8 0 15 4 15 8 0 12 51 36 69 33 7 -1 10 2 6 9 -4 6 -13 9 -20 6 -8 -3 -16 0 -18 7 -2 7 -7 2 -11 -10z"/> <path d="M1959 650 c-6 -31 -4 -52 5 -57 6 -3 8 -3 4 2 -4 4 -3 14 4 22 8 10 8 17 0 25 -7 7 -12 10 -13 8z"/> <path d="M2261 636 c-8 -10 -9 -16 -1 -21 13 -8 30 3 30 21 0 18 -14 18 -29 0z"/> <path d="M2867 643 c-8 -13 2 -43 14 -43 10 0 10 8 0 34 -5 12 -10 16 -14 9z"/> <path d="M2976 626 c-4 -16 0 -17 25 -12 26 5 29 3 24 -13 -3 -11 -1 -22 5 -26 5 -3 10 3 10 14 0 11 5 23 11 26 20 13 2 30 -34 30 -27 0 -37 -5 -41 -19z"/> <path d="M1676 623 c-4 -9 -2 -21 4 -27 7 -7 10 -2 10 17 0 31 -5 34 -14 10z"/> <path d="M3240 623 c0 -14 6 -23 15 -23 9 0 15 -9 15 -22 0 -19 -2 -20 -10 -8 -8 12 -10 10 -10 -8 0 -13 4 -21 9 -17 5 3 12 -4 16 -14 4 -12 12 -18 21 -14 9 3 14 -2 14 -15 0 -17 5 -19 29 -16 23 4 33 -1 50 -24 12 -17 18 -38 15 -53 l-5 -24 11 25 c14 32 -3 66 -45 87 -41 21 -85 63 -85 82 0 9 -9 27 -20 41 -20 25 -20 25 -20 3z"/> <path d="M1360 616 c0 -8 -7 -16 -15 -18 -10 -2 -7 -6 9 -14 31 -14 50 -3 41 25 -7 23 -35 29 -35 7z"/> <path d="M2194 622 c-6 -4 -11 -21 -10 -39 1 -28 4 -31 24 -26 18 4 21 2 16 -13 -5 -18 -5 -18 10 0 23 28 20 39 -9 32 -20 -5 -25 -3 -25 12 0 26 11 34 27 21 10 -9 13 -8 13 5 0 16 -26 21 -46 8z"/> <path d="M1050 610 c0 -5 5 -10 11 -10 8 0 7 -5 -1 -15 -11 -13 -15 -13 -22 -3 -8 10 -11 10 -15 1 -2 -7 -11 -13 -19 -13 -16 0 -19 -26 -4 -35 6 -3 13 1 16 9 4 11 12 13 29 6 25 -9 42 1 31 19 -4 5 5 8 18 7 17 -2 23 1 19 10 -3 8 -9 11 -14 8 -5 -3 -6 2 -3 10 5 12 0 16 -20 16 -14 0 -26 -4 -26 -10z"/> <path d="M1120 614 c0 -12 54 -119 62 -122 4 -2 4 -11 -1 -21 -8 -14 -5 -17 16 -16 24 0 48 25 25 25 -6 0 -13 -6 -15 -12 -3 -7 -6 -1 -6 14 -1 14 -6 28 -11 30 -6 2 -12 12 -14 23 -7 31 -36 85 -47 85 -5 0 -9 -3 -9 -6z"/> <path d="M2135 599 c4 -17 23 -59 28 -59 1 0 1 17 -1 38 -2 24 -9 39 -17 39 -7 0 -12 -8 -10 -18z"/> <path d="M2290 580 c-17 -41 -6 -50 14 -11 18 35 19 41 7 41 -5 0 -14 -14 -21 -30z"/> <path d="M1415 589 c-10 -15 3 -25 16 -12 7 7 7 13 1 17 -6 3 -14 1 -17 -5z"/> <path d="M2800 591 c0 -6 6 -11 14 -11 8 0 18 -5 22 -11 4 -8 0 -9 -15 -4 -12 4 -21 2 -21 -4 0 -6 5 -11 10 -11 6 0 10 -6 10 -13 0 -17 36 -38 54 -31 15 6 15 15 -2 57 -6 15 -18 27 -26 27 -8 0 -21 3 -30 6 -9 3 -16 1 -16 -5z"/> <path d="M3089 593 c0 -5 -2 -23 -3 -40 -3 -26 0 -33 13 -33 9 0 22 5 29 12 9 9 12 8 12 -7 1 -19 1 -19 11 -2 12 20 4 37 -17 37 -8 0 -14 9 -14 20 0 18 -29 30 -31 13z"/> <path d="M1975 579 c-10 -15 3 -25 16 -12 7 7 7 13 1 17 -6 3 -14 1 -17 -5z"/> <path d="M1488 558 c-3 -7 -16 -12 -31 -10 -18 1 -28 -4 -32 -18 -7 -22 1 -40 16 -40 6 0 8 4 5 9 -3 5 1 15 10 22 12 10 17 10 23 1 4 -7 15 -10 25 -6 16 6 17 4 7 -15 -7 -12 -16 -19 -21 -16 -4 3 -6 -4 -3 -14 5 -18 6 -18 24 -3 10 9 19 25 19 36 0 16 3 17 12 8 10 -10 10 -17 0 -32 -7 -11 -8 -20 -3 -20 20 0 28 64 11 90 -9 13 -11 13 -20 0 -9 -13 -12 -13 -24 3 -10 13 -15 15 -18 5z"/> <path d="M1635 560 c-3 -5 0 -10 7 -10 11 0 11 -2 0 -9 -8 -5 -11 -17 -7 -33 4 -15 2 -29 -4 -32 -6 -4 -11 -16 -11 -27 0 -10 -4 -19 -10 -19 -5 0 -10 12 -10 28 0 19 -3 23 -9 13 -12 -19 -2 -50 20 -62 16 -8 21 -5 30 18 8 22 12 25 20 13 8 -12 10 -10 6 8 -5 22 1 26 37 22 11 -1 15 3 12 9 -4 6 -14 11 -21 11 -8 0 -19 9 -25 19 -14 27 -13 30 9 24 13 -3 20 2 24 17 4 16 2 19 -7 11 -7 -6 -17 -6 -26 -1 -19 12 -27 12 -35 0z"/> <path d="M2017 551 c3 -12 9 -21 14 -21 14 0 11 16 -5 29 -12 10 -13 8 -9 -8z"/> <path d="M2956 539 c-24 -24 -14 -66 19 -79 35 -13 31 -21 -6 -13 -44 9 -34 -16 13 -33 34 -11 35 -11 30 8 -3 11 -1 23 5 27 11 7 43 53 43 62 0 3 -12 4 -26 1 -16 -3 -21 -7 -14 -12 25 -15 -8 -20 -36 -5 -25 13 -26 19 -3 17 6 -1 5 35 -2 42 -2 2 -12 -5 -23 -15z"/> <path d="M937 535 c-11 -7 -25 -11 -32 -9 -7 3 -15 -4 -18 -15 -3 -14 -1 -18 9 -14 8 3 14 -1 14 -11 0 -9 -4 -16 -10 -16 -17 0 -11 -36 9 -54 15 -14 20 -14 29 -3 13 16 6 28 -12 21 -8 -3 -10 10 -8 41 4 45 21 54 23 12 1 -18 2 -17 9 6 5 16 14 35 21 43 16 19 -9 19 -34 -1z"/> <path d="M1397 529 c-4 -16 -3 -18 9 -8 16 13 19 29 5 29 -5 0 -11 -9 -14 -21z"/> <path d="M1718 533 c-6 -22 0 -43 13 -43 11 0 12 31 0 48 -6 11 -9 10 -13 -5z"/> <path d="M1769 533 c-13 -16 -12 -17 3 -5 20 16 34 -1 14 -17 -8 -7 -12 -21 -8 -33 4 -18 2 -20 -16 -16 -12 4 -26 0 -33 -8 -16 -20 19 -19 57 1 16 8 26 15 22 15 -4 0 -3 11 2 25 7 18 5 28 -6 40 -19 19 -19 19 -35 -2z"/> <path d="M1035 510 c-4 -16 -15 -32 -26 -35 -20 -7 -26 -39 -9 -50 6 -3 10 5 10 19 0 15 7 27 19 31 23 7 43 65 22 65 -5 0 -12 -13 -16 -30z"/> <path d="M1131 532 c0 -7 -5 -10 -11 -7 -5 3 -10 -3 -10 -14 0 -11 -5 -23 -11 -26 -6 -5 -2 -13 11 -22 25 -17 38 -10 21 11 -9 10 -9 15 0 18 6 2 9 15 6 28 -2 14 -5 19 -6 12z"/> <path d="M1338 529 c-10 -5 -18 -16 -18 -24 0 -7 -6 -16 -12 -19 -7 -3 0 -3 17 0 35 7 31 3 39 32 8 24 1 27 -26 11z"/> <path d="M1987 527 c-11 -29 -9 -43 4 -30 6 6 9 19 7 29 -3 18 -4 18 -11 1z"/> <path d="M970 515 c-10 -12 -10 -19 -2 -27 17 -17 37 5 25 27 -9 15 -11 15 -23 0z"/> <path d="M1590 505 c0 -8 5 -15 10 -15 6 0 10 7 10 15 0 8 -4 15 -10 15 -5 0 -10 -7 -10 -15z"/> <path d="M3190 502 c0 -8 5 -10 13 -5 6 4 18 8 25 9 29 5 24 14 -6 12 -19 -1 -32 -8 -32 -16z"/> <path d="M2040 487 c0 -15 37 -53 44 -46 2 2 -7 17 -20 32 -14 16 -24 22 -24 14z"/> <path d="M2773 474 c-18 -14 -33 -32 -33 -39 0 -9 -14 -15 -36 -17 -32 -3 -37 -7 -40 -30 -1 -16 -6 -37 -9 -49 -6 -17 -3 -20 11 -17 23 4 31 37 12 49 -9 6 -7 9 10 9 13 0 22 6 22 15 0 8 9 15 20 15 11 0 20 5 20 10 0 6 4 10 9 10 14 0 4 -132 -11 -141 -9 -6 -7 -9 9 -9 19 0 22 7 28 63 3 34 4 76 1 94 -3 21 0 33 10 37 8 3 14 -1 14 -11 0 -13 3 -13 15 -3 8 7 15 19 15 26 0 22 -32 16 -67 -12z"/> <path d="M2860 485 c-16 -20 8 -31 27 -13 13 14 13 16 0 21 -9 3 -21 0 -27 -8z"/> <path d="M3227 494 c-9 -10 4 -34 19 -34 8 0 14 4 14 9 0 12 -26 32 -33 25z"/> <path d="M1380 465 c-8 -10 -16 -12 -19 -6 -4 6 -12 6 -21 1 -13 -8 -12 -10 3 -10 9 0 17 -4 17 -9 0 -5 9 -11 19 -14 12 -3 21 -15 23 -33 l4 -29 14 28 c15 31 27 35 32 10 3 -15 5 -15 10 -3 3 9 -4 22 -18 33 -19 14 -23 15 -18 2 3 -8 2 -15 -3 -15 -13 0 -35 39 -28 50 10 16 -1 12 -15 -5z"/> <path d="M3138 473 c-10 -2 -18 -13 -18 -24 0 -19 11 -25 24 -12 11 11 40 10 49 -2 4 -6 11 -4 17 5 18 27 -23 46 -72 33z"/> <path d="M2591 454 c0 -11 6 -29 14 -40 8 -10 15 -14 15 -7 0 6 3 19 6 27 4 12 2 15 -9 10 -10 -3 -17 1 -20 13 -4 16 -5 15 -6 -3z"/> <path d="M3052 445 c-16 -35 -15 -60 3 -75 12 -10 15 -10 15 4 0 22 16 20 43 -5 17 -15 18 -19 5 -14 -12 5 -18 2 -18 -8 0 -8 -6 -17 -12 -20 -7 -2 -9 -8 -5 -13 5 -5 15 -1 23 10 7 11 17 17 20 13 4 -3 -1 -13 -10 -22 -21 -21 -20 -23 7 -21 13 1 21 7 19 16 -3 11 0 11 12 0 14 -11 16 -8 16 23 0 28 -3 35 -15 31 -10 -4 -15 0 -15 15 0 14 -6 21 -19 21 -23 0 -43 23 -39 46 5 28 -18 27 -30 -1z"/> <path d="M1273 448 c2 -7 10 -12 17 -10 8 2 10 -3 6 -13 -3 -10 9 -30 36 -56 35 -34 42 -47 46 -90 4 -42 9 -52 29 -60 32 -12 32 -12 26 10 -3 13 3 23 19 32 12 6 26 17 30 23 12 18 9 -10 -4 -39 -9 -20 -9 -28 2 -38 10 -10 12 -9 7 4 -3 9 3 20 13 26 12 8 17 24 17 55 0 24 -2 35 -5 26 -2 -11 -13 -19 -28 -19 -33 -2 -36 -3 -59 -16 -11 -7 -14 -13 -7 -13 13 0 17 -20 4 -20 -12 0 -34 49 -27 60 3 5 12 7 19 4 8 -3 17 0 22 7 5 9 2 10 -9 6 -11 -4 -17 -1 -17 8 0 8 -5 15 -11 15 -6 0 -8 -7 -5 -16 5 -13 3 -14 -7 -6 -16 14 -22 66 -5 56 7 -4 8 -3 4 5 -10 15 -26 5 -27 -17 0 -10 -7 -3 -15 16 -8 17 -19 32 -24 32 -6 0 -10 6 -10 14 0 8 -7 17 -16 20 -23 9 -26 8 -21 -6z"/> <path d="M2850 440 c0 -5 -7 -7 -15 -4 -9 4 -15 0 -15 -10 0 -9 -4 -16 -10 -16 -5 0 -7 -7 -3 -15 5 -14 8 -13 19 4 8 11 24 21 36 23 28 4 36 28 9 28 -12 0 -21 -4 -21 -10z"/> <path d="M3227 435 c-4 -8 -2 -17 3 -20 6 -4 10 -4 10 -1 0 2 3 11 6 20 3 9 2 16 -4 16 -5 0 -12 -7 -15 -15z"/> <path d="M3260 441 c0 -5 7 -24 16 -42 9 -22 13 -25 9 -9 -4 14 -7 33 -8 43 -1 17 -17 25 -17 8z"/> <path d="M3330 433 c0 -10 4 -24 9 -31 7 -11 9 -11 14 2 3 8 2 18 -4 21 -5 4 -7 11 -4 16 4 5 1 9 -4 9 -6 0 -11 -8 -11 -17z"/> <path d="M722 396 c1 -19 -5 -43 -12 -53 -29 -35 -38 -60 -29 -74 5 -8 9 -9 9 -4 0 6 5 3 10 -5 8 -12 10 -11 10 8 0 12 6 25 14 28 8 3 19 19 25 36 8 24 7 33 -5 45 -9 9 -13 24 -11 34 3 11 1 19 -4 19 -5 0 -9 -16 -7 -34z m0 -82 c-7 -12 -11 -13 -17 -4 -4 7 -2 16 6 21 18 11 23 4 11 -17z"/> <path d="M1036 415 c-9 -26 -7 -42 4 -25 8 13 10 12 10 -4 0 -15 3 -16 15 -6 13 10 15 9 15 -9 0 -29 12 -26 28 6 16 36 15 46 -4 39 -9 -4 -23 -1 -30 5 -11 9 -14 8 -14 -2 0 -12 -2 -12 -9 -1 -7 11 -10 10 -15 -3z"/> <path d="M1206 403 c-27 -27 -32 -38 -18 -47 5 -3 15 6 22 20 17 30 34 26 38 -9 2 -18 8 -24 18 -20 9 3 14 -1 14 -12 0 -9 5 -13 11 -10 7 5 3 15 -10 29 -12 12 -18 26 -14 29 3 4 -3 16 -14 27 -21 19 -21 19 -47 -7z"/> <path d="M1549 415 c-9 -9 -25 -17 -37 -18 -12 -1 -18 -5 -13 -10 5 -5 25 -5 45 -2 26 5 36 12 36 26 0 23 -11 24 -31 4z"/> <path d="M1959 430 c-5 -30 -4 -50 3 -50 4 0 8 -10 8 -22 0 -27 13 -15 16 15 1 18 -24 72 -27 57z"/> <path d="M2895 419 c-4 -6 2 -21 14 -33 16 -16 18 -25 9 -34 -8 -8 -5 -9 13 -5 13 4 27 11 31 16 10 16 -3 37 -23 37 -10 0 -19 7 -19 15 0 17 -16 20 -25 4z"/> <path d="M777 402 c-15 -17 -15 -20 -1 -40 11 -17 13 -26 5 -36 -10 -11 -18 -43 -20 -73 -1 -6 -14 -14 -31 -18 -16 -4 -30 -11 -30 -16 0 -13 24 -11 38 3 19 19 27 0 9 -20 -22 -24 -21 -27 3 -29 19 -2 22 4 24 55 1 9 14 23 29 29 16 7 26 17 23 22 -10 16 37 59 71 65 25 4 31 2 27 -8 -3 -8 -1 -17 4 -20 5 -3 12 5 14 19 3 13 2 22 -3 20 -4 -3 -10 -1 -14 5 -4 6 -11 7 -17 4 -6 -4 -23 -7 -39 -6 -22 0 -31 -6 -44 -34 -16 -35 -35 -45 -35 -20 0 8 7 21 15 29 11 11 12 22 4 51 -5 20 -11 36 -13 36 -2 0 -10 -8 -19 -18z"/> <path d="M2009 413 c-6 -56 -2 -88 10 -85 9 2 12 -4 8 -18 -3 -11 -1 -20 4 -20 16 0 10 49 -7 58 -11 6 -13 11 -5 16 14 9 15 56 1 56 -5 0 -10 -3 -11 -7z"/> <path d="M3300 403 c0 -10 5 -25 10 -33 8 -12 10 -9 10 12 0 15 -4 30 -10 33 -5 3 -10 -2 -10 -12z"/> <path d="M944 396 c-10 -8 -17 -17 -14 -20 10 -9 48 5 54 20 7 18 -15 18 -40 0z"/> <path d="M1702 393 c1 -5 -4 -19 -11 -32 -13 -24 -1 -55 13 -32 4 6 2 11 -4 11 -8 0 -8 6 0 20 7 13 16 17 28 13 15 -6 15 -5 3 10 -14 17 -33 23 -29 10z"/> <path d="M2048 375 c-3 -16 -1 -25 7 -25 8 0 10 9 7 25 -2 14 -6 25 -7 25 -1 0 -5 -11 -7 -25z"/> <path d="M2861 387 c-6 -8 -12 -23 -14 -35 -2 -12 -9 -28 -15 -34 -18 -18 -14 -27 8 -21 11 3 20 9 20 14 0 4 9 17 21 28 20 19 11 40 -12 25 -8 -4 -8 0 0 15 13 24 9 28 -8 8z"/> <path d="M1586 364 c-17 -12 -17 -14 -4 -14 9 0 20 5 23 11 11 17 2 18 -19 3z"/> <path d="M1123 345 c-23 -12 -45 -20 -49 -16 -4 3 1 -6 11 -21 9 -16 13 -28 7 -28 -6 0 -12 6 -15 13 -2 6 -8 8 -13 4 -5 -5 2 -18 16 -29 14 -11 24 -25 22 -30 -4 -15 21 -4 26 12 3 7 0 10 -6 6 -6 -3 -13 -2 -17 4 -3 5 -2 10 3 10 5 0 7 15 5 33 -3 26 -1 28 6 12 9 -19 10 -19 10 3 1 23 21 32 21 9 0 -7 16 -21 35 -30 19 -9 35 -12 35 -7 0 6 -4 10 -10 10 -18 0 -50 39 -44 55 7 18 8 19 -43 -10z"/> <path d="M1515 360 c-3 -5 1 -10 9 -10 10 0 13 -6 10 -15 -5 -11 1 -15 25 -15 17 0 31 5 31 10 0 6 -9 10 -19 10 -10 0 -21 7 -25 15 -6 17 -22 20 -31 5z"/> <path d="M1620 355 c0 -8 0 -17 0 -20 0 -16 14 -6 16 13 2 12 -1 22 -6 22 -6 0 -10 -7 -10 -15z"/> <path d="M2705 350 c-3 -5 -1 -10 4 -10 15 0 14 -27 -1 -33 -7 -3 -3 -6 10 -6 19 -1 22 4 20 29 -2 29 -20 40 -33 20z"/> <path d="M3187 333 c-7 -37 0 -42 12 -9 15 39 22 32 15 -16 -5 -30 -4 -39 4 -34 7 4 12 18 12 32 0 26 31 47 38 26 2 -7 10 -12 18 -12 8 0 14 -7 14 -15 0 -8 9 -15 20 -15 11 0 20 5 20 11 0 6 7 8 16 5 9 -3 14 -1 12 5 -2 6 -7 10 -12 9 -5 -1 -13 4 -18 12 -7 10 -8 9 -4 -4 7 -24 -19 -23 -36 1 -8 11 -32 21 -59 25 -45 7 -47 6 -52 -21z"/> <path d="M1001 341 c-19 -12 -3 -34 20 -28 11 3 19 1 19 -5 0 -5 5 -6 10 -3 15 9 12 25 -5 25 -8 0 -15 5 -15 10 0 12 -10 13 -29 1z"/> <path d="M1306 306 c-4 -19 -12 -36 -18 -38 -6 -2 -8 -10 -4 -16 10 -17 26 -15 26 3 0 8 4 15 9 15 11 0 11 59 1 65 -4 3 -11 -11 -14 -29z"/> <path d="M1647 313 c-2 -5 -1 -17 3 -27 6 -19 7 -19 12 2 6 21 -6 40 -15 25z"/> <path d="M2060 312 c0 -4 9 -8 20 -9 11 -1 18 2 15 8 -7 11 -35 12 -35 1z"/> <path d="M2340 303 c11 -8 25 -11 30 -8 18 11 10 20 -20 21 -29 1 -29 1 -10 -13z"/> <path d="M2974 314 c-6 -2 -8 -18 -6 -34 2 -17 -1 -36 -7 -44 -9 -10 -7 -16 4 -26 9 -7 14 -19 11 -27 -3 -7 -1 -13 4 -13 6 0 10 9 10 21 0 12 4 18 11 13 7 -4 10 -1 7 7 -3 8 -11 13 -18 11 -9 -2 -10 10 -5 48 4 27 5 50 3 49 -1 0 -8 -3 -14 -5z"/> <path d="M1236 278 c-17 -15 -26 -31 -22 -35 4 -4 12 1 18 11 8 15 12 16 19 5 11 -19 21 -6 17 23 l-3 23 -29 -27z"/> <path d="M1554 302 c3 -5 -4 -23 -15 -40 -23 -39 -23 -42 -4 -42 9 0 20 -11 25 -25 6 -15 17 -25 29 -25 11 0 26 -3 34 -6 8 -3 17 2 20 10 5 12 0 14 -21 10 -22 -5 -31 0 -51 26 -15 22 -20 35 -13 42 7 7 16 2 27 -16 23 -35 37 -23 20 17 -8 19 -20 31 -29 29 -11 -2 -14 2 -10 13 3 8 1 15 -6 15 -6 0 -9 -4 -6 -8z"/> <path d="M1610 303 c1 -14 30 -48 30 -34 0 7 -7 19 -15 27 -8 9 -15 12 -15 7z"/> <path d="M2632 298 c-7 -7 -12 -18 -12 -25 0 -10 5 -10 25 -1 26 12 34 38 12 38 -7 0 -18 -5 -25 -12z"/> <path d="M3269 305 c-1 -5 -1 -13 -1 -16 1 -4 -6 -6 -15 -5 -9 0 -17 -3 -19 -9 -2 -5 10 -10 26 -11 17 -1 30 4 30 10 0 15 -19 43 -21 31z"/> <path d="M910 286 c0 -8 5 -18 10 -21 6 -3 10 1 10 9 0 8 -4 18 -10 21 -5 3 -10 -1 -10 -9z"/> <path d="M2795 280 c-9 -28 -4 -31 18 -15 15 11 15 14 3 24 -12 10 -16 8 -21 -9z"/> <path d="M973 283 c-7 -2 -13 -10 -13 -16 0 -8 3 -8 11 0 9 9 16 9 30 0 15 -10 40 -4 28 7 -9 8 -45 14 -56 9z"/> <path d="M2071 273 c2 -10 0 -28 -4 -39 -4 -12 -3 -33 2 -47 14 -35 3 -67 -23 -68 -15 -1 -17 -3 -4 -6 19 -5 31 -30 21 -45 -3 -6 -1 -8 5 -4 5 3 13 0 15 -6 3 -7 6 28 6 78 1 50 4 106 7 123 5 25 3 31 -10 31 -11 0 -16 -7 -15 -17z"/> <path d="M2860 281 c0 -11 42 -43 48 -37 4 5 -35 46 -43 46 -3 0 -5 -4 -5 -9z"/> <path d="M1165 267 c-11 -7 -23 -16 -27 -22 -9 -12 1 -27 15 -22 7 2 17 -5 24 -17 12 -20 12 -20 13 6 0 15 -5 30 -10 33 -8 5 -7 11 1 21 14 17 11 17 -16 1z"/> <path d="M3002 263 c4 -21 28 -29 28 -9 0 10 6 13 15 10 8 -4 15 -15 15 -25 0 -10 5 -19 10 -19 6 0 10 9 10 20 0 11 6 20 13 21 20 2 -36 17 -66 18 -22 1 -28 -3 -25 -16z"/> <path d="M3316 264 c-22 -21 -20 -27 4 -14 11 6 20 15 20 20 0 14 -6 12 -24 -6z"/> <path d="M2110 243 c0 -17 5 -35 10 -38 6 -3 10 4 10 17 0 17 3 19 9 9 6 -9 11 -10 15 -2 4 6 -1 14 -11 18 -10 4 -21 11 -25 17 -4 6 -8 -3 -8 -21z"/> <path d="M2747 250 c3 -11 0 -20 -6 -20 -6 0 -11 7 -11 15 0 20 -36 19 -44 -1 -4 -12 -1 -14 14 -9 20 6 28 -9 10 -20 -16 -10 -12 -35 5 -35 9 0 20 11 25 25 5 14 16 25 25 25 13 0 13 3 3 20 -7 11 -16 20 -19 20 -4 0 -5 -9 -2 -20z"/> <path d="M655 199 c2 -34 8 -66 13 -71 13 -13 23 47 12 76 -5 13 -7 26 -4 29 2 2 -2 9 -10 16 -12 10 -13 3 -11 -50z"/> <path d="M3090 217 c-14 -17 -24 -35 -22 -39 1 -4 -4 -8 -12 -8 -8 0 -16 5 -18 12 -3 7 -7 4 -12 -7 -4 -11 -4 -16 0 -12 4 4 13 -2 21 -13 8 -11 22 -20 31 -19 10 0 12 3 5 6 -7 2 -13 9 -13 14 0 4 8 5 17 2 12 -5 15 -2 10 10 -3 9 -2 19 3 22 4 3 10 -1 13 -7 2 -7 7 2 12 20 10 47 -5 55 -35 19z"/> <path d="M3332 225 c-14 -30 -12 -30 35 -5 21 11 30 20 21 20 -9 0 -23 2 -30 5 -9 4 -19 -4 -26 -20z"/> <path d="M970 229 c0 -8 35 -20 73 -25 15 -2 27 1 27 7 0 6 -7 9 -15 5 -8 -3 -15 -1 -15 4 0 5 -7 7 -15 4 -8 -4 -15 -1 -15 4 0 6 -9 10 -20 9 -11 -1 -20 -4 -20 -8z"/> <path d="M896 221 c-3 -5 1 -11 9 -15 9 -3 15 0 15 9 0 16 -16 20 -24 6z"/> <path d="M1231 221 c-17 -11 -5 -32 14 -24 8 3 15 0 15 -6 0 -6 4 -11 8 -11 13 0 11 34 -2 42 -14 10 -18 10 -35 -1z"/> <path d="M1294 203 c2 -15 8 -29 13 -30 6 -2 8 7 5 22 -6 35 -21 42 -18 8z"/> <path d="M2850 216 c0 -8 -6 -16 -12 -19 -7 -2 -10 -8 -6 -12 8 -9 38 18 38 34 0 6 -4 11 -10 11 -5 0 -10 -6 -10 -14z"/> <path d="M3160 217 c0 -8 -7 -20 -15 -27 -20 -17 -8 -33 20 -26 13 3 27 1 30 -4 5 -8 11 -8 20 0 17 14 26 -10 19 -53 l-6 -32 20 24 c16 20 20 21 25 7 4 -9 1 -16 -6 -16 -7 0 -3 -8 8 -16 14 -11 16 -18 8 -21 -7 -3 -13 -13 -13 -23 0 -11 -9 -20 -22 -23 -20 -4 -20 -4 4 -6 19 -1 29 5 33 19 3 11 11 20 16 20 5 0 9 8 9 18 0 10 6 24 13 31 10 11 8 13 -10 8 -20 -4 -22 0 -25 37 -2 33 -7 41 -23 42 -11 1 -35 2 -52 3 -25 1 -33 5 -33 20 0 11 -4 23 -10 26 -5 3 -10 0 -10 -8z"/> <path d="M3266 215 c-6 -17 9 -29 24 -20 14 9 12 22 -4 28 -8 3 -17 -1 -20 -8z"/> <path d="M2650 213 c0 -7 -7 -10 -16 -6 -14 5 -15 3 -5 -15 10 -19 41 -21 41 -3 0 12 -20 36 -20 24z"/> <path d="M1506 203 c-12 -12 -6 -65 7 -60 6 2 11 10 9 17 -2 8 3 10 13 7 8 -4 15 -3 15 1 0 12 -38 41 -44 35z"/> <path d="M1130 191 c0 -5 7 -16 15 -24 8 -8 11 -18 7 -22 -4 -5 -2 -5 5 -2 8 5 8 13 0 32 -12 25 -27 34 -27 16z"/> <path d="M3413 187 c-4 -8 -15 -17 -23 -20 -13 -5 -12 -6 1 -6 18 -1 45 26 36 35 -3 3 -9 -1 -14 -9z"/> <path d="M960 180 c0 -5 7 -10 15 -10 8 0 15 5 15 10 0 6 -7 10 -15 10 -8 0 -15 -4 -15 -10z"/> <path d="M1065 179 c-4 -6 -4 -13 -1 -16 3 -4 6 -1 6 5 0 6 7 9 17 5 11 -4 14 -3 9 5 -9 15 -23 15 -31 1z"/> <path d="M1330 182 c0 -11 46 -32 54 -25 7 7 -24 32 -41 33 -7 0 -13 -4 -13 -8z"/> <path d="M2112 130 c-1 -48 2 -59 8 -43 5 13 5 41 1 65 -9 42 -9 41 -9 -22z"/> <path d="M837 174 c7 -3 9 -13 6 -22 -6 -14 -5 -15 9 -2 16 15 7 31 -17 29 -5 0 -5 -3 2 -5z"/> <path d="M2760 161 c0 -11 5 -23 10 -26 6 -3 10 3 10 14 0 11 -4 23 -10 26 -5 3 -10 -3 -10 -14z"/> <path d="M2790 174 c0 -15 22 -44 30 -39 6 4 5 14 -3 25 -11 19 -27 27 -27 14z"/> <path d="M710 145 c0 -17 -4 -24 -12 -19 -7 4 -8 3 -4 -4 4 -6 13 -9 21 -5 17 6 20 39 5 48 -6 4 -10 -5 -10 -20z"/> <path d="M1445 147 c-17 -26 -39 -86 -34 -91 2 -2 16 -6 32 -10 25 -6 27 -5 15 13 -9 14 -15 17 -20 8 -16 -26 -17 3 -2 34 31 60 34 69 29 69 -2 0 -11 -10 -20 -23z"/> <path d="M1646 155 c-4 -10 1 -15 16 -15 17 0 18 2 8 15 -7 8 -14 15 -15 15 -2 0 -5 -7 -9 -15z"/> <path d="M1689 149 c5 -15 7 -30 4 -33 -4 -3 -1 -6 5 -6 22 0 24 23 3 44 l-22 21 10 -26z"/> <path d="M2906 162 c-7 -12 33 -54 45 -47 5 4 9 1 9 -5 0 -6 5 -8 11 -4 8 5 7 9 -1 14 -7 4 -10 15 -7 23 4 10 -2 17 -16 21 -30 8 -35 7 -41 -2z"/> <path d="M2726 146 c4 -10 -3 -16 -23 -18 l-28 -4 28 -12 c15 -6 27 -17 27 -24 0 -9 3 -9 12 0 10 10 10 15 -1 22 -12 7 -12 12 -3 23 12 13 7 27 -9 27 -5 0 -6 -6 -3 -14z"/> <path d="M940 142 c0 -4 11 -12 24 -18 19 -9 23 -9 19 1 -5 14 -43 28 -43 17z"/> <path d="M1380 130 c-8 -16 -8 -20 4 -20 16 0 29 27 16 35 -5 3 -14 -4 -20 -15z"/> <path d="M3325 140 c-7 -11 2 -30 13 -30 4 0 13 9 20 20 11 17 10 20 -7 20 -11 0 -23 -4 -26 -10z"/> <path d="M1575 114 c27 -25 84 -49 93 -39 3 3 -12 12 -34 21 -21 9 -41 19 -44 23 -3 4 -14 11 -24 15 -14 5 -12 -1 9 -20z"/> <path d="M3140 131 c0 -15 18 -23 25 -11 4 6 10 8 15 5 5 -3 11 -1 15 5 4 6 -6 10 -24 10 -17 0 -31 -4 -31 -9z"/> <path d="M1046 114 c-17 -12 -17 -14 -4 -14 9 0 20 5 23 11 11 17 2 18 -19 3z"/> <path d="M1320 113 c0 -23 22 -36 45 -27 11 5 13 2 9 -10 -7 -19 -9 -19 -37 -5 -18 9 -20 9 -10 -1 6 -7 9 -20 6 -29 -5 -13 -3 -14 8 -3 7 6 21 12 30 12 30 0 28 27 -2 56 -25 24 -29 25 -24 9 7 -20 6 -20 -9 -1 -16 20 -16 20 -16 -1z"/> <path d="M1486 123 c-3 -4 -6 -15 -6 -25 0 -15 5 -18 21 -13 14 5 25 2 31 -6 6 -10 8 -7 6 10 -3 23 -39 46 -52 34z"/> <path d="M780 109 c0 -4 11 -6 25 -6 14 0 25 3 25 8 0 5 -11 8 -25 7 -14 -1 -25 -5 -25 -9z"/> <path d="M927 113 c-4 -3 3 -14 15 -24 27 -24 31 -24 18 0 -12 24 -25 33 -33 24z"/> <path d="M1117 108 c-16 -12 -15 -13 8 -13 14 0 25 6 25 13 0 6 -4 12 -8 12 -5 0 -16 -6 -25 -12z"/> <path d="M2813 104 c-18 -8 -33 -21 -33 -29 0 -18 1 -18 33 -6 13 5 27 19 30 30 3 12 4 21 4 20 -1 0 -17 -7 -34 -15z"/> <path d="M3038 101 c-22 -22 -22 -28 -3 -28 8 0 15 7 15 15 0 8 6 12 15 8 9 -3 15 0 15 9 0 20 -21 18 -42 -4z"/> <path d="M670 83 c0 -14 -3 -23 -7 -20 -8 9 -33 -12 -33 -28 0 -8 8 -11 20 -8 11 3 18 9 15 13 -2 4 5 16 15 28 24 25 24 28 5 36 -11 4 -15 -2 -15 -21z"/> <path d="M2894 99 c-3 -6 -1 -15 5 -20 6 -5 9 -6 6 -3 -3 4 0 13 6 21 8 9 8 13 1 13 -6 0 -14 -5 -18 -11z"/> <path d="M3136 103 c-12 -12 -6 -41 10 -47 20 -8 34 1 34 19 0 16 -34 38 -44 28z"/> <path d="M2600 83 c0 -5 4 -15 10 -23 11 -18 25 -7 17 15 -6 15 -27 21 -27 8z"/> <path d="M3350 80 c11 -9 12 -13 3 -17 -18 -7 -16 -23 2 -23 8 0 15 -8 16 -17 0 -10 3 -13 5 -6 3 7 13 9 22 6 14 -5 15 -3 5 8 -18 18 -16 29 5 29 14 1 15 2 2 9 -8 5 -28 11 -45 15 -23 5 -27 4 -15 -4z"/> <path d="M1018 55 c-3 -14 -1 -25 3 -25 5 0 9 11 9 25 0 14 -2 25 -4 25 -2 0 -6 -11 -8 -25z"/> <path d="M1703 64 c0 -7 6 -15 14 -18 7 -3 13 1 13 8 0 8 -6 16 -13 19 -8 3 -14 -1 -14 -9z"/> <path d="M775 50 c-3 -5 1 -10 10 -10 9 0 13 -4 10 -10 -3 -5 -1 -10 4 -10 13 0 13 3 5 24 -7 18 -20 21 -29 6z"/> <path d="M2695 50 c-3 -5 -3 -10 1 -10 4 0 -1 -9 -11 -20 -18 -20 -17 -20 7 -20 17 0 27 7 31 20 6 22 -17 48 -28 30z"/> <path d="M703 31 c-3 -13 -11 -20 -19 -17 -8 3 -14 1 -14 -4 0 -6 7 -10 15 -10 16 0 40 38 30 48 -3 3 -8 -4 -12 -17z"/> <path d="M3066 42 c-3 -5 17 -16 44 -26 42 -15 52 -16 69 -4 18 13 16 14 -25 14 -25 1 -50 6 -57 13 -13 13 -24 14 -31 3z"/> <path d="M1300 22 c0 -14 6 -22 16 -22 14 0 15 3 3 18 -7 9 -15 19 -16 21 -2 2 -3 -5 -3 -17z"/> <path d="M2643 32 c-7 -4 -9 -13 -4 -21 6 -10 10 -9 15 5 8 20 4 25 -11 16z"/> </g> </svg> 