<?xml version="1.0" encoding="utf-8"?>
<svg xmlns="http://www.w3.org/2000/svg" viewBox="0 0 450 450" xmlns:bx="https://boxy-svg.com" width="450px" height="450px"><defs><bx:export><bx:file format="svg" path="top-7-light-blue.svg"/><bx:file format="svg" href="#object-0" path="top-7-camel.svg"/></bx:export></defs><g transform="matrix(0.1, 0, 0, -0.100238, -0.000001, 678.61146)" fill="#ffffff" stroke="none" id="object-0"><path d="M1790 3640 c0 -13 11 -13 30 0 12 8 11 10 -7 10 -13 0 -23 -4 -23 -10z" style="fill: rgb(102, 155, 188);"/><path d="M2734 3616 c10 -9 23 -13 28 -10 5 3 15 0 23 -6 10 -8 15 -9 15 -2 0 10 -15 17 -65 28 -20 5 -20 5 -1 -10z" style="fill: rgb(102, 155, 188);"/><path d="M2000 3601 c0 -15 23 -26 28 -13 2 7 8 10 13 6 5 -3 9 0 9 5 0 6 -11 11 -25 11 -14 0 -25 -4 -25 -9z" style="fill: rgb(102, 155, 188);"/><path d="M2876 3595 c-4 -10 -13 -14 -29 -10 -13 4 -54 -2 -93 -13 -38 -10 -76 -17 -84 -14 -13 4 -13 3 0 -11 8 -8 24 -16 35 -18 23 -2 57 10 51 20 -2 3 15 6 39 7 24 0 57 7 75 14 28 11 36 10 73 -8 25 -12 55 -20 72 -17 17 2 50 4 75 5 35 1 40 3 25 10 -19 8 -19 9 3 9 13 1 21 5 18 10 -4 5 2 8 11 6 10 -2 61 -6 113 -9 74 -4 91 -3 75 6 -10 6 -43 11 -73 10 -29 -1 -50 2 -48 7 3 5 -22 7 -57 6 -77 -4 -75 -3 -57 -15 9 -6 10 -10 3 -10 -21 0 -43 12 -37 21 3 5 -4 9 -15 9 -13 0 -21 -7 -21 -16 0 -13 -7 -15 -31 -10 -17 3 -36 6 -41 6 -5 0 -6 5 -3 10 4 6 -10 10 -33 10 -27 0 -42 -5 -46 -15z" style="fill: rgb(102, 155, 188);"/><path d="M576 3593 c-11 -11 -6 -23 9 -23 8 0 15 4 15 9 0 13 -16 22 -24 14z" style="fill: rgb(102, 155, 188);"/><path d="M2468 3594 c25 -11 11 -21 -27 -18 -31 2 -38 -1 -34 -12 3 -9 -2 -14 -16 -14 -12 0 -21 -4 -21 -9 0 -5 -16 -21 -35 -35 -28 -22 -52 -28 -132 -37 -54 -6 -117 -13 -140 -16 -64 -7 -52 -23 18 -23 33 0 69 -5 80 -10 13 -8 19 -7 19 0 0 6 6 10 13 9 11 -2 24 2 73 21 14 5 26 4 33 -3 8 -8 14 -8 23 1 7 7 8 12 4 12 -5 0 -3 7 4 15 14 17 50 20 50 4 0 -6 -9 -13 -20 -16 -19 -5 -29 -23 -12 -23 31 1 50 14 46 33 -2 11 2 27 9 35 10 13 8 14 -13 8 -24 -7 -24 -6 -6 8 11 9 32 16 48 16 15 0 28 5 28 10 0 6 6 10 14 10 8 0 16 6 19 13 3 8 9 6 20 -8 10 -13 12 -25 6 -36 -7 -14 -5 -16 12 -12 13 4 17 8 9 13 -8 5 -7 12 5 24 20 20 39 21 54 2 14 -17 51 -9 51 10 0 8 -8 14 -18 14 -10 0 -22 3 -26 7 -3 4 -20 8 -37 9 -25 2 -28 0 -19 -11 9 -11 7 -14 -9 -12 -12 1 -21 6 -21 12 0 6 -15 11 -32 12 -18 1 -27 -1 -20 -3z" style="fill: rgb(102, 155, 188);"/><path d="M1690 3579 c0 -5 5 -7 10 -4 6 4 19 1 28 -7 15 -12 16 -11 3 5 -15 19 -41 23 -41 6z" style="fill: rgb(102, 155, 188);"/><path d="M515 3571 c7 -13 64 -41 82 -41 7 0 13 5 13 10 0 6 -10 10 -23 10 -13 0 -32 7 -43 15 -22 16 -38 20 -29 6z" style="fill: rgb(102, 155, 188);"/><path d="M1481 3548 c-13 -21 -13 -22 2 -10 9 8 22 10 29 6 10 -6 9 -3 -1 9 -17 21 -13 21 -30 -5z" style="fill: rgb(102, 155, 188);"/><path d="M1948 3562 c13 -4 24 -11 25 -17 2 -10 37 -15 37 -5 0 10 -48 30 -68 29 -11 -1 -9 -3 6 -7z" style="fill: rgb(102, 155, 188);"/><path d="M3140 3560 c0 -5 12 -12 28 -16 15 -3 33 -8 41 -10 7 -2 20 1 27 7 13 11 29 10 67 -6 12 -5 17 -3 17 8 0 8 -13 17 -31 21 -49 9 -149 7 -149 -4z" style="fill: rgb(102, 155, 188);"/><path d="M1650 3540 c-12 -8 -12 -10 5 -9 11 0 29 4 40 9 18 8 18 9 -5 9 -14 0 -32 -4 -40 -9z" style="fill: rgb(102, 155, 188);"/><path d="M3321 3526 c-24 -25 -61 -40 -61 -25 0 5 7 9 15 9 23 0 18 16 -5 17 -11 1 -20 -2 -20 -7 0 -5 -7 -7 -15 -4 -20 8 -19 -10 1 -31 18 -17 52 -12 70 11 11 14 44 9 44 -6 0 -5 -22 -28 -50 -51 -59 -50 -68 -91 -25 -111 14 -6 25 -14 25 -18 0 -3 6 -15 14 -25 12 -17 16 -17 30 -6 15 13 15 16 0 40 -9 14 -26 33 -37 43 -18 14 -19 19 -8 32 7 9 17 14 21 11 4 -3 10 2 14 10 3 8 11 12 19 9 8 -3 14 2 14 10 0 8 -4 13 -9 10 -4 -3 -8 0 -8 6 0 6 7 13 15 16 20 8 19 40 -1 48 -8 3 -13 10 -9 15 13 21 -14 19 -34 -3z" style="fill: rgb(102, 155, 188);"/><path d="M2646 3525 c4 -8 13 -15 22 -15 8 0 13 -3 10 -6 -3 -3 5 -17 18 -31 13 -14 24 -34 24 -44 0 -11 6 -19 13 -19 6 0 30 -25 51 -55 22 -30 43 -55 48 -55 5 0 6 5 3 10 -4 7 2 9 17 5 17 -4 38 5 81 37 31 23 57 47 57 54 0 6 7 17 15 24 13 11 18 10 29 -5 9 -12 15 -14 20 -7 4 6 -9 20 -32 33 -21 12 -48 38 -61 56 -22 34 -41 36 -41 5 0 -13 2 -14 8 -4 6 9 12 5 21 -14 10 -22 9 -28 -6 -40 -16 -12 -15 -13 11 -11 17 1 31 -4 34 -12 3 -9 -1 -11 -14 -8 -60 18 -72 18 -90 -1 -24 -24 -52 -34 -56 -20 -3 8 -11 7 -26 -1 -20 -11 -25 -9 -42 11 -11 13 -19 29 -20 37 0 16 -76 91 -91 91 -4 0 -6 -7 -3 -15z m295 -139 c-10 -25 -31 -36 -31 -16 0 11 32 51 37 46 2 -2 -1 -15 -6 -30z m-43 -17 c15 -24 8 -39 -10 -21 -8 8 -17 8 -30 1 -21 -11 -48 -6 -48 10 0 8 38 24 70 30 3 1 11 -8 18 -20z" style="fill: rgb(102, 155, 188);"/><path d="M2426 3511 c-4 -5 4 -7 16 -4 17 3 19 2 10 -5 -11 -7 -10 -10 3 -16 29 -11 36 -7 23 14 -13 21 -43 27 -52 11z" style="fill: rgb(102, 155, 188);"/><path d="M3097 3513 c-10 -10 23 -43 44 -43 36 0 49 11 38 31 -10 19 -67 27 -82 12z" style="fill: rgb(102, 155, 188);"/><path d="M1623 3503 c9 -2 25 -2 35 0 9 3 1 5 -18 5 -19 0 -27 -2 -17 -5z" style="fill: rgb(102, 155, 188);"/><path d="M2052 3502 c-20 -3 -21 -5 -6 -19 12 -12 22 -13 47 -5 25 8 27 10 10 11 -12 1 -23 4 -25 9 -1 4 -13 6 -26 4z" style="fill: rgb(102, 155, 188);"/><path d="M1730 3485 c-16 -9 -19 -14 -9 -15 8 0 24 7 35 15 24 18 7 19 -26 0z" style="fill: rgb(102, 155, 188);"/><path d="M2511 3487 c-9 -12 -8 -16 3 -20 19 -7 27 4 17 21 -6 10 -10 10 -20 -1z" style="fill: rgb(102, 155, 188);"/><path d="M2608 3493 c-10 -2 -18 -11 -18 -19 0 -17 -16 -19 -23 -1 -3 7 -6 5 -6 -5 -1 -10 -7 -18 -14 -18 -8 0 -22 -8 -31 -19 -15 -16 -15 -19 -1 -24 26 -11 17 -26 -20 -33 -19 -3 -72 -7 -118 -8 -72 -1 -82 -3 -79 -18 2 -11 -3 -18 -12 -18 -10 0 -13 -6 -10 -15 4 -8 1 -15 -5 -15 -6 0 -11 12 -11 26 0 14 -4 23 -10 19 -6 -4 -8 -10 -6 -14 3 -4 -1 -8 -9 -8 -14 0 -19 11 -16 30 1 5 -3 6 -9 2 -5 -3 -10 -20 -10 -37 0 -30 0 -30 -24 -14 -15 10 -27 12 -31 6 -8 -13 -45 -13 -45 -1 0 6 5 13 10 16 6 3 10 1 10 -5 0 -8 6 -8 20 0 21 11 28 40 9 40 -6 0 -19 -5 -30 -10 -12 -7 -19 -7 -19 -1 0 5 -8 12 -17 14 -17 4 -17 5 0 6 9 0 17 6 17 11 0 16 -15 12 -35 -10 -17 -19 -17 -20 0 -20 13 0 16 -6 13 -25 -4 -20 0 -25 26 -31 69 -15 156 -26 254 -31 89 -4 102 -7 102 -23 0 -24 19 -38 51 -38 15 0 36 -9 47 -20 21 -21 19 -32 -6 -32 -8 0 -21 -8 -28 -17 -7 -10 -16 -14 -20 -10 -5 4 -2 12 6 17 19 11 -86 10 -117 -1 -13 -5 -23 -17 -23 -28 0 -15 -9 -22 -35 -27 -19 -3 -36 -5 -38 -3 -2 2 -18 -8 -36 -24 -18 -15 -37 -25 -41 -22 -13 8 -50 -26 -50 -46 0 -25 71 -34 88 -12 11 16 12 16 12 0 0 -9 7 -17 15 -17 12 0 13 4 5 19 -14 26 -13 44 2 39 7 -3 13 -14 13 -26 0 -12 5 -21 10 -19 6 1 9 5 7 10 -1 4 3 7 10 7 6 0 3 6 -8 14 -10 8 -16 18 -11 22 4 4 13 2 19 -4 15 -15 68 -16 68 -1 0 5 -4 7 -10 4 -5 -3 -29 4 -52 15 -41 20 -41 21 -10 16 17 -3 32 -1 32 4 0 6 9 6 25 0 16 -6 25 -6 25 0 0 6 9 10 19 10 31 0 51 11 51 29 0 10 -3 12 -8 5 -4 -6 -25 -14 -47 -17 l-40 -6 25 19 c25 19 83 33 74 18 -3 -4 -1 -8 5 -8 6 0 8 -7 5 -15 -8 -19 10 -19 30 0 8 8 38 20 66 25 28 5 64 16 78 24 51 27 135 56 161 56 15 0 32 5 39 12 6 6 15 8 19 3 5 -4 2 -10 -4 -12 -7 -3 -13 -11 -13 -19 0 -16 -32 -25 -98 -27 -38 -2 -48 -5 -44 -16 3 -9 1 -12 -6 -7 -16 10 -54 -3 -46 -16 3 -5 15 -7 26 -4 11 2 31 -2 43 -10 20 -13 23 -13 28 1 4 8 15 15 25 15 10 0 23 5 30 12 9 9 12 8 12 -5 0 -9 5 -17 10 -17 6 0 8 -10 4 -24 -4 -16 -1 -25 10 -29 13 -5 15 -3 6 12 -8 16 -5 20 14 25 23 6 29 26 12 43 -4 4 -7 4 -6 -2 5 -23 -1 -34 -14 -29 -17 6 -29 44 -13 41 6 -1 16 10 23 24 8 14 26 31 41 38 15 7 42 20 58 28 17 9 46 18 65 20 19 3 38 10 42 17 6 8 8 8 8 -1 0 -21 31 -15 37 7 3 11 12 20 19 20 8 0 14 2 14 4 0 2 3 12 7 22 6 16 5 16 -23 1 -43 -25 -159 -61 -355 -111 -96 -24 -181 -47 -190 -51 -10 -4 -19 3 -27 20 -7 14 -15 24 -20 22 -4 -3 -18 -1 -31 4 -17 7 -22 15 -18 29 4 15 0 20 -13 20 -10 0 -25 6 -33 14 -10 10 -31 13 -77 10 -52 -4 -62 -3 -57 10 3 8 1 17 -6 20 -9 3 -8 8 3 15 22 16 29 13 25 -9 -3 -15 2 -20 20 -20 31 0 40 16 18 29 -16 9 -16 10 5 11 13 0 22 -6 22 -15 0 -8 7 -15 15 -15 8 0 13 6 11 13 -1 6 -1 9 1 5 11 -19 44 -5 70 27 18 23 40 37 61 41 18 4 39 15 45 25 18 29 35 23 32 -11 -3 -38 -13 -49 -25 -30 -18 29 -23 -2 -5 -33 19 -32 34 -47 47 -44 4 1 13 -5 20 -15 15 -19 76 -14 85 8 5 15 -92 144 -108 144 -6 0 -8 4 -5 8 8 14 -42 8 -56 -7 -10 -10 -10 -12 0 -7 6 4 12 3 12 -2 0 -16 -52 -25 -61 -11 -9 15 43 51 77 53 13 0 20 6 17 14 -5 12 -14 13 -45 5z m102 -145 c0 -17 -20 -47 -20 -31 0 6 -3 18 -6 27 -4 11 -1 16 10 16 9 0 16 -6 16 -12z" style="fill: rgb(102, 155, 188);"/><path d="M2417 3464 c-4 -4 -4 -19 0 -33 6 -23 5 -25 -11 -12 -9 8 -19 11 -23 7 -3 -3 -1 -6 6 -6 7 0 9 -4 6 -10 -4 -6 5 -10 20 -10 15 0 24 4 20 10 -3 6 2 10 12 11 15 0 14 2 -5 11 -13 7 -21 17 -18 25 6 14 3 17 -7 7z" style="fill: rgb(102, 155, 188);"/><path d="M1943 3454 c-7 -3 -9 -12 -6 -21 5 -13 0 -15 -25 -11 -19 3 -32 0 -32 -6 0 -6 -5 -4 -10 4 -5 8 -10 10 -10 4 0 -19 -76 -37 -132 -31 -30 3 -62 1 -71 -5 -10 -5 -44 -13 -76 -19 -89 -14 -176 -45 -174 -60 4 -20 -84 -22 -91 -3 -3 8 -1 14 4 14 6 0 10 -6 10 -12 0 -10 3 -9 9 1 5 8 16 11 30 6 12 -4 21 -2 21 4 0 11 -32 15 -105 13 -68 -2 -76 -3 -70 -12 3 -4 -4 -6 -16 -3 -16 4 -17 8 -7 14 8 5 -7 8 -37 6 -27 -1 -52 -5 -55 -8 -3 -3 -14 3 -25 14 -20 20 -20 20 3 14 13 -3 20 -1 16 5 -3 5 -20 6 -37 3 -24 -5 -28 -4 -17 4 12 9 11 11 -8 11 -16 0 -21 -4 -16 -12 4 -7 -1 -6 -12 3 -14 12 -38 17 -84 16 -36 0 -79 3 -96 7 -23 5 -36 3 -47 -8 -9 -9 -20 -16 -26 -16 -5 0 -13 -4 -16 -10 -6 -9 54 -13 167 -10 26 0 58 -5 70 -12 32 -17 50 -19 66 -6 9 8 16 8 25 -2 10 -10 9 -12 -5 -7 -22 8 -23 -6 -3 -23 19 -16 169 -18 188 -2 18 15 30 3 16 -15 -9 -10 -5 -12 22 -7 26 4 30 3 19 -5 -12 -9 -11 -11 10 -12 14 0 33 -2 42 -4 10 -2 23 4 29 13 7 12 12 14 15 5 8 -18 48 -17 41 0 -3 8 2 13 12 13 9 -1 16 3 16 9 0 5 -10 8 -22 7 -11 -2 -24 2 -28 7 -4 7 3 11 18 11 13 0 38 7 55 15 17 9 62 17 99 19 38 1 78 8 88 13 13 7 27 8 44 1 39 -14 122 -12 132 4 8 11 10 11 18 -1 7 -11 10 -9 16 8 7 22 25 25 60 12 11 -5 25 -4 33 1 9 8 12 5 12 -11 0 -12 6 -21 16 -21 8 0 12 -4 9 -10 -3 -6 1 -7 9 -4 20 8 21 24 1 24 -8 0 -19 9 -26 21 -7 15 -18 20 -34 17 -16 -3 -22 -1 -18 7 2 7 13 11 24 8 10 -3 19 0 19 6 0 6 -3 10 -7 10 -20 -3 -34 2 -28 11 7 11 6 11 -12 4z" style="fill: rgb(102, 155, 188);"/><path d="M2450 3451 c0 -5 11 -8 25 -8 13 0 22 3 19 8 -3 5 -14 9 -25 9 -10 0 -19 -4 -19 -9z" style="fill: rgb(102, 155, 188);"/><path d="M2000 3413 c1 -26 17 -31 40 -13 l25 20 -32 0 c-18 0 -33 -3 -33 -7z" style="fill: rgb(102, 155, 188);"/><path d="M2223 3405 c0 -7 10 -10 24 -7 13 2 23 8 23 12 0 4 -10 8 -23 8 -13 0 -24 -6 -24 -13z" style="fill: rgb(102, 155, 188);"/><path d="M3128 3406 c-73 -12 -99 -26 -49 -26 43 0 121 20 121 31 0 5 -1 8 -2 8 -2 -1 -33 -7 -70 -13z" style="fill: rgb(102, 155, 188);"/><path d="M1065 3400 c3 -5 13 -10 21 -10 8 0 12 5 9 10 -3 6 -13 10 -21 10 -8 0 -12 -4 -9 -10z" style="fill: rgb(102, 155, 188);"/><path d="M2147 3384 c22 -18 30 -32 28 -47 -4 -22 -4 -22 11 -2 14 19 15 37 1 36 -4 -1 -16 8 -27 19 -11 11 -25 20 -32 20 -6 0 2 -12 19 -26z" style="fill: rgb(102, 155, 188);"/><path d="M385 3390 c3 -6 17 -8 31 -6 13 3 24 0 24 -5 0 -5 5 -9 11 -9 8 0 8 5 -1 15 -14 17 -75 21 -65 5z" style="fill: rgb(102, 155, 188);"/><path d="M490 3390 c-12 -8 -9 -10 13 -10 15 0 27 5 27 10 0 13 -20 13 -40 0z" style="fill: rgb(102, 155, 188);"/><path d="M325 3379 c-20 -8 -20 -8 0 -9 11 -1 28 -3 38 -5 9 -2 17 -2 17 1 0 11 -38 20 -55 13z" style="fill: rgb(102, 155, 188);"/><path d="M1475 3383 c-35 -5 -59 -23 -29 -23 10 1 42 7 69 15 37 10 42 13 20 13 -16 -1 -43 -3 -60 -5z" style="fill: rgb(102, 155, 188);"/><path d="M3184 3381 c-16 -16 -134 -50 -149 -44 -8 3 -15 0 -15 -7 0 -8 -9 -10 -26 -6 -19 5 -24 4 -18 -5 5 -8 2 -10 -7 -7 -8 3 -24 -1 -34 -8 -18 -14 -18 -15 13 -12 17 1 32 5 32 8 0 3 8 6 18 7 26 2 185 54 196 64 5 5 7 11 5 14 -3 2 -10 1 -15 -4z" style="fill: rgb(102, 155, 188);"/><path d="M676 3368 c-10 -5 -34 -7 -54 -4 -34 5 -35 4 -10 -5 17 -6 43 -7 70 -2 27 6 37 11 27 15 -8 3 -23 1 -33 -4z" style="fill: rgb(102, 155, 188);"/><path d="M1908 3373 c9 -3 10 -9 2 -18 -8 -9 -4 -11 15 -7 16 3 25 0 25 -9 0 -7 3 -9 7 -6 3 4 13 1 22 -7 9 -7 31 -16 49 -18 27 -4 32 -1 32 16 0 12 -4 17 -8 11 -10 -14 -66 -19 -57 -6 3 6 -1 11 -9 11 -9 0 -16 5 -16 11 0 5 -4 8 -9 5 -5 -3 -14 1 -21 9 -7 8 -20 15 -29 14 -11 0 -12 -2 -3 -6z" style="fill: rgb(102, 155, 188);"/><path d="M1220 3355 c-16 -19 -11 -19 31 0 33 14 33 14 8 15 -15 0 -32 -7 -39 -15z" style="fill: rgb(102, 155, 188);"/><path d="M1324 3362 c3 -5 20 -9 38 -9 27 -1 29 1 13 7 -27 11 -57 12 -51 2z" style="fill: rgb(102, 155, 188);"/><path d="M2240 3363 c8 -3 21 -10 28 -16 8 -7 12 -5 12 7 0 11 -8 16 -27 15 -16 0 -22 -3 -13 -6z" style="fill: rgb(102, 155, 188);"/><path d="M2977 3364 c-8 -8 1 -24 14 -24 5 0 9 7 9 15 0 15 -12 20 -23 9z" style="fill: rgb(102, 155, 188);"/><path d="M150 3351 c-14 -4 -53 -6 -87 -4 -73 4 -85 -12 -17 -23 32 -5 49 -3 54 6 6 10 9 9 13 -1 5 -12 7 -12 15 0 5 7 14 11 20 7 6 -3 13 -2 17 4 4 6 11 8 16 5 5 -4 17 -1 26 4 16 9 15 10 -7 10 -14 -1 -36 -4 -50 -8z" style="fill: rgb(102, 155, 188);"/><path d="M286 3341 c-11 -4 -15 -10 -10 -13 5 -4 18 0 29 8 20 15 12 17 -19 5z" style="fill: rgb(102, 155, 188);"/><path d="M410 3342 c0 -5 6 -15 14 -21 11 -9 15 -9 19 1 3 10 7 9 11 -3 6 -15 11 -15 34 -4 22 11 41 11 111 0 46 -8 87 -18 90 -23 11 -18 45 -17 71 1 29 20 52 22 49 5 -4 -35 2 -46 21 -41 11 3 20 10 20 15 0 5 5 6 10 3 6 -3 10 -1 10 4 0 6 11 11 25 11 16 0 25 -6 25 -15 0 -8 9 -16 20 -16 11 -1 26 -2 33 -3 6 -1 11 5 9 12 -2 10 2 10 18 2 12 -7 20 -7 20 -1 0 15 -18 23 -58 26 -20 1 -45 5 -54 9 -9 4 -22 5 -27 1 -6 -3 -21 0 -33 6 -13 7 -84 17 -158 21 -74 5 -168 11 -207 14 -43 3 -73 1 -73 -4z" style="fill: rgb(102, 155, 188);"/><path d="M355 3324 c10 -8 23 -14 28 -14 5 0 6 -8 2 -17 -5 -15 -4 -16 7 -5 17 17 -2 47 -32 48 -23 1 -23 1 -5 -12z" style="fill: rgb(102, 155, 188);"/><path d="M1664 3323 c0 -10 -9 -20 -24 -24 -27 -8 -26 -10 7 -14 12 -1 24 4 27 12 3 8 11 11 17 8 6 -5 4 -12 -8 -21 -27 -20 6 -19 35 2 13 9 26 13 30 9 4 -4 -3 -14 -15 -22 -28 -19 -30 -37 -3 -30 12 3 23 -1 28 -9 7 -12 11 -12 27 -1 17 13 17 14 -9 21 -15 4 -26 12 -23 19 6 17 38 9 65 -16 12 -11 22 -15 22 -9 0 7 -4 12 -10 12 -5 0 -10 11 -10 24 0 31 -26 54 -42 38 -16 -16 -28 -15 -28 3 0 12 -4 13 -18 6 -20 -10 -40 -10 -58 2 -7 4 -11 0 -10 -10z" style="fill: rgb(102, 155, 188);"/><path d="M180 3317 l-25 -10 24 -5 c13 -2 28 1 33 6 15 15 -4 21 -32 9z" style="fill: rgb(102, 155, 188);"/><path d="M305 3321 c-6 -5 -25 -11 -44 -13 -52 -5 -49 -24 4 -24 27 0 46 5 49 13 3 8 12 10 23 6 16 -6 16 -5 4 10 -15 19 -23 21 -36 8z" style="fill: rgb(102, 155, 188);"/><path d="M1492 3322 c-9 -3 -9 -9 -2 -23 14 -25 30 -24 30 1 0 23 15 27 23 6 3 -7 19 -16 36 -18 27 -4 30 -2 25 14 -4 13 -1 16 10 12 9 -3 16 -2 16 3 0 9 -114 13 -138 5z" style="fill: rgb(102, 155, 188);"/><path d="M1830 3304 c0 -23 3 -26 25 -22 13 3 26 0 28 -6 2 -6 7 -8 11 -5 4 3 -9 18 -29 33 l-35 27 0 -27z" style="fill: rgb(102, 155, 188);"/><path d="M2493 3295 c-17 -19 -16 -25 5 -25 9 0 26 -7 36 -15 27 -21 47 -19 39 3 -17 47 -56 65 -80 37z" style="fill: rgb(102, 155, 188);"/><path d="M1923 3294 c9 -9 -25 -41 -47 -45 -11 -2 -21 -10 -24 -17 -3 -9 4 -11 25 -7 22 5 25 4 13 -5 -12 -9 -10 -10 9 -5 13 4 30 8 37 9 7 1 16 5 20 8 3 4 15 1 25 -5 16 -10 21 -9 29 3 6 9 10 10 10 3 0 -7 11 -10 28 -9 15 2 36 -1 47 -7 13 -7 20 -7 23 2 2 6 8 11 14 11 6 0 6 -6 -2 -15 -10 -13 -9 -15 9 -15 11 0 20 3 20 8 -3 19 2 26 10 13 5 -8 16 -11 26 -8 9 4 13 11 10 17 -3 5 1 10 10 10 9 0 13 5 10 10 -4 7 -34 9 -81 5 -45 -4 -74 -3 -74 3 0 6 -9 8 -20 5 -11 -3 -31 2 -45 11 -31 20 -45 20 -45 0 0 -8 -5 -12 -11 -9 -6 4 -8 13 -5 21 3 8 -1 14 -11 14 -9 0 -14 -3 -10 -6z" style="fill: rgb(102, 155, 188);"/><path d="M2576 3291 c-3 -5 1 -11 9 -15 8 -3 12 -12 9 -20 -8 -21 12 -29 36 -14 23 15 26 28 6 28 -7 0 -19 7 -26 15 -14 17 -26 19 -34 6z" style="fill: rgb(102, 155, 188);"/><path d="M6 3265 c4 -8 10 -12 15 -9 6 3 16 1 24 -6 10 -8 19 -8 34 0 30 16 26 23 -9 15 -19 -4 -30 -3 -30 4 0 6 -9 11 -20 11 -13 0 -18 -5 -14 -15z" style="fill: rgb(102, 155, 188);"/><path d="M1523 3272 c-8 -5 -9 -13 -3 -22 11 -17 23 -8 18 14 -2 9 -8 12 -15 8z" style="fill: rgb(102, 155, 188);"/><path d="M1626 3257 c-37 -30 -46 -68 -14 -62 26 5 37 15 16 15 -11 0 -14 6 -11 20 5 18 8 18 39 5 18 -7 36 -10 39 -5 3 5 -3 11 -14 15 -11 3 -21 12 -23 20 -2 12 -9 10 -32 -8z" style="fill: rgb(102, 155, 188);"/><path d="M2795 3269 c-22 -5 -44 -14 -49 -19 -5 -5 18 -2 50 6 87 23 87 33 -1 13z" style="fill: rgb(102, 155, 188);"/><path d="M885 3263 c4 -9 -3 -13 -24 -13 -23 0 -31 -5 -31 -17 0 -13 3 -14 12 -5 16 16 38 15 38 -2 0 -8 5 -18 12 -22 8 -5 9 -2 5 9 -3 10 -4 17 -1 17 2 0 8 -9 12 -21 8 -20 9 -20 20 6 10 21 10 26 0 23 -7 -3 -21 5 -31 16 -10 12 -16 15 -12 9z" style="fill: rgb(102, 155, 188);"/><path d="M1460 3251 c0 -20 -4 -22 -25 -17 -31 8 -66 -18 -39 -28 24 -9 31 -7 14 4 -11 7 -4 10 28 10 23 0 42 5 42 10 0 6 7 10 15 10 17 0 20 16 6 25 -5 3 -13 0 -17 -6 -4 -8 -9 -7 -15 2 -6 10 -9 7 -9 -10z" style="fill: rgb(102, 155, 188);"/><path d="M1566 3245 c-14 -13 -26 -22 -26 -20 0 2 -13 -1 -30 -6 -16 -6 -30 -15 -30 -20 0 -5 -7 -9 -15 -9 -8 0 -15 -4 -15 -10 0 -11 11 -13 34 -4 9 3 16 12 16 19 0 7 9 11 23 8 16 -3 31 5 55 31 37 41 29 49 -12 11z" style="fill: rgb(102, 155, 188);"/><path d="M3233 3258 c-28 -13 -30 -34 -4 -47 14 -8 22 -7 30 3 9 11 9 15 -1 20 -7 3 -3 3 10 0 12 -3 32 -2 44 2 21 6 21 7 3 20 -22 16 -51 17 -82 2z" style="fill: rgb(102, 155, 188);"/><path d="M625 3252 c-11 -2 -24 -9 -30 -16 -5 -7 -17 -15 -25 -19 -8 -3 -3 -5 13 -4 15 1 27 5 27 9 0 4 9 8 20 8 13 0 18 -5 14 -15 -6 -16 5 -18 43 -7 17 5 20 11 13 22 -6 10 -10 11 -10 3 0 -7 -8 -13 -17 -13 -15 0 -16 2 -3 10 13 8 13 10 -2 10 -9 0 -18 4 -20 8 -1 4 -12 6 -23 4z" style="fill: rgb(102, 155, 188);"/><path d="M772 3253 c-6 -2 -10 -9 -6 -14 5 -9 -9 -13 -33 -10 -7 1 -13 -5 -13 -14 0 -16 12 -20 24 -7 4 4 12 7 18 7 6 0 17 10 26 23 14 21 10 26 -16 15z" style="fill: rgb(102, 155, 188);"/><path d="M990 3250 c0 -5 -8 -10 -17 -11 -15 0 -15 -2 2 -8 11 -5 22 -4 23 0 5 14 16 11 83 -20 34 -16 70 -26 82 -23 17 4 14 7 -17 20 -20 8 -36 18 -36 23 0 5 -10 7 -23 4 -12 -3 -39 1 -60 10 -21 9 -37 11 -37 5z" style="fill: rgb(102, 155, 188);"/><path d="M168 3243 c-16 -2 -28 -8 -28 -13 0 -5 -14 -17 -32 -26 -42 -22 -61 -41 -48 -49 5 -3 10 -1 10 5 0 7 6 10 14 7 8 -3 16 -1 18 5 3 8 13 8 35 0 27 -9 31 -8 26 4 -8 22 14 16 31 -8 12 -17 16 -18 16 -6 0 18 29 30 80 33 54 3 110 15 110 24 0 8 -24 7 -93 -4 -25 -3 -36 -2 -32 5 4 6 -5 10 -19 10 -14 0 -26 5 -26 10 0 10 -12 11 -62 3z m67 -23 c21 0 26 -3 18 -11 -15 -15 -63 -15 -73 1 -4 7 -13 9 -20 5 -9 -6 -11 -4 -5 4 4 7 17 10 29 7 11 -3 34 -6 51 -6z" style="fill: rgb(102, 155, 188);"/><path d="M2663 3239 c-18 -5 -33 -14 -33 -19 0 -7 86 15 99 26 8 7 -34 2 -66 -7z" style="fill: rgb(102, 155, 188);"/><path d="M457 3221 l-37 -18 41 -12 c30 -9 45 -9 52 -2 8 8 3 11 -17 11 -15 0 -25 4 -21 10 3 6 21 10 40 10 19 0 37 5 40 10 10 16 -56 10 -98 -9z" style="fill: rgb(102, 155, 188);"/><path d="M1185 3230 c-18 -8 -17 -9 8 -9 15 -1 27 -4 27 -8 -1 -15 -27 -43 -34 -36 -4 4 -4 0 0 -10 3 -9 10 -17 14 -17 5 0 16 -3 26 -7 14 -5 15 -3 6 12 -7 14 -6 22 4 33 16 16 19 36 4 27 -6 -3 -13 1 -16 9 -7 18 -10 18 -39 6z" style="fill: rgb(102, 155, 188);"/><path d="M3074 3228 c-3 -4 1 -8 9 -8 8 0 18 -7 21 -16 8 -21 8 -22 -6 -21 -33 1 -48 -4 -48 -17 0 -8 -23 -21 -52 -31 -67 -21 -91 -34 -65 -35 9 0 17 -4 17 -9 0 -9 52 -2 60 9 12 18 135 73 163 73 30 1 46 11 47 30 0 5 -4 5 -10 2 -5 -3 -10 0 -10 7 0 10 -2 10 -9 -1 -12 -19 -82 -6 -75 14 4 9 -1 13 -16 12 -12 -1 -24 -5 -26 -9z" style="fill: rgb(102, 155, 188);"/><path d="M1267 3210 c3 -11 14 -20 24 -20 11 0 19 -5 19 -11 0 -5 4 -8 9 -5 4 3 17 -1 27 -8 13 -10 24 -11 37 -4 10 5 25 7 33 4 8 -3 14 -1 14 4 0 6 -3 10 -7 11 -44 4 -67 10 -73 19 -4 6 -14 8 -22 5 -8 -3 -22 0 -29 7 -23 21 -38 19 -32 -2z" style="fill: rgb(102, 155, 188);"/><path d="M3025 3219 c-4 -6 -5 -13 -2 -16 7 -7 27 6 27 18 0 12 -17 12 -25 -2z" style="fill: rgb(102, 155, 188);"/><path d="M786 3211 c-4 -5 0 -12 6 -14 7 -3 -3 -6 -22 -7 l-35 -2 37 -10 c28 -7 35 -14 31 -26 -4 -14 -3 -14 5 -3 5 7 8 21 7 30 -2 9 -4 22 -4 29 -1 14 -17 16 -25 3z" style="fill: rgb(102, 155, 188);"/><path d="M1647 3199 c-8 -29 -7 -30 29 -20 16 5 23 10 15 10 -8 1 -19 8 -26 17 -11 15 -13 15 -18 -7z" style="fill: rgb(102, 155, 188);"/><path d="M2345 3210 c-22 -9 -22 -10 16 -16 18 -3 29 1 33 11 6 17 -16 19 -49 5z" style="fill: rgb(102, 155, 188);"/><path d="M954 3195 c-4 -8 -14 -15 -24 -15 -20 0 -46 -27 -36 -37 4 -4 11 -1 16 7 5 8 15 15 22 15 7 1 24 7 36 14 29 16 32 13 20 -19 -7 -19 -11 -21 -17 -11 -7 10 -11 8 -17 -10 -4 -13 -7 -27 -6 -31 1 -5 -3 -8 -10 -8 -6 0 -8 -3 -5 -7 4 -3 16 2 28 13 12 10 23 18 25 17 2 -2 4 -1 5 2 0 2 4 19 10 37 6 23 5 34 -4 40 -19 12 -37 9 -43 -7z" style="fill: rgb(102, 155, 188);"/><path d="M1019 3189 c-9 -18 -7 -19 15 -13 20 5 26 2 26 -9 0 -9 5 -19 12 -23 7 -4 8 -3 4 4 -4 7 -3 12 2 12 21 0 6 28 -20 38 -24 9 -30 8 -39 -9z" style="fill: rgb(102, 155, 188);"/><path d="M1766 3201 c-14 -5 -16 -10 -7 -15 6 -4 18 -2 26 4 8 6 20 8 26 4 8 -4 9 -3 5 4 -8 13 -22 14 -50 3z" style="fill: rgb(102, 155, 188);"/><path d="M1945 3200 c3 -5 -3 -10 -15 -10 -12 0 -18 -4 -15 -10 3 -6 -5 -10 -19 -10 -14 0 -28 -5 -32 -12 -5 -7 -3 -8 5 -4 7 5 19 0 27 -10 14 -17 15 -17 10 -1 -4 13 0 17 17 17 12 0 35 7 51 15 16 9 31 13 34 10 3 -3 -1 -5 -9 -6 -8 -1 2 -5 21 -9 42 -10 58 -3 33 16 -16 12 -15 13 14 9 18 -2 38 -7 45 -11 10 -6 10 -4 0 9 -11 13 -27 16 -71 13 -32 -1 -64 -6 -71 -11 -9 -5 -11 -4 -6 3 4 7 1 12 -9 12 -9 0 -13 -4 -10 -10z" style="fill: rgb(102, 155, 188);"/><path d="M2955 3201 c3 -5 -1 -12 -7 -14 -8 -4 -7 -6 4 -6 23 -1 32 15 12 23 -8 3 -13 2 -9 -3z" style="fill: rgb(102, 155, 188);"/><path d="M550 3188 c0 -5 -4 -6 -10 -3 -5 3 -10 1 -10 -5 0 -7 8 -9 20 -5 11 4 20 2 20 -4 0 -6 5 -11 10 -11 19 0 10 28 -10 33 -11 3 -20 1 -20 -5z" style="fill: rgb(102, 155, 188);"/><path d="M837 3186 c-4 -9 -2 -16 4 -16 6 0 7 -4 4 -10 -11 -17 11 -11 35 10 17 15 19 20 7 20 -8 0 -22 3 -30 6 -8 3 -17 -2 -20 -10z" style="fill: rgb(102, 155, 188);"/><path d="M359 3170 c-31 -24 -17 -37 22 -23 17 7 38 9 46 6 10 -4 14 -2 10 5 -4 6 1 13 10 15 13 3 11 5 -7 7 -14 1 -32 3 -41 5 -8 1 -26 -5 -40 -15z" style="fill: rgb(102, 155, 188);"/><path d="M632 3178 c-8 -8 -9 -15 -1 -25 9 -10 7 -13 -10 -13 -11 0 -21 -4 -21 -8 0 -18 33 -7 47 15 18 27 6 52 -15 31z" style="fill: rgb(102, 155, 188);"/><path d="M2292 3181 c-8 -4 -19 -19 -26 -32 -6 -13 -20 -25 -30 -27 -11 -3 -16 0 -12 7 4 6 2 11 -4 11 -10 0 -31 -41 -24 -49 5 -5 72 28 79 39 4 6 11 8 16 5 5 -3 6 0 3 8 -3 8 2 17 10 20 9 4 16 11 16 17 0 12 -10 13 -28 1z" style="fill: rgb(102, 155, 188);"/><path d="M305 3170 c-3 -5 1 -10 9 -10 8 0 18 5 21 10 3 6 -1 10 -9 10 -8 0 -18 -4 -21 -10z" style="fill: rgb(102, 155, 188);"/><path d="M1589 3160 c-13 -10 -19 -19 -13 -20 7 0 22 9 35 20 13 10 19 19 13 20 -7 0 -22 -9 -35 -20z" style="fill: rgb(102, 155, 188);"/><path d="M2998 3169 c-27 -15 -21 -29 7 -16 14 7 25 15 25 20 0 10 -11 8 -32 -4z" style="fill: rgb(102, 155, 188);"/><path d="M0 3147 c0 -15 4 -27 10 -27 5 0 9 9 7 20 -5 31 -17 36 -17 7z" style="fill: rgb(102, 155, 188);"/><path d="M749 3165 c-3 -2 -18 -5 -35 -7 -16 -1 -38 -11 -49 -21 -20 -19 -20 -19 12 -3 38 19 57 21 47 4 -4 -7 3 -4 17 7 13 11 26 21 28 22 2 2 0 3 -6 3 -5 0 -12 -2 -14 -5z" style="fill: rgb(102, 155, 188);"/><path d="M490 3150 c0 -6 -10 -15 -22 -20 -19 -7 -17 -9 17 -9 29 0 34 3 21 8 -14 5 -16 10 -8 15 7 4 17 4 24 0 7 -4 8 -3 4 4 -9 15 -36 16 -36 2z" style="fill: rgb(102, 155, 188);"/><path d="M1717 3138 c-4 -14 2 -17 33 -15 22 1 36 5 33 11 -4 5 7 7 26 3 18 -4 30 -3 26 2 -3 5 1 12 7 14 7 3 -17 4 -54 4 -53 -2 -68 -5 -71 -19z" style="fill: rgb(102, 155, 188);"/><path d="M135 3142 c12 -8 12 -29 1 -55 -5 -11 -4 -23 2 -29 7 -7 10 -4 9 8 -1 13 4 19 16 18 14 -2 15 1 6 12 -6 8 -9 23 -6 34 4 15 0 20 -16 20 -12 0 -17 -4 -12 -8z" style="fill: rgb(102, 155, 188);"/><path d="M211 3130 c-9 -8 -17 -24 -19 -35 -3 -19 -3 -19 11 -1 9 12 28 20 53 21 70 4 71 4 55 14 -8 5 -20 7 -28 4 -7 -3 -13 0 -13 5 0 16 -39 10 -59 -8z" style="fill: rgb(102, 155, 188);"/><path d="M77 3133 c-11 -10 -8 -25 3 -18 15 9 12 -4 -5 -21 -8 -9 -23 -16 -33 -17 -20 -1 -35 -15 -40 -35 -3 -17 8 -15 27 6 20 22 60 26 68 6 6 -17 23 -9 23 13 0 9 -6 13 -15 9 -19 -7 -19 5 0 30 8 11 15 14 15 7 0 -7 6 -13 13 -13 6 1 1 10 -12 20 -25 21 -34 24 -44 13z" style="fill: rgb(102, 155, 188);"/><path d="M400 3124 l-35 -13 38 0 c26 -1 37 3 37 14 0 8 -1 14 -2 14 -2 -1 -19 -7 -38 -15z" style="fill: rgb(102, 155, 188);"/><path d="M767 3134 c-12 -13 -7 -20 13 -20 11 0 19 5 17 10 -4 13 -21 18 -30 10z" style="fill: rgb(102, 155, 188);"/><path d="M822 3115 c-13 -28 -9 -45 11 -45 8 0 8 3 -2 9 -16 10 -5 18 33 25 37 7 46 16 15 16 -14 0 -30 5 -35 10 -7 7 -14 2 -22 -15z" style="fill: rgb(102, 155, 188);"/><path d="M1435 3131 c-16 -3 -25 -9 -20 -13 14 -8 75 2 75 13 0 10 -10 10 -55 0z" style="fill: rgb(102, 155, 188);"/><path d="M1835 3123 c-19 -15 -19 -15 12 -10 18 4 35 2 38 -3 3 -6 14 -10 22 -10 14 0 13 4 -5 20 -25 24 -40 25 -67 3z" style="fill: rgb(102, 155, 188);"/><path d="M2151 3109 c-23 -22 -36 -28 -44 -20 -7 7 -14 5 -23 -7 -8 -10 -13 -12 -14 -4 0 6 -5 12 -11 12 -6 0 -9 -9 -6 -19 5 -20 -10 -31 -39 -31 -12 0 -13 4 -3 23 9 17 9 20 -1 10 -9 -9 -17 -9 -31 0 -15 9 -23 7 -44 -13 -14 -13 -25 -31 -26 -39 0 -12 -3 -11 -9 4 -8 19 -11 18 -14 -6 0 -6 -16 -17 -34 -25 l-33 -14 21 34 c15 25 17 35 8 38 -7 3 -20 -9 -29 -26 -9 -17 -23 -31 -30 -32 -15 -1 -30 -7 -99 -36 -25 -11 -58 -20 -73 -20 -16 -1 -31 -7 -34 -15 -8 -21 -30 -15 -37 10 l-7 22 -9 -21 c-4 -12 -15 -24 -24 -27 -9 -4 -13 -13 -10 -22 6 -16 31 -19 59 -9 13 5 14 8 3 15 -8 5 0 7 20 4 17 -2 32 1 32 6 0 5 7 9 15 9 18 0 19 -12 3 -28 -9 -9 -9 -12 1 -12 7 0 10 -4 7 -8 -3 -5 11 -7 30 -6 21 2 34 -1 34 -8 0 -9 3 -9 12 0 18 18 -20 44 -45 30 -10 -5 -21 -7 -24 -4 -3 3 2 8 11 12 9 3 14 10 11 14 -9 15 55 23 72 8 11 -9 14 -9 10 -1 -6 10 6 40 30 72 2 3 10 -4 17 -15 14 -18 15 -18 33 -1 24 21 63 23 63 2 0 -12 4 -13 19 -6 10 6 21 8 24 4 4 -3 13 0 22 7 16 13 12 49 -7 61 -13 8 2 39 19 39 12 0 13 -3 3 -15 -6 -8 -9 -19 -5 -26 6 -8 9 -8 15 1 6 9 13 9 31 -1 13 -7 31 -12 38 -10 8 1 20 -5 27 -14 7 -9 15 -12 18 -6 4 5 2 12 -4 16 -5 3 -10 14 -10 24 0 12 14 21 49 31 42 11 50 17 53 42 3 15 4 28 4 28 -1 0 -16 -14 -35 -31z m-201 -122 c0 -17 -52 -16 -58 1 -2 8 7 12 27 12 19 0 31 -5 31 -13z" style="fill: rgb(102, 155, 188);"/><path d="M674 3109 c-19 -21 -19 -21 9 -8 15 7 27 16 27 21 0 14 -16 9 -36 -13z" style="fill: rgb(102, 155, 188);"/><path d="M1620 3120 c8 -5 10 -10 3 -10 -6 0 -9 -9 -6 -21 4 -14 8 -17 13 -9 6 9 9 9 11 1 3 -7 12 -9 22 -5 16 6 16 8 -4 22 -17 11 -18 16 -8 23 10 6 5 9 -16 9 -23 0 -27 -3 -15 -10z" style="fill: rgb(102, 155, 188);"/><path d="M1920 3126 c0 -2 11 -6 25 -8 14 -3 25 -1 25 3 0 5 -11 9 -25 9 -14 0 -25 -2 -25 -4z" style="fill: rgb(102, 155, 188);"/><path d="M1680 3114 c1 -20 18 -34 48 -38 39 -4 43 11 5 20 -16 4 -34 11 -40 17 -7 5 -13 6 -13 1z" style="fill: rgb(102, 155, 188);"/><path d="M2622 3111 c-9 -6 -10 -14 -2 -32 l11 -24 -5 25 -5 25 19 -25 c11 -14 20 -21 20 -16 0 4 9 -2 19 -15 11 -13 23 -20 28 -16 4 5 -1 15 -11 23 -11 8 -14 14 -8 14 7 0 12 8 12 18 0 14 -2 15 -10 2 -10 -16 -12 -15 -28 15 -8 14 -12 16 -12 5 0 -11 -2 -12 -8 -3 -4 7 -13 9 -20 4z" style="fill: rgb(102, 155, 188);"/><path d="M520 3096 c0 -19 5 -20 30 -6 22 12 54 -14 46 -36 -6 -17 -1 -17 26 -3 16 8 24 8 35 -4 13 -13 13 -17 -4 -34 -23 -23 -19 -57 8 -50 12 3 19 0 19 -9 0 -8 5 -14 10 -14 6 0 10 9 10 20 0 11 -6 20 -14 20 -21 0 -26 26 -10 47 11 13 17 14 20 6 8 -18 24 -16 24 2 0 8 -9 15 -20 15 -18 0 -30 20 -12 20 4 0 18 3 31 7 20 5 23 3 18 -10 -4 -10 -2 -17 3 -17 6 0 10 5 10 10 0 6 7 10 16 10 13 0 14 3 5 14 -9 11 -20 12 -49 4 -20 -5 -41 -14 -46 -19 -14 -13 -26 -11 -23 4 1 7 -8 11 -26 10 -15 -1 -25 2 -23 6 3 4 0 8 -7 9 -7 1 -27 5 -44 8 -26 5 -33 3 -33 -10z" style="fill: rgb(102, 155, 188);"/><path d="M1457 3095 c-65 -14 -76 -20 -60 -36 7 -7 23 -8 45 -3 l33 8 -30 6 -30 6 36 5 c27 3 35 1 32 -8 -3 -7 2 -13 11 -13 9 0 16 7 16 15 0 8 5 15 10 15 6 0 10 5 10 10 0 12 2 12 -73 -5z" style="fill: rgb(102, 155, 188);"/><path d="M298 3092 c11 -7 10 -11 -5 -17 -16 -6 -16 -8 5 -16 13 -5 32 -5 47 1 16 6 27 6 31 -1 3 -6 17 -8 30 -5 13 4 24 3 24 -2 0 -5 6 -9 14 -9 8 0 13 10 12 22 -1 21 -20 26 -43 12 -6 -4 -13 -3 -15 2 -1 6 -28 13 -58 16 -35 4 -50 3 -42 -3z" style="fill: rgb(102, 155, 188);"/><path d="M482 3084 c-17 -18 -7 -34 21 -34 17 0 19 2 8 9 -8 5 -11 16 -8 25 8 20 -4 20 -21 0z" style="fill: rgb(102, 155, 188);"/><path d="M1540 3086 c0 -9 -14 -23 -30 -30 -17 -7 -27 -15 -24 -19 4 -3 14 -2 24 3 10 5 20 7 23 4 2 -3 22 2 43 11 30 12 35 18 24 25 -8 5 -18 6 -22 3 -5 -2 -15 1 -23 7 -12 10 -15 9 -15 -4z" style="fill: rgb(102, 155, 188);"/><path d="M2549 3095 c-1 -3 -3 -9 -4 -15 -1 -5 -3 -20 -4 -32 -1 -19 -3 -20 -11 -8 -5 8 -10 11 -10 5 0 -5 -4 -4 -9 4 -10 15 -41 8 -41 -10 0 -6 7 -8 16 -5 10 4 25 -1 35 -10 11 -10 19 -12 19 -6 0 6 15 25 33 43 17 17 27 28 20 25 -6 -3 -14 -2 -18 4 -6 10 -24 14 -26 5z" style="fill: rgb(102, 155, 188);"/><path d="M2792 3083 c-18 -2 -30 -9 -27 -14 8 -13 -9 -11 -22 2 -8 8 -13 8 -18 0 -3 -6 -3 -11 2 -10 4 1 17 -2 27 -6 12 -5 21 -5 23 1 2 6 16 9 32 6 20 -3 28 0 28 12 0 9 -3 15 -6 14 -3 0 -21 -3 -39 -5z" style="fill: rgb(102, 155, 188);"/><path d="M2904 3081 c4 -5 2 -11 -4 -13 -5 -2 -6 -9 -1 -17 5 -7 13 -11 19 -7 12 7 4 46 -10 46 -5 0 -7 -4 -4 -9z" style="fill: rgb(102, 155, 188);"/><path d="M2970 3066 c0 -9 -4 -15 -9 -13 -11 3 -15 -17 -4 -20 13 -5 34 35 23 42 -6 3 -10 -1 -10 -9z" style="fill: rgb(102, 155, 188);"/><path d="M546 3055 c-3 -9 0 -15 10 -15 9 0 12 -5 8 -12 -5 -7 -3 -8 5 -4 7 5 10 11 7 14 -3 3 -1 11 5 19 9 10 7 13 -9 13 -11 0 -22 -7 -26 -15z" style="fill: rgb(102, 155, 188);"/><path d="M1670 3054 c-14 -7 -18 -13 -10 -13 24 1 54 15 44 21 -5 4 -20 0 -34 -8z" style="fill: rgb(102, 155, 188);"/><path d="M156 3044 c-7 -18 43 -18 67 0 15 12 13 13 -22 13 -25 0 -42 -5 -45 -13z" style="fill: rgb(102, 155, 188);"/><path d="M957 3050 c-16 -5 -35 -6 -42 -4 -7 3 -16 0 -21 -7 -4 -7 -3 -10 3 -6 6 4 16 0 23 -8 10 -12 9 -15 -4 -15 -10 0 -25 4 -34 9 -29 16 -112 25 -112 12 0 -6 15 -11 33 -11 63 0 102 -22 60 -33 -10 -3 -3 -5 15 -6 22 -1 41 7 60 24 19 17 22 25 12 26 -8 0 -1 5 15 10 17 5 46 7 65 4 29 -4 31 -3 10 4 -32 11 -48 11 -83 1z" style="fill: rgb(102, 155, 188);"/><path d="M1333 3048 c2 -7 12 -12 21 -12 9 1 16 -4 16 -11 0 -11 15 -13 38 -6 1 1 -7 10 -18 21 -22 22 -64 28 -57 8z" style="fill: rgb(102, 155, 188);"/><path d="M1744 3036 c-22 -11 -54 -27 -71 -34 -17 -7 -33 -23 -37 -35 l-5 -22 17 21 c20 26 54 44 80 44 21 0 71 35 62 43 -3 2 -23 -5 -46 -17z" style="fill: rgb(102, 155, 188);"/><path d="M1126 3035 c-10 -8 -15 -19 -11 -27 3 -7 0 -5 -8 5 -8 9 -18 17 -22 17 -5 0 0 -9 9 -19 17 -19 24 -19 64 -4 9 3 25 5 35 4 9 -1 17 2 17 7 0 14 -43 23 -51 10 -5 -7 -8 -5 -10 5 -4 13 -7 14 -23 2z" style="fill: rgb(102, 155, 188);"/><path d="M2122 3035 c-11 -13 -9 -15 11 -15 14 0 24 6 24 15 0 19 -18 19 -35 0z" style="fill: rgb(102, 155, 188);"/><path d="M50 3031 c0 -12 62 -21 80 -10 12 6 11 8 -5 7 -11 -1 -32 2 -47 5 -16 4 -28 3 -28 -2z" style="fill: rgb(102, 155, 188);"/><path d="M270 3032 c0 -15 51 -25 63 -13 8 8 5 11 -10 11 -12 0 -28 3 -37 6 -9 3 -16 2 -16 -4z" style="fill: rgb(102, 155, 188);"/><path d="M2670 3030 c0 -23 13 -35 40 -38 24 -2 24 -2 5 9 -11 7 -25 20 -32 28 -11 14 -12 14 -13 1z" style="fill: rgb(102, 155, 188);"/><path d="M2797 3024 c-15 -8 -32 -12 -37 -9 -6 3 -10 -1 -10 -10 0 -9 3 -15 8 -13 4 2 24 12 45 21 20 10 37 19 37 22 0 8 -14 5 -43 -11z" style="fill: rgb(102, 155, 188);"/><path d="M356 3023 c-11 -11 -6 -23 8 -23 8 0 17 4 20 9 7 10 -19 23 -28 14z" style="fill: rgb(102, 155, 188);"/><path d="M1000 3019 c0 -4 -15 -13 -32 -20 l-33 -13 28 -4 c17 -2 36 3 46 12 10 9 25 16 34 16 32 0 24 15 -9 16 -19 0 -34 -3 -34 -7z" style="fill: rgb(102, 155, 188);"/><path d="M1230 3023 c0 -5 8 -16 18 -24 17 -15 20 -15 30 1 7 12 7 17 -1 17 -7 0 -20 4 -29 8 -10 4 -18 3 -18 -2z" style="fill: rgb(102, 155, 188);"/><path d="M2916 3005 c-29 -27 -76 -34 -76 -11 0 9 -7 12 -20 9 -11 -3 -20 -9 -20 -14 0 -5 7 -5 17 -2 10 4 14 2 10 -4 -6 -10 33 -33 56 -33 18 0 78 60 72 71 -8 12 -9 12 -39 -16z" style="fill: rgb(102, 155, 188);"/><path d="M497 3001 c-38 -25 -39 -26 -7 -27 19 -1 27 3 23 11 -3 9 4 12 21 11 16 0 26 -7 26 -16 1 -12 3 -12 14 2 9 13 16 14 24 6 6 -6 15 -8 19 -4 12 12 -20 27 -49 23 -16 -2 -28 0 -28 5 0 12 -11 9 -43 -11z" style="fill: rgb(102, 155, 188);"/><path d="M2006 3007 c5 -13 2 -16 -10 -11 -10 4 -16 1 -16 -9 0 -34 -92 -66 -102 -35 -3 7 -10 8 -17 4 -11 -7 -11 -10 0 -18 9 -6 -4 -7 -37 -3 -39 5 -53 3 -57 -8 -10 -27 11 -41 57 -38 11 1 16 6 13 15 -4 10 -1 13 8 9 8 -3 12 -9 9 -14 -3 -5 4 -9 15 -9 11 0 25 8 30 18 9 14 12 15 20 3 7 -11 11 -10 20 5 7 13 13 16 18 7 6 -8 13 -7 28 4 16 13 17 15 3 10 -12 -4 -18 -1 -18 8 0 8 7 15 16 15 8 0 12 5 9 10 -3 6 1 10 9 10 9 0 16 -4 16 -10 0 -5 5 -10 11 -10 6 0 9 7 6 14 -4 10 -1 13 9 9 7 -3 14 0 14 6 0 6 -8 11 -18 11 -10 0 -24 6 -31 13 -10 10 -11 9 -5 -6z" style="fill: rgb(102, 155, 188);"/><path d="M2446 3009 c5 -9 2 -10 -9 -6 -11 4 -17 1 -17 -8 0 -8 -9 -15 -20 -15 -11 0 -20 -4 -20 -10 0 -14 13 -13 46 5 21 11 30 11 36 2 4 -6 10 -9 13 -6 9 9 -8 44 -23 47 -8 1 -11 -2 -6 -9z" style="fill: rgb(102, 155, 188);"/><path d="M217 2987 c4 -6 -4 -8 -21 -3 -28 7 -37 -8 -10 -18 9 -3 46 -6 82 -5 39 1 57 4 44 7 -13 4 -22 11 -20 16 2 5 -16 10 -39 11 -27 2 -40 -1 -36 -8z" style="fill: rgb(102, 155, 188);"/><path d="M726 2985 c-4 -13 -2 -13 14 -5 24 13 63 13 55 0 -10 -16 11 -12 25 5 11 13 6 15 -38 15 -35 0 -52 -4 -56 -15z" style="fill: rgb(102, 155, 188);"/><path d="M1498 2987 c-16 -6 -28 -14 -28 -18 0 -5 15 -2 34 6 18 8 37 11 41 7 5 -4 5 -1 1 6 -8 14 -11 14 -48 -1z" style="fill: rgb(102, 155, 188);"/><path d="M2494 2980 c0 -11 3 -20 7 -20 4 0 9 9 12 20 3 12 0 20 -7 20 -6 0 -12 -9 -12 -20z" style="fill: rgb(102, 155, 188);"/><path d="M345 2974 c9 -9 19 -13 23 -10 3 4 0 11 -8 16 -24 15 -33 11 -15 -6z" style="fill: rgb(102, 155, 188);"/><path d="M2606 2975 c-17 -17 -56 -29 -91 -28 -22 1 -24 0 -7 -4 12 -2 22 -9 22 -14 0 -5 9 -9 20 -9 11 0 20 6 20 13 0 8 4 7 10 -3 8 -13 10 -12 10 4 0 17 5 18 63 11 34 -4 72 -7 84 -7 12 1 34 -3 48 -8 22 -9 26 -7 23 7 -3 16 -19 20 -95 24 -18 1 -33 6 -33 10 0 13 -62 16 -74 4z" style="fill: rgb(102, 155, 188);"/><path d="M530 2974 c1 -5 7 -20 15 -34 9 -18 10 -29 3 -37 -8 -10 -4 -13 15 -13 14 0 29 5 32 11 4 6 13 8 21 5 8 -3 14 0 14 6 0 7 5 6 15 -2 14 -12 35 -6 35 9 0 15 -47 30 -58 19 -15 -15 -62 -17 -62 -3 0 5 -7 19 -15 29 -8 11 -15 16 -15 10z" style="fill: rgb(102, 155, 188);"/><path d="M753 2966 c-6 -8 -9 -17 -6 -20 7 -7 33 13 33 25 0 13 -13 10 -27 -5z" style="fill: rgb(102, 155, 188);"/><path d="M132 2962 c-13 -2 -21 -9 -19 -15 4 -13 28 -16 71 -8 l28 6 -28 10 c-16 6 -39 9 -52 7z" style="fill: rgb(102, 155, 188);"/><path d="M404 2962 c6 -10 -30 -52 -44 -52 -6 0 -10 6 -10 14 0 8 -5 18 -12 22 -6 4 -8 3 -5 -3 4 -5 -5 -16 -18 -23 -14 -7 -25 -17 -25 -20 0 -6 119 -6 150 -1 2 1 -1 6 -8 13 -8 8 -15 8 -27 -2 -10 -8 -15 -9 -15 -2 0 6 9 16 20 22 11 6 18 15 15 21 -9 13 9 11 23 -3 6 -6 15 -8 19 -4 4 4 1 11 -7 16 -19 12 -63 13 -56 2z" style="fill: rgb(102, 155, 188);"/><path d="M823 2958 c-28 -14 -36 -44 -12 -45 11 -1 19 3 19 8 0 6 -4 7 -10 4 -5 -3 -10 -1 -10 4 0 11 13 15 40 12 12 -2 13 0 1 7 -11 8 -11 10 0 15 8 3 10 5 4 6 -5 0 -20 -5 -32 -11z" style="fill: rgb(102, 155, 188);"/><path d="M2137 2949 c5 -17 11 -20 33 -16 15 3 32 1 39 -6 6 -6 11 -8 11 -4 0 9 -61 47 -77 47 -6 0 -9 -9 -6 -21z" style="fill: rgb(102, 155, 188);"/><path d="M2070 2949 c0 -7 -3 -10 -6 -6 -8 8 -34 -18 -34 -35 0 -10 -2 -10 -8 0 -7 9 -13 8 -27 -8 -10 -11 -26 -20 -35 -20 -33 0 -89 -77 -75 -101 4 -5 1 -9 -4 -9 -6 0 -11 5 -11 10 0 17 -57 11 -64 -6 -4 -12 -2 -15 9 -10 8 3 15 2 15 -3 0 -4 -24 -7 -52 -6 -43 2 -59 -3 -81 -21 -16 -13 -40 -24 -53 -24 -14 0 -27 -7 -30 -15 -4 -8 -10 -13 -14 -10 -4 3 -11 -2 -14 -11 -10 -25 45 -11 125 31 52 27 74 34 99 29 33 -7 76 9 97 36 8 11 8 17 0 22 -6 4 4 15 25 28 20 11 39 28 42 37 5 12 9 13 21 3 9 -8 15 -8 15 -2 0 6 13 13 30 17 26 6 28 9 20 26 -9 15 -6 20 15 25 31 8 46 -3 25 -17 -12 -8 -11 -9 5 -7 13 2 19 11 19 28 1 20 -5 26 -27 28 -16 2 -27 -1 -27 -9z" style="fill: rgb(102, 155, 188);"/><path d="M2423 2934 c-12 -27 -2 -32 17 -9 8 10 10 19 4 25 -5 5 -14 -1 -21 -16z" style="fill: rgb(102, 155, 188);"/><path d="M471 2923 c-12 -14 -19 -28 -16 -31 6 -6 75 40 75 51 0 18 -40 5 -59 -20z" style="fill: rgb(102, 155, 188);"/><path d="M1181 2941 c-6 -4 -11 -14 -9 -22 2 -8 -3 -13 -11 -11 -8 2 -11 -3 -8 -13 12 -28 -4 -45 -42 -45 l-36 -1 22 -18 c12 -10 20 -21 16 -24 -3 -3 6 -9 21 -13 30 -7 34 -19 9 -28 -11 -5 -22 -1 -30 10 -10 14 -16 15 -25 6 -9 -9 -9 -12 1 -12 7 0 10 -4 6 -9 -3 -6 3 -15 14 -20 25 -14 44 -14 36 -1 -3 6 1 7 9 4 11 -4 16 0 16 10 0 9 10 20 22 25 21 8 20 9 -14 21 -20 8 -35 17 -32 21 2 4 -4 10 -13 12 -13 3 -11 5 7 7 14 1 32 2 40 1 13 -2 13 -1 0 8 -12 9 -12 11 3 17 9 3 17 13 17 20 0 8 7 17 15 20 8 4 15 10 15 15 0 14 -35 28 -49 20z" style="fill: rgb(102, 155, 188);"/><path d="M2395 2941 c-3 -6 -10 -9 -15 -6 -4 3 -13 -1 -19 -9 -7 -8 -20 -12 -30 -9 -10 3 -22 -1 -26 -8 -6 -9 2 -10 36 -5 43 7 79 29 67 41 -3 4 -9 1 -13 -4z" style="fill: rgb(102, 155, 188);"/><path d="M94 2926 c5 -13 2 -17 -9 -13 -8 4 -17 2 -20 -3 -3 -5 -18 -5 -35 0 -18 5 -30 5 -30 -1 0 -5 12 -9 27 -9 26 0 26 -1 7 -16 -19 -15 -19 -15 1 -6 11 5 31 8 43 7 28 -2 38 17 22 42 -11 17 -11 17 -6 -1z" style="fill: rgb(102, 155, 188);"/><path d="M1440 2925 c0 -9 -19 -20 -47 -28 -41 -12 -51 -12 -69 -1 -11 8 -23 11 -27 8 -10 -11 3 -24 24 -24 10 0 19 -5 19 -11 0 -8 5 -7 15 1 9 7 19 10 23 6 7 -7 -14 -28 -54 -53 -17 -10 -15 -11 11 -8 17 1 33 3 38 4 4 0 7 7 7 14 0 11 15 16 55 19 6 0 16 -1 24 -3 7 -2 16 3 18 11 3 10 2 11 -4 3 -6 -8 -13 -9 -23 -2 -11 8 -12 12 -2 16 6 2 10 9 6 14 -3 5 2 9 10 9 14 0 14 3 4 20 -15 24 -28 26 -28 5z m-16 -50 c-4 -8 -10 -15 -15 -15 -5 0 -9 7 -9 15 0 8 7 15 15 15 9 0 12 -6 9 -15z" style="fill: rgb(102, 155, 188);"/><path d="M2488 2921 c17 -10 -98 -34 -122 -25 -9 3 -16 1 -16 -5 0 -13 -57 -3 -83 14 -14 10 -25 10 -48 2 -36 -14 -38 -27 -3 -27 14 0 34 -5 45 -10 14 -8 19 -7 19 2 0 9 3 9 12 0 15 -15 31 -16 22 0 -5 7 -2 9 8 5 17 -6 174 16 184 26 9 8 -5 27 -19 27 -8 0 -8 -3 1 -9z" style="fill: rgb(102, 155, 188);"/><path d="M178 2913 c-10 -2 -18 -9 -18 -14 0 -6 10 -5 23 2 37 20 36 23 -5 12z" style="fill: rgb(102, 155, 188);"/><path d="M230 2904 c0 -7 -6 -15 -12 -17 -9 -4 -9 -6 -2 -6 7 -1 22 7 34 17 22 18 22 18 1 18 -12 0 -21 -6 -21 -12z" style="fill: rgb(102, 155, 188);"/><path d="M876 2902 c-2 -4 6 -9 19 -10 13 -1 26 2 29 6 2 4 -6 9 -19 10 -13 1 -26 -2 -29 -6z" style="fill: rgb(102, 155, 188);"/><path d="M940 2906 c0 -1 9 -10 21 -19 19 -17 20 -17 17 -1 -1 9 -11 18 -20 20 -10 1 -18 1 -18 0z" style="fill: rgb(102, 155, 188);"/><path d="M1043 2884 c-12 -27 -8 -31 12 -11 7 8 10 19 6 25 -4 6 -11 1 -18 -14z" style="fill: rgb(102, 155, 188);"/><path d="M126 2875 c-3 -8 -12 -12 -21 -9 -9 4 -17 -1 -21 -10 -5 -13 -9 -14 -20 -5 -8 7 -15 10 -17 8 -22 -39 -25 -49 -17 -54 5 -3 7 -13 4 -23 -4 -10 -3 -13 3 -6 4 6 15 14 23 17 12 4 11 6 -2 6 -20 1 -25 20 -5 22 6 1 21 2 32 3 11 0 19 7 18 14 -2 7 7 12 21 12 26 0 43 25 21 34 -7 2 -16 -2 -19 -9z" style="fill: rgb(102, 155, 188);"/><path d="M1065 2864 c-24 -22 -25 -22 -38 -3 -13 17 -16 18 -27 4 -7 -8 -19 -15 -27 -15 -7 0 -23 -9 -35 -20 -12 -11 -28 -20 -35 -20 -7 0 -13 -4 -13 -10 0 -5 -11 -10 -25 -10 -15 0 -25 6 -25 14 0 26 -19 28 -54 6 -31 -19 -35 -19 -50 -5 -9 9 -21 13 -27 9 -6 -3 -15 -1 -19 6 -5 8 -17 6 -46 -9 -21 -12 -49 -21 -62 -21 -22 0 -22 -1 -7 -16 13 -14 14 -19 3 -25 -11 -7 -10 -11 2 -19 12 -8 8 -10 -14 -8 -16 2 -31 -2 -32 -7 -3 -6 14 -9 41 -7 30 3 45 9 45 18 0 8 -4 14 -9 14 -5 0 -7 8 -4 19 3 11 14 18 31 19 15 0 44 4 65 8 41 7 47 -3 17 -29 -22 -18 -45 -14 -34 6 3 7 0 5 -8 -4 -7 -8 -21 -18 -30 -22 -10 -3 -18 -10 -18 -14 0 -11 60 -37 68 -29 3 4 -4 9 -16 13 -37 9 -25 25 17 21 31 -3 38 0 33 12 -4 12 -1 11 14 -2 16 -14 23 -15 32 -6 17 17 15 29 -4 26 -10 -2 -19 3 -21 10 -3 8 1 10 13 5 10 -3 15 -2 12 3 -4 5 7 10 23 11 16 1 29 -2 29 -6 0 -16 39 -19 66 -5 30 16 47 19 24 4 -10 -6 -11 -10 -2 -10 6 0 12 -4 12 -10 0 -5 -12 -10 -26 -10 -14 0 -35 -5 -46 -11 -17 -9 -24 -8 -34 5 -7 10 -14 14 -17 9 -2 -4 8 -20 24 -34 27 -26 27 -26 34 -5 4 13 8 16 12 9 2 -7 14 -13 26 -13 l20 0 -21 -23 c-27 -29 -27 -32 -2 -34 11 -1 18 2 16 6 -3 4 1 20 9 35 12 23 12 28 0 32 -8 3 -19 2 -26 -2 -7 -4 -9 -3 -5 4 3 5 24 13 45 17 22 4 42 13 45 21 5 12 1 14 -15 9 -17 -6 -20 -3 -17 12 3 19 48 32 48 14 0 -6 5 -11 11 -11 5 0 7 5 4 10 -4 6 7 15 24 21 17 6 31 17 31 25 0 8 11 19 25 24 29 11 32 17 10 17 -9 0 -27 -11 -40 -23z" style="fill: rgb(102, 155, 188);"/><path d="M1250 2880 c0 -5 -10 -10 -22 -10 l-23 -1 23 -19 c22 -18 22 -19 2 -25 -11 -3 -25 -3 -32 1 -7 4 -4 -2 7 -13 11 -11 22 -16 23 -12 2 5 17 9 34 9 25 0 29 -3 25 -20 -3 -11 -1 -20 5 -20 5 0 7 -4 4 -9 -4 -5 4 -6 16 -3 19 5 20 7 6 10 -10 2 -18 8 -18 13 0 6 4 8 9 4 5 -3 2 13 -7 36 -9 23 -18 37 -20 30 -5 -16 -22 -14 -22 4 0 8 5 15 11 15 5 0 7 5 4 10 -3 6 -10 10 -16 10 -5 0 -9 -4 -9 -10z" style="fill: rgb(102, 155, 188);"/><path d="M687 2865 c-5 -11 0 -15 16 -15 12 0 18 4 12 8 -5 4 -13 11 -16 15 -4 4 -9 1 -12 -8z" style="fill: rgb(102, 155, 188);"/><path d="M775 2869 c-6 -9 -4 -10 25 -14 27 -4 60 -17 60 -24 0 -4 8 -7 18 -6 20 1 62 24 47 25 -63 7 -94 12 -117 20 -17 5 -30 5 -33 -1z" style="fill: rgb(102, 155, 188);"/><path d="M1566 2870 c-15 -5 -16 -9 -7 -14 7 -5 18 -3 24 3 14 14 6 20 -17 11z" style="fill: rgb(102, 155, 188);"/><path d="M1760 2870 c-13 -8 -13 -11 -1 -22 10 -10 12 -10 7 0 -4 6 -2 12 4 12 7 0 10 -6 7 -12 -2 -7 -14 -13 -26 -12 -11 0 -21 -3 -21 -8 0 -4 -7 -8 -15 -8 -8 0 -15 -4 -15 -9 0 -5 -11 -12 -25 -15 -16 -4 -25 -13 -25 -26 0 -11 -7 -20 -16 -20 -8 0 -13 4 -9 9 3 5 0 13 -6 16 -16 11 -22 -1 -10 -23 10 -18 14 -19 41 -9 16 6 33 20 36 30 3 10 19 20 35 24 16 3 29 9 29 14 0 5 8 6 18 2 9 -3 14 -3 10 2 -4 4 0 13 9 20 10 7 14 19 10 29 -7 18 -16 20 -37 6z" style="fill: rgb(102, 155, 188);"/><path d="M2140 2870 c24 -8 24 -8 -7 -9 -17 -1 -35 -6 -38 -11 -7 -11 11 -9 70 6 26 6 27 8 10 15 -11 4 -29 7 -40 7 -16 0 -15 -2 5 -8z" style="fill: rgb(102, 155, 188);"/><path d="M732 2850 c-11 -18 -9 -20 14 -20 24 0 25 2 13 18 -7 9 -14 18 -14 19 0 1 -6 -7 -13 -17z" style="fill: rgb(102, 155, 188);"/><path d="M1510 2850 c11 -7 11 -10 2 -10 -7 0 -10 -4 -7 -10 3 -5 1 -10 -4 -10 -6 0 -11 6 -11 13 0 9 -2 9 -9 -1 -4 -8 -14 -12 -22 -11 -24 5 -80 -12 -73 -22 7 -11 1 -11 -30 1 -20 7 -24 6 -19 -5 5 -14 17 -19 36 -16 4 0 7 -5 7 -11 1 -9 5 -8 13 3 7 9 23 22 37 29 24 13 24 12 10 -5 -14 -17 -13 -18 2 -12 10 3 20 2 22 -2 3 -4 24 -6 46 -4 23 2 47 -1 55 -7 9 -8 14 -7 18 4 8 20 -23 28 -68 16 -20 -5 -45 0 -45 10 0 6 11 10 25 10 14 0 25 4 25 9 0 14 49 5 69 -13 20 -18 41 -21 41 -6 0 6 5 10 11 10 16 0 40 28 30 35 -5 3 -12 1 -15 -3 -3 -5 -17 -7 -31 -4 -20 3 -24 1 -19 -12 5 -14 3 -14 -25 0 -17 8 -35 13 -41 9 -5 -3 -10 1 -10 9 0 9 -8 16 -17 16 -15 0 -16 -2 -3 -10z" style="fill: rgb(102, 155, 188);"/><path d="M2046 2850 c-15 -5 -16 -9 -7 -14 7 -5 18 -3 24 3 14 14 6 20 -17 11z" style="fill: rgb(102, 155, 188);"/><path d="M196 2842 c-3 -5 1 -12 9 -16 8 -3 15 -1 15 4 0 6 16 1 35 -9 26 -14 48 -17 78 -14 50 7 49 6 41 27 -7 17 -34 22 -34 6 0 -10 -58 -7 -111 6 -15 3 -29 1 -33 -4z" style="fill: rgb(102, 155, 188);"/><path d="M1820 2830 c-18 -14 -21 -20 -9 -20 9 0 24 9 34 20 23 26 8 26 -25 0z" style="fill: rgb(102, 155, 188);"/><path d="M1050 2800 c12 -8 11 -12 -8 -30 -12 -12 -27 -18 -32 -15 -6 4 -13 -1 -16 -9 -3 -9 -13 -16 -22 -16 -24 0 -6 -12 23 -15 18 -2 32 6 50 28 14 18 30 37 35 44 15 19 12 23 -17 23 -22 0 -25 -3 -13 -10z" style="fill: rgb(102, 155, 188);"/><path d="M361 2781 c-31 -20 27 -24 85 -6 15 5 23 2 27 -10 6 -15 -4 -24 -36 -29 -8 -1 -22 -9 -31 -19 -10 -9 -26 -17 -37 -17 -11 0 -17 -5 -14 -10 4 -6 9 -8 13 -6 22 13 81 14 98 1 10 -8 24 -14 29 -15 6 0 3 5 -5 11 -12 8 -9 9 10 4 44 -11 70 -13 70 -5 0 8 -50 22 -90 25 -52 4 -54 7 -16 21 23 8 42 10 45 5 3 -5 16 -1 29 9 13 11 18 21 12 25 -5 3 -10 0 -10 -7 0 -9 -3 -9 -10 2 -5 8 -10 11 -10 6 0 -4 -11 -1 -25 8 -26 17 -111 22 -134 7z" style="fill: rgb(102, 155, 188);"/><path d="M76 2767 c3 -10 1 -17 -5 -17 -6 0 -11 -4 -11 -9 0 -5 11 -8 25 -8 30 0 32 8 5 32 -18 17 -20 17 -14 2z" style="fill: rgb(102, 155, 188);"/><path d="M1185 2752 c-2 -7 0 -10 5 -7 6 3 10 -2 10 -12 1 -17 1 -17 14 0 8 11 20 15 32 11 14 -4 16 -3 5 4 -11 8 -11 10 0 15 8 3 -3 5 -23 4 -21 0 -40 -7 -43 -15z" style="fill: rgb(102, 155, 188);"/><path d="M1455 2738 c-76 -24 -85 -30 -101 -54 -13 -18 -11 -19 31 -19 27 0 45 5 45 11 0 23 31 24 40 1 5 -12 9 -16 9 -9 1 7 5 11 10 8 5 -3 12 1 15 10 9 24 8 27 -14 21 -11 -3 -22 -2 -25 2 -2 4 1 8 8 9 7 1 38 5 71 8 l59 7 -33 13 c-38 17 -38 17 -115 -8z" style="fill: rgb(102, 155, 188);"/><path d="M133 2732 c10 -10 17 -26 17 -35 0 -20 -20 -33 -29 -18 -5 8 -11 3 -19 -13 -7 -17 -20 -25 -46 -28 -20 -2 -36 0 -36 4 0 4 5 8 10 8 6 0 9 6 8 13 -2 7 5 11 17 9 15 -2 20 3 20 23 0 26 -10 34 -18 13 -3 -9 -10 -8 -26 6 -11 11 -24 16 -27 13 -4 -4 1 -9 10 -13 9 -3 13 -10 10 -15 -3 -5 -10 -7 -15 -4 -5 4 -9 1 -9 -4 0 -6 4 -11 10 -11 6 0 6 -10 -1 -27 -13 -36 -1 -45 45 -32 21 6 48 12 59 15 11 2 24 9 28 15 4 7 14 9 25 4 31 -12 86 -17 80 -6 -4 5 14 13 39 16 43 7 54 25 15 25 -10 0 -21 4 -24 9 -3 5 17 9 44 9 34 1 56 7 68 18 16 16 14 17 -34 11 -34 -4 -56 -2 -64 6 -10 9 -12 9 -8 -3 5 -12 -1 -16 -21 -14 -19 1 -30 -5 -38 -23 -11 -23 -10 -24 15 -23 42 3 50 -2 17 -10 -45 -11 -75 -11 -75 1 0 5 4 8 9 4 6 -3 9 4 8 16 -1 12 -11 25 -23 29 -12 5 -25 14 -29 19 -3 6 -11 11 -17 11 -6 0 -4 -8 5 -18z" style="fill: rgb(102, 155, 188);"/><path d="M1075 2740 c4 -7 1 -16 -6 -21 -10 -6 -4 -9 19 -9 39 0 40 3 6 25 -15 9 -23 12 -19 5z" style="fill: rgb(102, 155, 188);"/><path d="M1150 2715 c0 -8 5 -15 10 -15 6 0 10 7 10 15 0 8 -4 15 -10 15 -5 0 -10 -7 -10 -15z" style="fill: rgb(102, 155, 188);"/><path d="M1243 2714 c-7 -7 -22 -11 -33 -9 -11 2 -20 0 -20 -6 0 -12 137 -12 144 0 3 5 -1 12 -10 15 -22 9 -26 8 -18 -5 7 -13 -38 -2 -46 11 -3 4 -11 2 -17 -6z" style="fill: rgb(102, 155, 188);"/><path d="M1530 2710 c-12 -8 -12 -10 3 -16 21 -8 35 2 21 16 -5 5 -15 6 -24 0z" style="fill: rgb(102, 155, 188);"/><path d="M790 2691 c0 -11 6 -22 13 -25 6 -3 1 -3 -13 0 -14 3 -37 12 -52 19 -22 10 -28 10 -32 0 -4 -12 27 -29 47 -26 4 1 7 -3 7 -9 0 -5 16 -10 36 -10 26 0 33 -3 27 -12 -15 -24 -14 -48 2 -42 8 4 15 15 15 25 0 11 7 19 16 19 8 0 12 5 9 10 -3 6 -15 10 -26 10 -10 0 -19 5 -19 10 0 6 5 10 10 10 6 0 10 8 9 18 0 10 -3 12 -6 5 -2 -7 -9 -13 -14 -13 -4 0 -6 7 -3 15 4 9 0 15 -10 15 -9 0 -16 -8 -16 -19z" style="fill: rgb(102, 155, 188);"/><path d="M943 2683 c0 -7 4 -13 8 -13 4 0 14 -3 23 -6 11 -4 16 0 16 12 0 13 -7 19 -23 19 -13 0 -24 -6 -24 -12z" style="fill: rgb(102, 155, 188);"/><path d="M641 2676 c-9 -11 -7 -15 11 -19 28 -8 29 -6 13 16 -10 14 -14 15 -24 3z" style="fill: rgb(102, 155, 188);"/><path d="M1030 2679 c0 -6 -7 -9 -15 -5 -9 3 -15 0 -15 -10 0 -11 6 -13 21 -9 18 6 20 4 14 -17 -4 -16 -3 -19 3 -9 7 9 12 10 16 2 4 -6 12 -11 18 -11 7 0 2 9 -11 21 -17 16 -20 24 -10 35 9 11 8 14 -5 14 -9 0 -16 -5 -16 -11z" style="fill: rgb(102, 155, 188);"/><path d="M1090 2669 c-9 -17 -9 -20 0 -14 7 4 16 2 20 -6 11 -17 -34 -64 -51 -53 -8 4 -9 3 -5 -4 4 -8 0 -12 -11 -12 -10 0 -38 -18 -62 -40 -25 -22 -70 -50 -102 -62 -31 -13 -57 -27 -57 -32 0 -15 -26 -25 -48 -20 -29 7 -122 -27 -191 -70 -62 -39 -65 -44 -10 -21 19 8 38 11 42 7 5 -4 5 -2 2 4 -8 13 14 24 47 24 13 0 26 3 30 7 3 4 14 8 24 9 43 6 108 26 122 38 8 7 23 16 33 19 10 4 15 12 12 17 -4 6 -3 10 2 9 7 -2 33 3 86 18 9 2 17 11 17 19 0 8 6 14 14 14 8 0 16 7 20 15 3 8 12 15 21 15 8 0 15 4 15 9 0 5 10 11 23 13 13 2 22 10 21 19 -2 20 34 17 70 -6 18 -12 26 -14 26 -5 0 15 -40 54 -65 63 -9 4 -14 11 -11 16 3 5 -1 14 -8 21 -12 9 -17 7 -26 -11z" style="fill: rgb(102, 155, 188);"/><path d="M433 2666 c-24 -11 -31 -26 -12 -26 11 0 44 29 38 33 -2 2 -14 -2 -26 -7z" style="fill: rgb(102, 155, 188);"/><path d="M370 2647 c0 -15 4 -27 10 -27 5 0 9 9 7 20 -5 31 -17 36 -17 7z" style="fill: rgb(102, 155, 188);"/><path d="M1290 2660 c-8 -5 -31 -7 -51 -4 -39 7 -80 -8 -60 -20 6 -4 11 -2 11 3 0 21 21 11 30 -14 7 -18 17 -25 35 -25 14 0 25 5 25 11 0 8 4 8 14 0 15 -12 101 4 121 22 7 7 6 8 -2 3 -6 -3 -23 -2 -38 4 -19 7 -31 7 -41 -1 -19 -15 -38 -1 -23 17 13 16 1 18 -21 4z" style="fill: rgb(102, 155, 188);"/><path d="M472 2644 c-7 -8 -9 -14 -5 -15 4 0 -2 -4 -14 -9 -16 -6 -21 -14 -16 -26 3 -9 0 -20 -8 -26 -12 -8 -11 -9 1 -5 8 2 16 13 18 25 3 19 10 22 50 23 l47 1 -35 12 c-21 8 -29 15 -20 18 8 2 10 7 5 10 -6 3 -16 0 -23 -8z" style="fill: rgb(102, 155, 188);"/><path d="M1520 2644 c-25 -7 -55 -14 -67 -14 -13 0 -23 -5 -23 -10 0 -12 68 -3 86 11 6 5 18 7 26 4 9 -4 18 1 21 9 4 9 5 16 4 15 -1 0 -22 -7 -47 -15z" style="fill: rgb(102, 155, 188);"/><path d="M261 2622 c-10 -22 -9 -23 11 -16 13 3 27 13 31 20 11 19 28 18 21 0 -4 -10 1 -14 14 -13 16 1 18 5 11 18 -14 27 -75 21 -88 -9z" style="fill: rgb(102, 155, 188);"/><path d="M525 2639 c4 -6 14 -8 22 -5 11 5 13 2 9 -10 -4 -12 -1 -14 14 -9 11 4 20 4 20 1 0 -8 -62 -36 -82 -36 -10 0 -18 -5 -18 -11 0 -5 4 -8 9 -5 5 4 11 1 13 -5 2 -6 14 -2 27 10 13 12 27 21 31 21 4 0 17 9 30 20 13 11 29 20 37 20 8 0 11 5 8 10 -3 6 -17 10 -31 10 -14 0 -22 -4 -19 -10 3 -5 -1 -10 -9 -10 -9 0 -16 5 -16 10 0 6 -12 10 -26 10 -15 0 -23 -4 -19 -11z" style="fill: rgb(102, 155, 188);"/><path d="M682 2642 c-10 -3 -10 -7 -1 -18 12 -15 49 -20 49 -6 0 12 -34 29 -48 24z" style="fill: rgb(102, 155, 188);"/><path d="M747 2624 c3 -8 9 -11 14 -8 5 3 9 1 9 -5 0 -5 -6 -11 -12 -14 -10 -4 -10 -7 0 -18 10 -11 15 -10 29 4 11 11 13 17 5 17 -7 0 -12 6 -12 14 0 7 -9 16 -19 19 -14 3 -18 1 -14 -9z" style="fill: rgb(102, 155, 188);"/><path d="M970 2629 c0 -5 -11 -7 -25 -3 -34 8 -71 -2 -79 -22 -5 -14 -1 -16 28 -11 24 4 39 1 47 -9 6 -8 17 -14 23 -14 6 0 3 5 -6 11 -32 18 -19 30 27 25 37 -3 44 -2 35 9 -13 16 -50 26 -50 14z" style="fill: rgb(102, 155, 188);"/><path d="M160 2620 c-14 -4 -19 -8 -12 -9 14 -1 17 -31 2 -31 -5 0 -10 5 -10 10 0 6 -9 10 -20 10 -11 0 -20 -4 -20 -10 0 -5 -7 -10 -16 -10 -10 0 -14 6 -10 15 3 8 2 15 -2 15 -13 -1 -52 -38 -52 -50 0 -6 -5 -8 -10 -5 -6 3 -10 1 -10 -4 0 -12 11 -14 34 -5 8 3 12 12 10 19 -6 14 7 14 38 0 23 -9 13 -25 -15 -26 -21 0 -21 -1 -2 -8 14 -6 23 -4 28 6 5 8 20 18 34 24 20 7 28 6 39 -8 13 -17 13 -17 14 1 0 12 5 16 16 12 9 -3 20 -6 25 -6 14 0 11 -28 -3 -33 -7 -3 -3 -6 8 -6 12 -1 25 6 28 15 3 8 11 12 17 8 6 -4 25 -10 43 -13 25 -5 36 -2 55 18 l23 24 -31 -6 c-18 -4 -31 -2 -31 3 0 9 22 14 43 11 4 0 7 4 7 9 0 12 -20 13 -40 0 -9 -5 -19 -5 -25 0 -8 7 -12 5 -12 -5 0 -8 5 -15 11 -16 6 0 2 -4 -9 -9 -28 -12 -37 -12 -30 0 3 6 1 10 -4 10 -6 0 -11 -4 -11 -10 0 -5 -5 -10 -11 -10 -6 0 -9 7 -6 14 4 11 1 13 -10 9 -12 -5 -15 -2 -10 10 5 14 1 15 -26 10 -30 -6 -31 -6 -14 11 27 28 23 31 -23 16z" style="fill: rgb(102, 155, 188);"/><path d="M403 2613 c-17 -6 -17 -23 0 -23 8 0 14 7 14 15 0 8 -1 15 -1 14 -1 0 -7 -3 -13 -6z" style="fill: rgb(102, 155, 188);"/><path d="M664 2575 c-23 -14 -44 -32 -48 -40 -3 -8 -14 -15 -25 -15 -11 0 -22 -4 -25 -9 -3 -4 2 -7 12 -6 29 3 52 16 52 30 0 8 8 12 20 10 11 -2 20 1 20 6 0 6 4 8 9 5 5 -3 12 1 15 10 3 8 10 12 16 9 5 -3 10 1 10 9 0 21 -8 20 -56 -9z" style="fill: rgb(102, 155, 188);"/><path d="M1385 2580 c-27 -7 -25 -8 15 -8 25 0 56 4 70 8 21 7 19 8 -15 8 -22 0 -53 -4 -70 -8z" style="fill: rgb(102, 155, 188);"/><path d="M561 2549 c-29 -29 -45 -36 -81 -38 -12 -1 -12 -3 -2 -9 24 -16 52 -6 81 27 16 18 34 30 40 26 6 -3 11 1 11 9 0 24 -15 19 -49 -15z" style="fill: rgb(102, 155, 188);"/><path d="M842 2571 c-7 -4 3 -12 23 -20 37 -13 65 -7 47 11 -13 13 -55 18 -70 9z" style="fill: rgb(102, 155, 188);"/><path d="M1253 2573 c-23 -9 -14 -20 17 -20 18 0 27 4 23 11 -5 8 -3 8 8 0 8 -5 30 -11 49 -12 34 -2 34 -1 -10 13 -46 15 -66 17 -87 8z" style="fill: rgb(102, 155, 188);"/><path d="M1784 2565 c-18 -13 -16 -14 18 -13 30 1 36 4 27 15 -14 17 -21 16 -45 -2z" style="fill: rgb(102, 155, 188);"/><path d="M794 2559 c-7 -12 13 -29 36 -29 10 0 7 -5 -8 -15 -15 -11 -27 -13 -40 -6 -13 7 -23 4 -41 -15 l-24 -25 28 7 c21 5 26 4 20 -6 -8 -13 41 16 63 37 7 7 20 13 27 13 9 0 12 6 9 15 -4 8 -10 12 -15 9 -14 -8 -50 6 -44 17 4 5 4 9 1 9 -3 0 -8 -5 -12 -11z" style="fill: rgb(102, 155, 188);"/><path d="M445 2550 c-11 -4 -30 -6 -42 -3 -26 6 -30 -8 -9 -26 16 -14 82 -5 93 12 4 7 0 8 -11 4 -14 -5 -17 -3 -12 8 3 8 4 15 3 14 -1 0 -11 -4 -22 -9z" style="fill: rgb(102, 155, 188);"/><path d="M115 2529 c-3 -9 -5 -20 -4 -25 4 -21 -2 -26 -16 -14 -13 11 -14 10 -9 -4 7 -20 8 -20 42 -2 16 8 36 14 46 13 11 -1 21 3 23 10 3 7 -7 11 -27 11 -18 -1 -36 5 -40 13 -7 11 -10 11 -15 -2z" style="fill: rgb(102, 155, 188);"/><path d="M30 2520 c0 -5 -7 -10 -15 -10 -8 0 -15 -4 -15 -10 0 -5 7 -10 15 -10 8 0 15 -6 15 -14 0 -8 5 -18 12 -22 8 -5 9 0 4 17 -4 13 -8 32 -7 42 0 9 -2 17 -5 17 -2 0 -4 -4 -4 -10z" style="fill: rgb(102, 155, 188);"/><path d="M1112 2497 c-8 -10 -5 -13 13 -15 18 -1 23 2 19 13 -7 18 -18 19 -32 2z" style="fill: rgb(102, 155, 188);"/><path d="M261 2486 c-6 -7 -8 -16 -4 -20 4 -4 -1 -4 -12 0 -19 6 -19 6 -3 -11 11 -12 23 -15 35 -10 12 5 14 9 6 12 -7 3 -13 9 -13 14 0 4 7 6 15 3 8 -4 15 -2 15 4 0 16 -28 22 -39 8z" style="fill: rgb(102, 155, 188);"/><path d="M338 2484 c-30 -16 -37 -34 -13 -34 8 0 15 5 15 11 0 7 11 9 26 6 28 -5 94 12 94 24 0 4 -16 3 -36 -2 -23 -7 -39 -7 -47 -1 -8 7 -21 5 -39 -4z" style="fill: rgb(102, 155, 188);"/><path d="M128 2450 c-11 -12 -13 -22 -7 -26 6 -3 8 -13 5 -21 -3 -8 -1 -11 4 -8 6 3 10 15 10 26 0 14 7 19 25 19 14 0 25 4 25 10 0 5 -7 7 -15 4 -8 -4 -15 -1 -15 5 0 16 -12 12 -32 -9z" style="fill: rgb(102, 155, 188);"/><path d="M620 2434 c-13 -13 -19 -24 -12 -24 6 0 12 5 12 10 0 6 10 10 23 10 12 1 36 7 52 15 l30 13 -40 1 c-29 0 -47 -7 -65 -25z" style="fill: rgb(102, 155, 188);"/><path d="M77 2430 c-4 -16 -11 -20 -25 -15 -20 6 -40 -10 -27 -23 3 -3 10 0 15 8 6 10 10 11 10 3 0 -10 6 -10 25 -1 27 12 29 16 16 36 -6 10 -10 8 -14 -8z" style="fill: rgb(102, 155, 188);"/><path d="M200 2420 c0 -5 9 -10 20 -10 11 0 20 5 20 10 0 6 -9 10 -20 10 -11 0 -20 -4 -20 -10z" style="fill: rgb(102, 155, 188);"/><path d="M499 2369 c-10 -6 -7 -9 11 -9 14 0 31 4 39 9 9 6 6 9 -12 9 -14 0 -31 -4 -38 -9z" style="fill: rgb(102, 155, 188);"/><path d="M446 2305 c-25 -19 -16 -19 20 0 16 8 22 15 14 15 -8 -1 -24 -7 -34 -15z" style="fill: rgb(102, 155, 188);"/><path d="M320 2290 c-13 -9 -13 -10 0 -9 8 0 24 4 35 9 20 9 20 9 0 9 -11 0 -27 -4 -35 -9z" style="fill: rgb(102, 155, 188);"/></g></svg>